<?xml version="1.0" encoding="UTF-8"?>
<svg xmlns="http://www.w3.org/2000/svg" xmlns:xlink="http://www.w3.org/1999/xlink" width="300pt" height="299.999988pt" viewBox="0 0 300 299.999988" version="1.2">
<defs>
<clipPath id="clip1">
  <path d="M 0 15 L 295.9375 15 L 295.9375 287.753906 L 0 287.753906 Z M 0 15 "/>
</clipPath>
<clipPath id="clip2">
  <path d="M 24.765625 15 L 293.394531 15 L 293.394531 287.753906 L 24.765625 287.753906 Z M 24.765625 15 "/>
</clipPath>
<clipPath id="clip3">
  <path d="M 0 11.453125 L 288 11.453125 L 288 279 L 0 279 Z M 0 11.453125 "/>
</clipPath>
<clipPath id="clip4">
  <path d="M 21.59375 15.359375 L 295.9375 15.359375 L 295.9375 287.753906 L 21.59375 287.753906 Z M 21.59375 15.359375 "/>
</clipPath>
<clipPath id="clip5">
  <path d="M 55.25 84.410156 L 299.992188 84.410156 L 299.992188 279.527344 L 55.25 279.527344 Z M 55.25 84.410156 "/>
</clipPath>
</defs>
<g id="surface1">
<g clip-path="url(#clip1)" clip-rule="nonzero">
<path style=" stroke:none;fill-rule:nonzero;fill:rgb(96.469116%,51.368713%,41.958618%);fill-opacity:1;" d="M 261.578125 228.21875 L 250.570312 211.707031 L 246.320312 211.707031 C 242.011719 217.4375 237.464844 222.96875 232.71875 228.21875 Z M 44.664062 42.46875 C 44.664062 42.71875 44.683594 42.96875 44.71875 43.210938 C 47.453125 41.359375 50.285156 39.601562 53.203125 37.941406 C 52.328125 37.351562 51.273438 37.003906 50.136719 37.003906 C 47.117188 37.003906 44.664062 39.453125 44.664062 42.46875 Z M 295.804688 238.089844 L 283.039062 238.089844 L 288.820312 287.753906 L 279.546875 287.753906 L 273.761719 238.089844 L 241.070312 238.089844 L 235.289062 287.753906 L 226.015625 287.753906 L 231.796875 238.089844 L 223.238281 238.089844 C 198.511719 262.246094 169.566406 278.523438 141.195312 278.523438 C 128.515625 278.523438 115.953125 276.058594 103.851562 271.621094 L 105.730469 287.753906 L 96.457031 287.753906 L 94.105469 267.574219 C 81.027344 261.507812 68.632812 253.171875 57.386719 243.203125 L 52.199219 287.753906 L 42.929688 287.753906 L 48.707031 238.089844 L 36.644531 238.089844 L 36.644531 228.21875 L 42.425781 228.21875 C 16.746094 199.242188 0 161.59375 0 125.882812 C 0 92.582031 14.5625 66.78125 37.355469 48.628906 C 36.960938 47.816406 36.640625 46.972656 36.410156 46.101562 L 32.242188 45.183594 L 32.242188 39.75 L 36.410156 38.835938 C 36.738281 37.613281 37.21875 36.445312 37.855469 35.351562 L 35.554688 31.765625 L 39.410156 27.921875 L 43.007812 30.214844 C 44.101562 29.578125 45.269531 29.097656 46.496094 28.777344 L 47.414062 24.613281 L 52.863281 24.613281 L 53.777344 28.777344 C 55.003906 29.097656 56.175781 29.578125 57.269531 30.214844 L 60.867188 27.921875 L 64.71875 31.765625 L 64.4375 32.203125 C 66.507812 31.257812 68.617188 30.355469 70.75 29.492188 L 70.75 24.613281 L 84.671875 24.613281 C 95.875 21.238281 107.695312 18.921875 119.8125 17.675781 C 119.800781 17.570312 119.78125 17.46875 119.78125 17.359375 C 119.78125 16.097656 120.8125 15.070312 122.078125 15.070312 C 123.308594 15.070312 124.304688 16.042969 124.363281 17.253906 C 129.929688 16.804688 135.550781 16.582031 141.195312 16.582031 C 213.707031 16.582031 289.972656 27.511719 289.972656 99.847656 C 289.972656 133.230469 273.722656 173.863281 249.097656 207.9375 L 268.34375 207.9375 L 281.863281 228.21875 L 295.804688 228.21875 Z M 33.820312 19.652344 C 35.085938 19.652344 36.113281 18.625 36.113281 17.359375 C 36.113281 16.097656 35.085938 15.070312 33.820312 15.070312 C 32.550781 15.070312 31.523438 16.097656 31.523438 17.359375 C 31.523438 18.625 32.550781 19.652344 33.820312 19.652344 Z M 210.058594 17.359375 C 210.058594 16.097656 211.089844 15.070312 212.355469 15.070312 C 213.621094 15.070312 214.652344 16.097656 214.652344 17.359375 C 214.652344 18.625 213.621094 19.652344 212.355469 19.652344 C 211.089844 19.652344 210.058594 18.625 210.058594 17.359375 "/>
</g>
<g clip-path="url(#clip2)" clip-rule="nonzero">
<path style=" stroke:none;fill-rule:nonzero;fill:rgb(36.859131%,78.819275%,79.998779%);fill-opacity:1;" d="M 206.0625 19.019531 C 206.980469 19.019531 207.726562 18.277344 207.726562 17.359375 C 207.726562 16.445312 206.980469 15.703125 206.0625 15.703125 C 205.144531 15.703125 204.402344 16.445312 204.402344 17.359375 C 204.402344 18.277344 205.144531 19.019531 206.0625 19.019531 Z M 243.648438 68.617188 L 251.382812 68.617188 L 251.382812 66.71875 L 243.648438 66.71875 Z M 240.644531 42.972656 L 230.105469 36.691406 L 230.105469 49.253906 Z M 266.984375 60.320312 L 203.769531 60.320312 L 203.769531 27.378906 L 266.984375 27.378906 Z M 254.75 64.605469 L 249.363281 64.605469 L 249.363281 66.503906 L 254.75 66.503906 Z M 243.648438 64.605469 L 243.648438 66.503906 L 249.035156 66.503906 L 249.035156 64.605469 Z M 254.75 62.496094 L 243.648438 62.496094 L 243.648438 64.394531 L 254.75 64.394531 Z M 76.992188 68.726562 L 70.527344 68.726562 L 70.527344 69.359375 L 76.992188 69.359375 Z M 80.355469 67.246094 L 80.355469 66.613281 L 76.242188 66.613281 L 76.242188 67.246094 Z M 74.640625 66.613281 L 70.527344 66.613281 L 70.527344 67.246094 L 74.640625 67.246094 Z M 80.355469 64.5 L 70.527344 64.5 L 70.527344 65.136719 L 80.355469 65.136719 Z M 36.445312 68.726562 L 29.980469 68.726562 L 29.980469 69.359375 L 36.445312 69.359375 Z M 39.808594 67.246094 L 39.808594 66.613281 L 35.695312 66.613281 L 35.695312 67.246094 Z M 34.09375 66.613281 L 29.980469 66.613281 L 29.980469 67.246094 L 34.09375 67.246094 Z M 39.808594 64.5 L 29.980469 64.5 L 29.980469 65.136719 L 39.808594 65.136719 Z M 82.691406 49.054688 L 71.386719 49.054688 L 71.386719 53 L 82.691406 53 Z M 82.691406 31.835938 L 71.386719 31.835938 L 71.386719 35.78125 L 82.691406 35.78125 Z M 27.527344 19.019531 C 28.445312 19.019531 29.1875 18.277344 29.1875 17.359375 C 29.1875 16.445312 28.445312 15.703125 27.527344 15.703125 C 26.609375 15.703125 25.867188 16.445312 25.867188 17.359375 C 25.867188 18.277344 26.609375 19.019531 27.527344 19.019531 Z M 40.679688 42.46875 C 40.679688 47.667969 44.921875 51.902344 50.136719 51.902344 C 55.355469 51.902344 59.597656 47.667969 59.597656 42.46875 C 59.597656 37.265625 55.355469 33.03125 50.136719 33.03125 C 44.921875 33.03125 40.679688 37.265625 40.679688 42.46875 Z M 40.046875 42.46875 C 40.046875 36.914062 44.574219 32.398438 50.136719 32.398438 C 55.703125 32.398438 60.230469 36.914062 60.230469 42.46875 C 60.230469 48.019531 55.703125 52.535156 50.136719 52.535156 C 44.574219 52.535156 40.046875 48.019531 40.046875 42.46875 Z M 160.546875 99.300781 C 160.027344 99.300781 159.554688 99.722656 159.492188 100.238281 C 159.421875 100.757812 159.792969 101.175781 160.3125 101.175781 C 160.832031 101.175781 161.304688 100.757812 161.367188 100.238281 C 161.433594 99.722656 161.066406 99.300781 160.546875 99.300781 Z M 187.503906 99.605469 L 178.046875 99.605469 C 177.699219 99.605469 177.414062 99.886719 177.414062 100.238281 C 177.414062 100.589844 177.699219 100.871094 178.046875 100.871094 L 187.503906 100.871094 C 187.855469 100.871094 188.140625 100.589844 188.140625 100.238281 C 188.140625 99.886719 187.855469 99.605469 187.503906 99.605469 Z M 115.785156 19.652344 C 117.050781 19.652344 118.082031 18.625 118.082031 17.359375 C 118.082031 16.097656 117.050781 15.070312 115.785156 15.070312 C 114.519531 15.070312 113.492188 16.097656 113.492188 17.359375 C 113.492188 18.625 114.519531 19.652344 115.785156 19.652344 Z M 132.914062 62.265625 C 132.914062 63.265625 133.730469 64.078125 134.730469 64.078125 L 148.484375 64.078125 C 149.484375 64.078125 150.300781 63.265625 150.300781 62.265625 C 150.300781 61.265625 149.484375 60.453125 148.484375 60.453125 L 134.730469 60.453125 C 133.730469 60.453125 132.914062 61.265625 132.914062 62.265625 Z M 120.335938 53.054688 L 134.089844 53.054688 C 135.09375 53.054688 135.910156 52.242188 135.910156 51.238281 C 135.910156 50.238281 135.09375 49.429688 134.089844 49.429688 L 120.335938 49.429688 C 119.332031 49.429688 118.515625 50.238281 118.515625 51.238281 C 118.515625 52.242188 119.332031 53.054688 120.335938 53.054688 Z M 120.335938 42.03125 L 144.167969 42.03125 C 145.167969 42.03125 145.984375 41.214844 145.984375 40.214844 C 145.984375 39.214844 145.167969 38.402344 144.167969 38.402344 L 120.335938 38.402344 C 119.332031 38.402344 118.515625 39.214844 118.515625 40.214844 C 118.515625 41.214844 119.332031 42.03125 120.335938 42.03125 Z M 148.761719 53.054688 L 153.625 53.054688 C 154.628906 53.054688 155.441406 52.242188 155.441406 51.238281 C 155.441406 50.238281 154.628906 49.429688 153.625 49.429688 L 148.761719 49.429688 C 147.757812 49.429688 146.941406 50.238281 146.941406 51.238281 C 146.941406 52.242188 147.757812 53.054688 148.761719 53.054688 Z M 143.804688 53.054688 C 144.804688 53.054688 145.621094 52.242188 145.621094 51.238281 C 145.621094 50.238281 144.804688 49.429688 143.804688 49.429688 L 138.941406 49.429688 C 137.9375 49.429688 137.121094 50.238281 137.121094 51.238281 C 137.121094 52.242188 137.9375 53.054688 138.941406 53.054688 Z M 120.335938 36.519531 L 125.199219 36.519531 C 126.203125 36.519531 127.019531 35.703125 127.019531 34.703125 C 127.019531 33.703125 126.203125 32.890625 125.199219 32.890625 L 120.335938 32.890625 C 119.332031 32.890625 118.515625 33.703125 118.515625 34.703125 C 118.515625 35.703125 119.332031 36.519531 120.335938 36.519531 Z M 120.335938 31.003906 L 136.714844 31.003906 C 137.71875 31.003906 138.535156 30.195312 138.535156 29.195312 C 138.535156 28.195312 137.71875 27.378906 136.714844 27.378906 L 120.335938 27.378906 C 119.332031 27.378906 118.515625 28.195312 118.515625 29.195312 C 118.515625 30.195312 119.332031 31.003906 120.335938 31.003906 Z M 155.710938 270.5625 L 40.121094 270.5625 C 35.363281 270.5625 31.503906 274.410156 31.503906 279.160156 C 31.503906 283.90625 35.363281 287.753906 40.121094 287.753906 L 155.710938 287.753906 C 160.46875 287.753906 164.328125 283.90625 164.328125 279.160156 C 164.328125 274.410156 160.46875 270.5625 155.710938 270.5625 Z M 289.0625 90.949219 C 289.0625 90.601562 288.777344 90.316406 288.429688 90.316406 L 257.203125 90.316406 C 256.851562 90.316406 256.570312 90.601562 256.570312 90.949219 C 256.570312 91.300781 256.851562 91.582031 257.203125 91.582031 L 288.429688 91.582031 C 288.777344 91.582031 289.0625 91.300781 289.0625 90.949219 Z M 274.394531 100.871094 L 279.746094 100.871094 C 280.097656 100.871094 280.382812 100.589844 280.382812 100.238281 C 280.382812 99.886719 280.097656 99.605469 279.746094 99.605469 L 274.394531 99.605469 C 274.042969 99.605469 273.757812 99.886719 273.757812 100.238281 C 273.757812 100.589844 274.042969 100.871094 274.394531 100.871094 Z M 286.984375 104.378906 C 286.984375 104.027344 286.699219 103.742188 286.347656 103.742188 L 273.871094 103.742188 C 273.523438 103.742188 273.238281 104.027344 273.238281 104.378906 C 273.238281 104.726562 273.523438 105.011719 273.871094 105.011719 L 286.347656 105.011719 C 286.699219 105.011719 286.984375 104.726562 286.984375 104.378906 Z M 273.351562 109.152344 L 279.757812 109.152344 C 280.109375 109.152344 280.390625 108.867188 280.390625 108.515625 C 280.390625 108.164062 280.109375 107.882812 279.757812 107.882812 L 273.351562 107.882812 C 273 107.882812 272.714844 108.164062 272.714844 108.515625 C 272.714844 108.867188 273 109.152344 273.351562 109.152344 Z M 269.597656 135.558594 C 269.246094 135.558594 268.964844 135.839844 268.964844 136.191406 C 268.964844 136.542969 269.246094 136.828125 269.597656 136.828125 L 274.949219 136.828125 C 275.296875 136.828125 275.585938 136.542969 275.585938 136.191406 C 275.585938 135.839844 275.296875 135.558594 274.949219 135.558594 Z M 282.183594 140.332031 C 282.183594 139.980469 281.898438 139.695312 281.550781 139.695312 L 269.074219 139.695312 C 268.726562 139.695312 268.441406 139.980469 268.441406 140.332031 C 268.441406 140.683594 268.726562 140.964844 269.074219 140.964844 L 281.550781 140.964844 C 281.898438 140.964844 282.183594 140.683594 282.183594 140.332031 Z M 275.59375 144.46875 C 275.59375 144.121094 275.3125 143.835938 274.957031 143.835938 L 268.554688 143.835938 C 268.203125 143.835938 267.917969 144.121094 267.917969 144.46875 C 267.917969 144.820312 268.203125 145.105469 268.554688 145.105469 L 274.957031 145.105469 C 275.3125 145.105469 275.59375 144.820312 275.59375 144.46875 Z M 261.925781 104.855469 C 261.925781 104.503906 261.644531 104.222656 261.289062 104.222656 L 250.589844 104.222656 C 250.238281 104.222656 249.957031 104.503906 249.957031 104.855469 C 249.957031 105.207031 250.238281 105.488281 250.589844 105.488281 L 261.289062 105.488281 C 261.644531 105.488281 261.925781 105.207031 261.925781 104.855469 Z M 256.566406 113.132812 C 256.566406 112.785156 256.285156 112.5 255.933594 112.5 L 246.582031 112.5 C 246.234375 112.5 245.949219 112.785156 245.949219 113.132812 C 245.949219 113.484375 246.234375 113.769531 246.582031 113.769531 L 255.933594 113.769531 C 256.285156 113.769531 256.566406 113.484375 256.566406 113.132812 Z M 254.332031 165.125 C 254.332031 164.777344 254.050781 164.492188 253.695312 164.492188 L 236.863281 164.492188 C 236.511719 164.492188 236.226562 164.777344 236.226562 165.125 C 236.226562 165.476562 236.511719 165.757812 236.863281 165.757812 L 253.695312 165.757812 C 254.050781 165.757812 254.332031 165.476562 254.332031 165.125 Z M 206.574219 95.621094 L 160.144531 95.621094 C 158.390625 95.621094 156.789062 97.039062 156.566406 98.789062 L 155.804688 104.855469 L 208.585938 104.855469 L 209.351562 98.789062 C 209.570312 97.039062 208.328125 95.621094 206.574219 95.621094 Z M 201.253906 143.246094 C 201.253906 142.894531 200.96875 142.613281 200.617188 142.613281 L 194.953125 142.613281 C 194.601562 142.613281 194.316406 142.894531 194.316406 143.246094 C 194.316406 143.59375 194.601562 143.878906 194.953125 143.878906 L 200.617188 143.878906 C 200.96875 143.878906 201.253906 143.59375 201.253906 143.246094 Z M 187.585938 146.285156 C 187.585938 145.933594 187.300781 145.652344 186.953125 145.652344 L 181.644531 145.652344 C 181.296875 145.652344 181.011719 145.933594 181.011719 146.285156 C 181.011719 146.636719 181.296875 146.921875 181.644531 146.921875 L 186.953125 146.921875 C 187.300781 146.921875 187.585938 146.636719 187.585938 146.285156 Z M 176.605469 143.246094 C 176.605469 142.894531 176.320312 142.613281 175.96875 142.613281 L 170.304688 142.613281 C 169.953125 142.613281 169.667969 142.894531 169.667969 143.246094 C 169.667969 143.59375 169.953125 143.878906 170.304688 143.878906 L 175.96875 143.878906 C 176.320312 143.878906 176.605469 143.59375 176.605469 143.246094 Z M 161.175781 167.726562 L 156.335938 167.726562 C 155.671875 167.726562 155.0625 168.265625 154.976562 168.933594 C 154.894531 169.59375 155.367188 170.132812 156.035156 170.132812 L 160.871094 170.132812 C 161.539062 170.132812 162.148438 169.59375 162.230469 168.933594 C 162.3125 168.265625 161.84375 167.726562 161.175781 167.726562 Z M 156.207031 159.480469 C 156.726562 159.480469 157.199219 159.058594 157.265625 158.542969 C 157.328125 158.023438 156.960938 157.601562 156.445312 157.601562 C 155.925781 157.601562 155.453125 158.023438 155.386719 158.542969 C 155.320312 159.058594 155.691406 159.480469 156.207031 159.480469 Z M 155.652344 146.285156 C 155.652344 146.636719 155.9375 146.921875 156.289062 146.921875 L 160.183594 146.921875 C 160.535156 146.921875 160.820312 146.636719 160.820312 146.285156 C 160.820312 145.933594 160.535156 145.652344 160.183594 145.652344 L 156.289062 145.652344 C 155.9375 145.652344 155.652344 145.933594 155.652344 146.285156 Z M 180.585938 113.132812 C 180.585938 112.785156 180.304688 112.5 179.953125 112.5 L 167.957031 112.5 C 167.605469 112.5 167.320312 112.785156 167.320312 113.132812 C 167.320312 113.484375 167.605469 113.769531 167.957031 113.769531 L 179.953125 113.769531 C 180.304688 113.769531 180.585938 113.484375 180.585938 113.132812 Z M 221.222656 181.679688 C 221.222656 182.03125 221.503906 182.316406 221.859375 182.316406 L 246.140625 182.316406 C 246.492188 182.316406 246.777344 182.03125 246.777344 181.679688 C 246.777344 181.332031 246.492188 181.046875 246.140625 181.046875 L 221.859375 181.046875 C 221.503906 181.046875 221.222656 181.332031 221.222656 181.679688 Z M 226.730469 137.96875 C 226.730469 138.316406 227.015625 138.601562 227.363281 138.601562 L 233.769531 138.601562 C 234.121094 138.601562 234.40625 138.316406 234.40625 137.96875 C 234.40625 137.617188 234.121094 137.332031 233.769531 137.332031 L 227.363281 137.332031 C 227.015625 137.332031 226.730469 137.617188 226.730469 137.96875 Z M 228.816406 121.414062 C 228.816406 121.761719 229.101562 122.046875 229.449219 122.046875 L 237.167969 122.046875 C 237.519531 122.046875 237.804688 121.761719 237.804688 121.414062 C 237.804688 121.0625 237.519531 120.777344 237.167969 120.777344 L 229.449219 120.777344 C 229.101562 120.777344 228.816406 121.0625 228.816406 121.414062 Z M 230.378906 108.996094 C 230.378906 109.34375 230.664062 109.628906 231.011719 109.628906 L 236.363281 109.628906 C 236.714844 109.628906 237 109.34375 237 108.996094 C 237 108.644531 236.714844 108.359375 236.363281 108.359375 L 231.011719 108.359375 C 230.664062 108.359375 230.378906 108.644531 230.378906 108.996094 Z M 251.644531 121.414062 C 251.644531 121.0625 251.359375 120.777344 251.007812 120.777344 L 239.945312 120.777344 C 239.59375 120.777344 239.308594 121.0625 239.308594 121.414062 C 239.308594 121.761719 239.59375 122.046875 239.945312 122.046875 L 251.007812 122.046875 C 251.359375 122.046875 251.644531 121.761719 251.644531 121.414062 Z M 253.324219 134.460938 C 253.675781 134.460938 253.960938 134.179688 253.960938 133.828125 C 253.960938 133.476562 253.675781 133.195312 253.324219 133.195312 L 243.976562 133.195312 C 243.625 133.195312 243.339844 133.476562 243.339844 133.828125 C 243.339844 134.179688 243.625 134.460938 243.976562 134.460938 Z M 293.113281 93.0625 L 283.277344 181.566406 C 282.988281 184.179688 280.777344 186.152344 278.140625 186.152344 L 140.402344 186.152344 C 138.910156 186.152344 137.542969 185.542969 136.550781 184.4375 C 136.351562 184.21875 136.183594 183.984375 136.03125 183.738281 C 134.597656 193.878906 127.746094 205.320312 127.746094 214.238281 C 127.746094 224.035156 135.230469 238.089844 135.230469 238.089844 C 135.230469 238.089844 132.574219 260.027344 105.605469 260.027344 C 95.855469 260.027344 88.976562 258.320312 85.433594 257.167969 C 83.597656 256.570312 82.242188 255.027344 81.828125 253.144531 C 78.691406 238.949219 80.816406 218.792969 83.027344 211.707031 C 84.523438 206.914062 82.765625 182.375 76.996094 164.882812 C 74.054688 155.960938 80.714844 146.777344 90.132812 146.777344 L 92.363281 139.695312 C 92.363281 139.695312 99.457031 136.277344 106.949219 137.796875 C 114.445312 139.320312 118.023438 141.371094 120.816406 141.761719 L 119.003906 146.816406 C 122.097656 147.085938 124.859375 148.921875 126.273438 151.722656 C 129.324219 157.765625 134.171875 168.144531 135.761719 175.945312 L 145.101562 91.925781 C 145.390625 89.3125 147.597656 87.339844 150.238281 87.339844 L 287.976562 87.339844 C 289.464844 87.339844 290.835938 87.949219 291.828125 89.058594 C 292.824219 90.164062 293.277344 91.585938 293.113281 93.0625 Z M 164.101562 99.300781 C 163.585938 99.300781 163.113281 99.722656 163.046875 100.238281 C 162.980469 100.757812 163.347656 101.175781 163.867188 101.175781 C 164.386719 101.175781 164.859375 100.757812 164.921875 100.238281 C 164.992188 99.722656 164.625 99.300781 164.101562 99.300781 Z M 167.660156 99.300781 C 167.140625 99.300781 166.667969 99.722656 166.601562 100.238281 C 166.539062 100.757812 166.90625 101.175781 167.421875 101.175781 C 167.941406 101.175781 168.417969 100.757812 168.480469 100.238281 C 168.546875 99.722656 168.179688 99.300781 167.660156 99.300781 Z M 70.328125 96.410156 L 62.765625 96.410156 L 62.765625 112.859375 L 70.328125 112.859375 Z M 43.800781 112.859375 L 51.359375 112.859375 L 51.359375 98.6875 L 43.800781 98.6875 Z M 32.394531 112.859375 L 24.832031 112.859375 L 24.832031 103.628906 L 32.394531 103.628906 L 32.394531 112.859375 "/>
</g>
<g clip-path="url(#clip3)" clip-rule="nonzero">
<path style=" stroke:none;fill-rule:nonzero;fill:rgb(95.289612%,81.568909%,82.348633%);fill-opacity:1;" d="M 50.136719 48.566406 C 53.511719 48.566406 56.25 45.835938 56.25 42.46875 C 56.25 39.097656 53.511719 36.371094 50.136719 36.371094 C 46.761719 36.371094 44.027344 39.097656 44.027344 42.46875 C 44.027344 45.835938 46.761719 48.566406 50.136719 48.566406 Z M 32.15625 17.359375 C 32.15625 18.277344 32.902344 19.019531 33.820312 19.019531 C 34.738281 19.019531 35.480469 18.277344 35.480469 17.359375 C 35.480469 16.445312 34.738281 15.703125 33.820312 15.703125 C 32.902344 15.703125 32.15625 16.445312 32.15625 17.359375 Z M 36.367188 31.855469 L 38.605469 35.34375 C 37.839844 36.566406 37.273438 37.925781 36.933594 39.371094 L 32.875 40.257812 L 32.875 44.675781 L 36.933594 45.566406 C 37.273438 47.011719 37.839844 48.367188 38.605469 49.59375 L 36.367188 53.082031 L 39.496094 56.203125 L 42.996094 53.972656 C 44.226562 54.734375 45.582031 55.300781 47.03125 55.640625 L 47.925781 59.6875 L 52.351562 59.6875 L 53.246094 55.640625 C 54.691406 55.300781 56.050781 54.734375 57.277344 53.972656 L 60.777344 56.203125 L 63.910156 53.082031 L 61.671875 49.59375 C 62.433594 48.367188 63.003906 47.011719 63.34375 45.566406 L 67.398438 44.675781 L 67.398438 40.257812 L 63.34375 39.371094 C 63.003906 37.925781 62.433594 36.566406 61.671875 35.34375 L 63.910156 31.855469 L 60.777344 28.726562 L 57.277344 30.960938 C 56.050781 30.199219 54.691406 29.632812 53.246094 29.296875 L 52.351562 25.246094 L 47.925781 25.246094 L 47.03125 29.296875 C 45.582031 29.632812 44.226562 30.199219 42.996094 30.960938 L 39.496094 28.726562 Z M 71.386719 46.410156 L 88.660156 46.410156 L 88.660156 42.46875 L 71.386719 42.46875 Z M 71.386719 29.195312 L 88.660156 29.195312 L 88.660156 25.246094 L 71.386719 25.246094 Z M 53.324219 64.5 L 43.496094 64.5 L 43.496094 65.136719 L 53.324219 65.136719 Z M 53.324219 66.613281 L 49.210938 66.613281 L 49.210938 67.246094 L 53.324219 67.246094 Z M 47.609375 67.246094 L 47.609375 66.613281 L 43.496094 66.613281 L 43.496094 67.246094 Z M 49.960938 68.726562 L 43.496094 68.726562 L 43.496094 69.359375 L 49.960938 69.359375 Z M 96.265625 60.769531 L 107.753906 60.769531 L 107.753906 43.289062 L 96.265625 43.289062 Z M 96.265625 42.65625 L 107.753906 42.65625 L 107.753906 25.175781 L 96.265625 25.175781 Z M 114.125 62.265625 C 114.125 62.917969 114.65625 63.445312 115.308594 63.445312 L 115.417969 63.445312 C 116.074219 63.445312 116.601562 62.917969 116.601562 62.265625 C 116.601562 61.613281 116.074219 61.085938 115.417969 61.085938 L 115.308594 61.085938 C 114.65625 61.085938 114.125 61.613281 114.125 62.265625 Z M 114.125 56.753906 C 114.125 57.402344 114.65625 57.933594 115.308594 57.933594 L 115.417969 57.933594 C 116.074219 57.933594 116.601562 57.402344 116.601562 56.753906 C 116.601562 56.101562 116.074219 55.574219 115.417969 55.574219 L 115.308594 55.574219 C 114.65625 55.574219 114.125 56.101562 114.125 56.753906 Z M 114.125 51.242188 C 114.125 51.894531 114.65625 52.421875 115.308594 52.421875 L 115.417969 52.421875 C 116.074219 52.421875 116.601562 51.894531 116.601562 51.242188 C 116.601562 50.589844 116.074219 50.0625 115.417969 50.0625 L 115.308594 50.0625 C 114.65625 50.0625 114.125 50.589844 114.125 51.242188 Z M 114.125 45.730469 C 114.125 46.378906 114.65625 46.910156 115.308594 46.910156 L 115.417969 46.910156 C 116.074219 46.910156 116.601562 46.378906 116.601562 45.730469 C 116.601562 45.078125 116.074219 44.546875 115.417969 44.546875 L 115.308594 44.546875 C 114.65625 44.546875 114.125 45.078125 114.125 45.730469 Z M 114.125 40.214844 C 114.125 40.867188 114.65625 41.394531 115.308594 41.394531 L 115.417969 41.394531 C 116.074219 41.394531 116.601562 40.867188 116.601562 40.214844 C 116.601562 39.566406 116.074219 39.039062 115.417969 39.039062 L 115.308594 39.039062 C 114.65625 39.039062 114.125 39.566406 114.125 40.214844 Z M 114.125 34.703125 C 114.125 35.355469 114.65625 35.886719 115.308594 35.886719 L 115.417969 35.886719 C 116.074219 35.886719 116.601562 35.355469 116.601562 34.703125 C 116.601562 34.054688 116.074219 33.523438 115.417969 33.523438 L 115.308594 33.523438 C 114.65625 33.523438 114.125 34.054688 114.125 34.703125 Z M 114.125 29.195312 C 114.125 29.84375 114.65625 30.371094 115.308594 30.371094 L 115.417969 30.371094 C 116.074219 30.371094 116.601562 29.84375 116.601562 29.195312 C 116.601562 28.539062 116.074219 28.011719 115.417969 28.011719 L 115.308594 28.011719 C 114.65625 28.011719 114.125 28.539062 114.125 29.195312 Z M 114.125 23.679688 C 114.125 24.332031 114.65625 24.859375 115.308594 24.859375 L 115.417969 24.859375 C 116.074219 24.859375 116.601562 24.332031 116.601562 23.679688 C 116.601562 23.03125 116.074219 22.5 115.417969 22.5 L 115.308594 22.5 C 114.65625 22.5 114.125 23.03125 114.125 23.679688 Z M 114.125 17.359375 C 114.125 18.277344 114.867188 19.019531 115.785156 19.019531 C 116.703125 19.019531 117.449219 18.277344 117.449219 17.359375 C 117.449219 16.445312 116.703125 15.703125 115.785156 15.703125 C 114.867188 15.703125 114.125 16.445312 114.125 17.359375 Z M 119.152344 62.265625 C 119.152344 62.917969 119.683594 63.445312 120.335938 63.445312 L 130.363281 63.445312 C 131.015625 63.445312 131.546875 62.917969 131.546875 62.265625 C 131.546875 61.613281 131.015625 61.085938 130.363281 61.085938 L 120.335938 61.085938 C 119.683594 61.085938 119.152344 61.613281 119.152344 62.265625 Z M 119.152344 56.753906 C 119.152344 57.402344 119.683594 57.933594 120.335938 57.933594 L 141.796875 57.933594 C 142.449219 57.933594 142.980469 57.402344 142.980469 56.753906 C 142.980469 56.101562 142.449219 55.574219 141.796875 55.574219 L 120.335938 55.574219 C 119.683594 55.574219 119.152344 56.101562 119.152344 56.753906 Z M 119.152344 51.242188 C 119.152344 51.894531 119.683594 52.421875 120.335938 52.421875 L 134.089844 52.421875 C 134.742188 52.421875 135.273438 51.894531 135.273438 51.242188 C 135.273438 50.589844 134.742188 50.0625 134.089844 50.0625 L 120.335938 50.0625 C 119.683594 50.0625 119.152344 50.589844 119.152344 51.242188 Z M 119.152344 45.730469 C 119.152344 46.378906 119.683594 46.910156 120.335938 46.910156 L 138.492188 46.910156 C 139.148438 46.910156 139.675781 46.378906 139.675781 45.730469 C 139.675781 45.078125 139.148438 44.546875 138.492188 44.546875 L 120.335938 44.546875 C 119.683594 44.546875 119.152344 45.078125 119.152344 45.730469 Z M 119.152344 40.214844 C 119.152344 40.867188 119.683594 41.394531 120.335938 41.394531 L 144.167969 41.394531 C 144.820312 41.394531 145.347656 40.867188 145.347656 40.214844 C 145.347656 39.566406 144.820312 39.039062 144.167969 39.039062 L 120.335938 39.039062 C 119.683594 39.039062 119.152344 39.566406 119.152344 40.214844 Z M 119.152344 34.703125 C 119.152344 35.355469 119.683594 35.886719 120.335938 35.886719 L 125.199219 35.886719 C 125.851562 35.886719 126.382812 35.355469 126.382812 34.703125 C 126.382812 34.054688 125.851562 33.523438 125.199219 33.523438 L 120.335938 33.523438 C 119.683594 33.523438 119.152344 34.054688 119.152344 34.703125 Z M 119.152344 29.195312 C 119.152344 29.84375 119.683594 30.371094 120.335938 30.371094 L 136.714844 30.371094 C 137.367188 30.371094 137.898438 29.84375 137.898438 29.195312 C 137.898438 28.539062 137.367188 28.011719 136.714844 28.011719 L 120.335938 28.011719 C 119.683594 28.011719 119.152344 28.539062 119.152344 29.195312 Z M 119.152344 23.679688 C 119.152344 24.332031 119.683594 24.859375 120.335938 24.859375 L 127.855469 24.859375 C 128.507812 24.859375 129.039062 24.332031 129.039062 23.679688 C 129.039062 23.03125 128.507812 22.5 127.855469 22.5 L 120.335938 22.5 C 119.683594 22.5 119.152344 23.03125 119.152344 23.679688 Z M 120.414062 17.359375 C 120.414062 18.277344 121.160156 19.019531 122.078125 19.019531 C 122.996094 19.019531 123.738281 18.277344 123.738281 17.359375 C 123.738281 16.445312 122.996094 15.703125 122.078125 15.703125 C 121.160156 15.703125 120.414062 16.445312 120.414062 17.359375 Z M 154.894531 33.523438 L 131.0625 33.523438 C 130.410156 33.523438 129.882812 34.054688 129.882812 34.703125 C 129.882812 35.355469 130.410156 35.886719 131.0625 35.886719 L 154.894531 35.886719 C 155.546875 35.886719 156.078125 35.355469 156.078125 34.703125 C 156.078125 34.054688 155.546875 33.523438 154.894531 33.523438 Z M 155.398438 40.214844 C 155.398438 39.566406 154.871094 39.039062 154.21875 39.039062 L 149.355469 39.039062 C 148.703125 39.039062 148.171875 39.566406 148.171875 40.214844 C 148.171875 40.867188 148.703125 41.394531 149.355469 41.394531 L 154.21875 41.394531 C 154.871094 41.394531 155.398438 40.867188 155.398438 40.214844 Z M 154.808594 51.242188 C 154.808594 50.589844 154.277344 50.0625 153.625 50.0625 L 148.761719 50.0625 C 148.109375 50.0625 147.578125 50.589844 147.578125 51.242188 C 147.578125 51.894531 148.109375 52.421875 148.761719 52.421875 L 153.625 52.421875 C 154.277344 52.421875 154.808594 51.894531 154.808594 51.242188 Z M 144.984375 51.242188 C 144.984375 50.589844 144.457031 50.0625 143.804688 50.0625 L 138.9375 50.0625 C 138.285156 50.0625 137.757812 50.589844 137.757812 51.242188 C 137.757812 51.894531 138.285156 52.421875 138.9375 52.421875 L 143.804688 52.421875 C 144.457031 52.421875 144.984375 51.894531 144.984375 51.242188 Z M 149.667969 62.265625 C 149.667969 61.613281 149.140625 61.085938 148.484375 61.085938 L 134.730469 61.085938 C 134.074219 61.085938 133.546875 61.613281 133.546875 62.265625 C 133.546875 62.917969 134.074219 63.445312 134.730469 63.445312 L 148.484375 63.445312 C 149.140625 63.445312 149.667969 62.917969 149.667969 62.265625 Z M 182.21875 60.769531 L 197.253906 60.769531 L 197.253906 43.289062 L 182.21875 43.289062 Z M 182.21875 42.65625 L 197.253906 42.65625 L 197.253906 25.175781 L 182.21875 25.175781 Z M 204.402344 59.6875 L 266.347656 59.6875 L 266.347656 28.011719 L 204.402344 28.011719 Z M 210.691406 17.359375 C 210.691406 18.277344 211.4375 19.019531 212.355469 19.019531 C 213.273438 19.019531 214.015625 18.277344 214.015625 17.359375 C 214.015625 16.445312 213.273438 15.703125 212.355469 15.703125 C 211.4375 15.703125 210.691406 16.445312 210.691406 17.359375 Z M 254.113281 63.128906 L 244.28125 63.128906 L 244.28125 63.761719 L 254.113281 63.761719 Z M 254.113281 65.238281 L 250 65.238281 L 250 65.871094 L 254.113281 65.871094 Z M 248.398438 65.871094 L 248.398438 65.238281 L 244.28125 65.238281 L 244.28125 65.871094 Z M 250.746094 67.351562 L 244.28125 67.351562 L 244.28125 67.984375 L 250.746094 67.984375 Z M 233.792969 63.128906 L 223.960938 63.128906 L 223.960938 63.761719 L 233.792969 63.761719 Z M 233.792969 65.238281 L 229.675781 65.238281 L 229.675781 65.871094 L 233.792969 65.871094 Z M 228.078125 65.871094 L 228.078125 65.238281 L 223.960938 65.238281 L 223.960938 65.871094 Z M 230.425781 67.351562 L 223.960938 67.351562 L 223.960938 67.984375 L 230.425781 67.984375 Z M 21.800781 73.5625 L 21.800781 14.726562 C 21.800781 12.976562 23.222656 11.558594 24.976562 11.558594 L 93.089844 11.558594 C 94.84375 11.558594 96.265625 12.976562 96.265625 14.726562 L 96.265625 24.542969 L 107.753906 24.542969 L 107.753906 14.726562 C 107.753906 12.976562 109.175781 11.558594 110.929688 11.558594 L 179.042969 11.558594 C 180.796875 11.558594 182.21875 12.976562 182.21875 14.726562 L 182.21875 24.542969 L 197.253906 24.542969 L 197.253906 14.726562 C 197.253906 12.976562 198.675781 11.558594 200.429688 11.558594 L 268.542969 11.558594 C 270.296875 11.558594 271.714844 12.976562 271.714844 14.726562 L 271.714844 60.769531 L 279.921875 60.769531 C 280.050781 60.976562 280.171875 61.191406 280.292969 61.402344 L 271.714844 61.402344 L 271.714844 73.5625 C 271.714844 75.308594 270.296875 76.726562 268.542969 76.726562 L 200.429688 76.726562 C 198.675781 76.726562 197.253906 75.308594 197.253906 73.5625 L 197.253906 61.402344 L 182.21875 61.402344 L 182.21875 66.972656 C 182.21875 68.71875 180.796875 70.136719 179.042969 70.136719 L 110.929688 70.136719 C 109.175781 70.136719 107.753906 68.71875 107.753906 66.972656 L 107.753906 61.402344 L 96.265625 61.402344 L 96.265625 73.5625 C 96.265625 75.308594 94.84375 76.726562 93.089844 76.726562 L 24.976562 76.726562 C 23.222656 76.726562 21.800781 75.308594 21.800781 73.5625 Z M 240.4375 90.316406 C 240.089844 90.316406 239.800781 90.601562 239.800781 90.949219 C 239.800781 91.300781 240.089844 91.582031 240.4375 91.582031 L 253.265625 91.582031 C 253.617188 91.582031 253.902344 91.300781 253.902344 90.949219 C 253.902344 90.601562 253.617188 90.316406 253.265625 90.316406 Z M 254.332031 165.125 C 254.332031 164.777344 254.050781 164.492188 253.695312 164.492188 L 236.863281 164.492188 C 236.511719 164.492188 236.226562 164.777344 236.226562 165.125 C 236.226562 165.476562 236.511719 165.757812 236.863281 165.757812 L 253.695312 165.757812 C 254.050781 165.757812 254.332031 165.476562 254.332031 165.125 Z M 247.296875 177.542969 C 247.296875 177.191406 247.015625 176.910156 246.660156 176.910156 L 222.378906 176.910156 C 222.027344 176.910156 221.742188 177.191406 221.742188 177.542969 C 221.742188 177.890625 222.027344 178.175781 222.378906 178.175781 L 246.660156 178.175781 C 247.015625 178.175781 247.296875 177.890625 247.296875 177.542969 Z M 246.777344 181.679688 C 246.777344 181.332031 246.492188 181.046875 246.140625 181.046875 L 221.859375 181.046875 C 221.503906 181.046875 221.222656 181.332031 221.222656 181.679688 C 221.222656 182.03125 221.503906 182.316406 221.859375 182.316406 L 246.140625 182.316406 C 246.492188 182.316406 246.777344 182.03125 246.777344 181.679688 Z M 222.785156 169.261719 C 222.785156 169.613281 223.070312 169.898438 223.421875 169.898438 L 243.046875 169.898438 C 243.394531 169.898438 243.679688 169.613281 243.679688 169.261719 C 243.679688 168.914062 243.394531 168.628906 243.046875 168.628906 L 223.421875 168.628906 C 223.070312 168.628906 222.785156 168.914062 222.785156 169.261719 Z M 223.308594 165.125 C 223.308594 165.476562 223.589844 165.757812 223.945312 165.757812 L 232.359375 165.757812 C 232.710938 165.757812 232.996094 165.476562 232.996094 165.125 C 232.996094 164.777344 232.710938 164.492188 232.359375 164.492188 L 223.945312 164.492188 C 223.589844 164.492188 223.308594 164.777344 223.308594 165.125 Z M 223.828125 160.988281 C 223.828125 161.335938 224.113281 161.621094 224.464844 161.621094 L 248.75 161.621094 C 249.101562 161.621094 249.382812 161.335938 249.382812 160.988281 C 249.382812 160.636719 249.101562 160.355469 248.75 160.355469 L 224.464844 160.355469 C 224.113281 160.355469 223.828125 160.636719 223.828125 160.988281 Z M 219.15625 160.988281 C 219.15625 160.636719 218.871094 160.355469 218.519531 160.355469 L 214.285156 160.355469 C 213.9375 160.355469 213.652344 160.636719 213.652344 160.988281 C 213.652344 161.335938 213.9375 161.621094 214.285156 161.621094 L 218.519531 161.621094 C 218.871094 161.621094 219.15625 161.335938 219.15625 160.988281 Z M 218.632812 165.125 C 218.632812 164.777344 218.351562 164.492188 217.996094 164.492188 L 213.765625 164.492188 C 213.414062 164.492188 213.128906 164.777344 213.128906 165.125 C 213.128906 165.476562 213.414062 165.757812 213.765625 165.757812 L 217.996094 165.757812 C 218.351562 165.757812 218.632812 165.476562 218.632812 165.125 Z M 218.113281 169.261719 C 218.113281 168.914062 217.828125 168.628906 217.476562 168.628906 L 213.242188 168.628906 C 212.890625 168.628906 212.605469 168.914062 212.605469 169.261719 C 212.605469 169.613281 212.890625 169.898438 213.242188 169.898438 L 217.476562 169.898438 C 217.828125 169.898438 218.113281 169.613281 218.113281 169.261719 Z M 217.070312 177.542969 C 217.070312 177.191406 216.785156 176.910156 216.433594 176.910156 L 212.199219 176.910156 C 211.851562 176.910156 211.566406 177.191406 211.566406 177.542969 C 211.566406 177.890625 211.851562 178.175781 212.199219 178.175781 L 216.433594 178.175781 C 216.785156 178.175781 217.070312 177.890625 217.070312 177.542969 Z M 216.546875 181.679688 C 216.546875 181.332031 216.261719 181.046875 215.914062 181.046875 L 211.679688 181.046875 C 211.328125 181.046875 211.042969 181.332031 211.042969 181.679688 C 211.042969 182.03125 211.328125 182.316406 211.679688 182.316406 L 215.914062 182.316406 C 216.261719 182.316406 216.546875 182.03125 216.546875 181.679688 Z M 262.730469 158.441406 L 259.238281 186.152344 L 251.617188 186.152344 C 251.679688 186.054688 251.726562 185.945312 251.726562 185.820312 C 251.726562 185.46875 251.441406 185.1875 251.089844 185.1875 L 234.257812 185.1875 C 233.90625 185.1875 233.621094 185.46875 233.621094 185.820312 C 233.621094 185.945312 233.664062 186.054688 233.730469 186.152344 L 230.28125 186.152344 C 230.339844 186.054688 230.386719 185.945312 230.386719 185.820312 C 230.386719 185.46875 230.101562 185.1875 229.753906 185.1875 L 221.335938 185.1875 C 220.984375 185.1875 220.699219 185.46875 220.699219 185.820312 C 220.699219 185.945312 220.746094 186.054688 220.808594 186.152344 L 215.917969 186.152344 C 215.980469 186.054688 216.023438 185.945312 216.023438 185.820312 C 216.023438 185.46875 215.742188 185.1875 215.390625 185.1875 L 211.160156 185.1875 C 210.804688 185.1875 210.523438 185.46875 210.523438 185.820312 C 210.523438 185.945312 210.566406 186.054688 210.632812 186.152344 L 206.457031 186.152344 L 209.949219 158.441406 C 210.171875 156.691406 211.769531 155.273438 213.523438 155.273438 L 259.957031 155.273438 C 261.707031 155.273438 262.953125 156.691406 262.730469 158.441406 Z M 172.582031 167.726562 L 167.742188 167.726562 C 167.078125 167.726562 166.46875 168.265625 166.386719 168.933594 C 166.300781 169.59375 166.773438 170.132812 167.441406 170.132812 L 172.277344 170.132812 C 172.945312 170.132812 173.554688 169.59375 173.636719 168.933594 C 173.71875 168.265625 173.25 167.726562 172.582031 167.726562 Z M 161.175781 167.726562 L 156.335938 167.726562 C 155.671875 167.726562 155.0625 168.265625 154.976562 168.933594 C 154.894531 169.59375 155.367188 170.132812 156.035156 170.132812 L 160.871094 170.132812 C 161.539062 170.132812 162.148438 169.59375 162.230469 168.933594 C 162.3125 168.265625 161.84375 167.726562 161.175781 167.726562 Z M 152.886719 157.601562 C 152.367188 157.601562 151.894531 158.023438 151.832031 158.542969 C 151.765625 159.058594 152.132812 159.480469 152.652344 159.480469 C 153.167969 159.480469 153.644531 159.058594 153.707031 158.542969 C 153.773438 158.023438 153.40625 157.601562 152.886719 157.601562 Z M 156.207031 159.480469 C 156.726562 159.480469 157.199219 159.058594 157.265625 158.542969 C 157.328125 158.023438 156.960938 157.601562 156.445312 157.601562 C 155.925781 157.601562 155.453125 158.023438 155.386719 158.542969 C 155.320312 159.058594 155.691406 159.480469 156.207031 159.480469 Z M 159.761719 159.480469 C 160.28125 159.480469 160.753906 159.058594 160.820312 158.542969 C 160.886719 158.023438 160.519531 157.601562 160 157.601562 C 159.480469 157.601562 159.007812 158.023438 158.941406 158.542969 C 158.878906 159.058594 159.246094 159.480469 159.761719 159.480469 Z M 169.652344 163.417969 L 160.191406 163.417969 C 159.839844 163.417969 159.554688 163.703125 159.554688 164.050781 C 159.554688 164.402344 159.839844 164.6875 160.191406 164.6875 L 169.652344 164.6875 C 170.007812 164.6875 170.289062 164.402344 170.289062 164.050781 C 170.289062 163.703125 170.007812 163.417969 169.652344 163.417969 Z M 179.265625 155.265625 C 181.019531 155.265625 182.265625 156.6875 182.046875 158.433594 L 180.710938 168.992188 C 180.496094 170.742188 178.890625 172.160156 177.140625 172.160156 L 150.171875 172.160156 C 148.417969 172.160156 147.175781 170.742188 147.398438 168.992188 L 148.726562 158.433594 C 148.949219 156.6875 150.546875 155.265625 152.300781 155.265625 Z M 164.921875 100.238281 C 164.992188 99.722656 164.625 99.300781 164.101562 99.300781 C 163.585938 99.300781 163.113281 99.722656 163.046875 100.238281 C 162.980469 100.757812 163.347656 101.175781 163.867188 101.175781 C 164.386719 101.175781 164.859375 100.757812 164.921875 100.238281 Z M 198.449219 146.285156 C 198.449219 145.933594 198.164062 145.652344 197.816406 145.652344 L 194.570312 145.652344 C 194.21875 145.652344 193.933594 145.933594 193.933594 146.285156 C 193.933594 146.636719 194.21875 146.921875 194.570312 146.921875 L 197.816406 146.921875 C 198.164062 146.921875 198.449219 146.636719 198.449219 146.285156 Z M 193.796875 113.769531 C 194.144531 113.769531 194.429688 113.484375 194.429688 113.132812 C 194.429688 112.785156 194.144531 112.5 193.796875 112.5 L 184.34375 112.5 C 183.992188 112.5 183.707031 112.785156 183.707031 113.132812 C 183.707031 113.484375 183.992188 113.769531 184.34375 113.769531 Z M 191.957031 118.679688 L 168.953125 118.679688 C 168.015625 118.679688 167.164062 119.4375 167.046875 120.371094 L 166.351562 125.890625 C 166.234375 126.820312 166.894531 127.578125 167.832031 127.578125 L 190.835938 127.578125 C 191.769531 127.578125 192.621094 126.820312 192.738281 125.890625 L 193.433594 120.371094 C 193.554688 119.4375 192.886719 118.679688 191.957031 118.679688 Z M 182.03125 143.878906 L 185.273438 143.878906 C 185.625 143.878906 185.910156 143.59375 185.910156 143.246094 C 185.910156 142.894531 185.625 142.613281 185.273438 142.613281 L 182.03125 142.613281 C 181.679688 142.613281 181.394531 142.894531 181.394531 143.246094 C 181.394531 143.59375 181.679688 143.878906 182.03125 143.878906 Z M 187.585938 146.285156 C 187.585938 145.933594 187.300781 145.652344 186.953125 145.652344 L 181.644531 145.652344 C 181.296875 145.652344 181.011719 145.933594 181.011719 146.285156 C 181.011719 146.636719 181.296875 146.921875 181.644531 146.921875 L 186.953125 146.921875 C 187.300781 146.921875 187.585938 146.636719 187.585938 146.285156 Z M 176.605469 143.246094 C 176.605469 142.894531 176.320312 142.613281 175.96875 142.613281 L 170.304688 142.613281 C 169.953125 142.613281 169.667969 142.894531 169.667969 143.246094 C 169.667969 143.59375 169.953125 143.878906 170.304688 143.878906 L 175.96875 143.878906 C 176.320312 143.878906 176.605469 143.59375 176.605469 143.246094 Z M 173.800781 146.285156 C 173.800781 145.933594 173.515625 145.652344 173.167969 145.652344 L 169.917969 145.652344 C 169.570312 145.652344 169.285156 145.933594 169.285156 146.285156 C 169.285156 146.636719 169.570312 146.921875 169.917969 146.921875 L 173.167969 146.921875 C 173.515625 146.921875 173.800781 146.636719 173.800781 146.285156 Z M 163.792969 143.246094 C 163.792969 142.894531 163.511719 142.613281 163.160156 142.613281 L 156.671875 142.613281 C 156.320312 142.613281 156.035156 142.894531 156.035156 143.246094 C 156.035156 143.59375 156.320312 143.878906 156.671875 143.878906 L 163.160156 143.878906 C 163.511719 143.878906 163.792969 143.59375 163.792969 143.246094 Z M 160.820312 146.285156 C 160.820312 145.933594 160.535156 145.652344 160.183594 145.652344 L 156.289062 145.652344 C 155.9375 145.652344 155.652344 145.933594 155.652344 146.285156 C 155.652344 146.636719 155.9375 146.921875 156.289062 146.921875 L 160.183594 146.921875 C 160.535156 146.921875 160.820312 146.636719 160.820312 146.285156 Z M 167.320312 113.132812 C 167.320312 113.484375 167.605469 113.769531 167.957031 113.769531 L 179.953125 113.769531 C 180.304688 113.769531 180.585938 113.484375 180.585938 113.132812 C 180.585938 112.785156 180.304688 112.5 179.953125 112.5 L 167.957031 112.5 C 167.605469 112.5 167.320312 112.785156 167.320312 113.132812 Z M 194.316406 143.246094 C 194.316406 143.59375 194.601562 143.878906 194.953125 143.878906 L 200.617188 143.878906 C 200.96875 143.878906 201.253906 143.59375 201.253906 143.246094 C 201.253906 142.894531 200.96875 142.613281 200.617188 142.613281 L 194.953125 142.613281 C 194.601562 142.613281 194.316406 142.894531 194.316406 143.246094 Z M 199.644531 150.636719 L 153.210938 150.636719 C 151.457031 150.636719 150.214844 149.21875 150.4375 147.46875 L 155.804688 104.855469 L 208.585938 104.855469 L 209.351562 98.789062 L 203.214844 147.46875 C 202.996094 149.21875 201.398438 150.636719 199.644531 150.636719 Z M 270.742188 181.664062 L 264.335938 181.664062 C 263.984375 181.664062 263.699219 181.949219 263.699219 182.296875 C 263.699219 182.644531 263.984375 182.929688 264.335938 182.929688 L 270.742188 182.929688 C 271.089844 182.929688 271.375 182.644531 271.375 182.296875 C 271.375 181.949219 271.089844 181.664062 270.742188 181.664062 Z M 273.871094 177.523438 L 264.859375 177.523438 C 264.503906 177.523438 264.222656 177.808594 264.222656 178.15625 C 264.222656 178.507812 264.503906 178.789062 264.859375 178.789062 L 273.871094 178.789062 C 274.226562 178.789062 274.507812 178.507812 274.507812 178.15625 C 274.507812 177.808594 274.226562 177.523438 273.871094 177.523438 Z M 265.378906 174.652344 L 270.730469 174.652344 C 271.078125 174.652344 271.363281 174.367188 271.363281 174.019531 C 271.363281 173.671875 271.078125 173.386719 270.730469 173.386719 L 265.378906 173.386719 C 265.027344 173.386719 264.742188 173.671875 264.742188 174.019531 C 264.742188 174.367188 265.027344 174.652344 265.378906 174.652344 Z M 276.976562 126.632812 L 270.574219 126.632812 C 270.222656 126.632812 269.9375 126.917969 269.9375 127.265625 C 269.9375 127.617188 270.222656 127.902344 270.574219 127.902344 L 276.976562 127.902344 C 277.328125 127.902344 277.613281 127.617188 277.613281 127.265625 C 277.613281 126.917969 277.328125 126.632812 276.976562 126.632812 Z M 280.109375 122.496094 L 271.09375 122.496094 C 270.742188 122.496094 270.460938 122.777344 270.460938 123.128906 C 270.460938 123.480469 270.742188 123.761719 271.09375 123.761719 L 280.109375 123.761719 C 280.460938 123.761719 280.742188 123.480469 280.742188 123.128906 C 280.742188 122.777344 280.460938 122.496094 280.109375 122.496094 Z M 271.613281 118.355469 C 271.265625 118.355469 270.980469 118.640625 270.980469 118.988281 C 270.980469 119.339844 271.265625 119.625 271.613281 119.625 L 276.964844 119.625 C 277.316406 119.625 277.601562 119.339844 277.601562 118.988281 C 277.601562 118.640625 277.316406 118.355469 276.964844 118.355469 Z M 261.925781 104.855469 C 261.925781 104.503906 261.644531 104.222656 261.289062 104.222656 L 250.589844 104.222656 C 250.238281 104.222656 249.957031 104.503906 249.957031 104.855469 C 249.957031 105.207031 250.238281 105.488281 250.589844 105.488281 L 261.289062 105.488281 C 261.644531 105.488281 261.925781 105.207031 261.925781 104.855469 Z M 256.566406 113.132812 C 256.566406 112.785156 256.285156 112.5 255.933594 112.5 L 246.582031 112.5 C 246.234375 112.5 245.949219 112.785156 245.949219 113.132812 C 245.949219 113.484375 246.234375 113.769531 246.582031 113.769531 L 255.933594 113.769531 C 256.285156 113.769531 256.566406 113.484375 256.566406 113.132812 Z M 253.960938 133.828125 C 253.960938 133.476562 253.675781 133.195312 253.324219 133.195312 L 243.976562 133.195312 C 243.625 133.195312 243.339844 133.476562 243.339844 133.828125 C 243.339844 134.179688 243.625 134.460938 243.976562 134.460938 L 253.324219 134.460938 C 253.675781 134.460938 253.960938 134.179688 253.960938 133.828125 Z M 249.320312 137.96875 C 249.320312 137.617188 249.035156 137.332031 248.683594 137.332031 L 237.386719 137.332031 C 237.035156 137.332031 236.75 137.617188 236.75 137.96875 C 236.75 138.316406 237.035156 138.601562 237.386719 138.601562 L 248.683594 138.601562 C 249.035156 138.601562 249.320312 138.316406 249.320312 137.96875 Z M 242.914062 142.105469 C 242.914062 141.757812 242.628906 141.472656 242.28125 141.472656 L 226.84375 141.472656 C 226.492188 141.472656 226.207031 141.757812 226.207031 142.105469 C 226.207031 142.457031 226.492188 142.738281 226.84375 142.738281 L 242.28125 142.738281 C 242.628906 142.738281 242.914062 142.457031 242.914062 142.105469 Z M 226.226562 104.855469 C 226.226562 104.503906 225.941406 104.222656 225.589844 104.222656 L 221.359375 104.222656 C 221.007812 104.222656 220.722656 104.503906 220.722656 104.855469 C 220.722656 105.207031 221.007812 105.488281 221.359375 105.488281 L 225.589844 105.488281 C 225.941406 105.488281 226.226562 105.207031 226.226562 104.855469 Z M 225.703125 108.996094 C 225.703125 108.644531 225.421875 108.359375 225.070312 108.359375 L 220.835938 108.359375 C 220.484375 108.359375 220.203125 108.644531 220.203125 108.996094 C 220.203125 109.34375 220.484375 109.628906 220.835938 109.628906 L 225.070312 109.628906 C 225.421875 109.628906 225.703125 109.34375 225.703125 108.996094 Z M 225.183594 113.132812 C 225.183594 112.785156 224.902344 112.5 224.550781 112.5 L 220.316406 112.5 C 219.964844 112.5 219.683594 112.785156 219.683594 113.132812 C 219.683594 113.484375 219.964844 113.769531 220.316406 113.769531 L 224.550781 113.769531 C 224.902344 113.769531 225.183594 113.484375 225.183594 113.132812 Z M 224.664062 117.273438 C 224.664062 116.921875 224.378906 116.640625 224.027344 116.640625 L 219.792969 116.640625 C 219.445312 116.640625 219.160156 116.921875 219.160156 117.273438 C 219.160156 117.621094 219.445312 117.90625 219.792969 117.90625 L 224.027344 117.90625 C 224.378906 117.90625 224.664062 117.621094 224.664062 117.273438 Z M 224.140625 121.414062 C 224.140625 121.0625 223.855469 120.777344 223.507812 120.777344 L 219.273438 120.777344 C 218.921875 120.777344 218.636719 121.0625 218.636719 121.414062 C 218.636719 121.761719 218.921875 122.046875 219.273438 122.046875 L 223.507812 122.046875 C 223.855469 122.046875 224.140625 121.761719 224.140625 121.414062 Z M 223.097656 129.691406 C 223.097656 129.339844 222.816406 129.054688 222.460938 129.054688 L 218.230469 129.054688 C 217.878906 129.054688 217.59375 129.339844 217.59375 129.691406 C 217.59375 130.039062 217.878906 130.324219 218.230469 130.324219 L 222.460938 130.324219 C 222.816406 130.324219 223.097656 130.039062 223.097656 129.691406 Z M 222.578125 133.828125 C 222.578125 133.476562 222.292969 133.195312 221.941406 133.195312 L 217.707031 133.195312 C 217.359375 133.195312 217.070312 133.476562 217.070312 133.828125 C 217.070312 134.179688 217.359375 134.460938 217.707031 134.460938 L 221.941406 134.460938 C 222.292969 134.460938 222.578125 134.179688 222.578125 133.828125 Z M 222.054688 137.96875 C 222.054688 137.617188 221.769531 137.332031 221.421875 137.332031 L 217.1875 137.332031 C 216.835938 137.332031 216.550781 137.617188 216.550781 137.96875 C 216.550781 138.316406 216.835938 138.601562 217.1875 138.601562 L 221.421875 138.601562 C 221.769531 138.601562 222.054688 138.316406 222.054688 137.96875 Z M 221.535156 142.105469 C 221.535156 141.757812 221.25 141.472656 220.898438 141.472656 L 216.664062 141.472656 C 216.316406 141.472656 216.03125 141.757812 216.03125 142.105469 C 216.03125 142.457031 216.316406 142.738281 216.664062 142.738281 L 220.898438 142.738281 C 221.25 142.738281 221.535156 142.457031 221.535156 142.105469 Z M 226.730469 137.96875 C 226.730469 138.316406 227.015625 138.601562 227.363281 138.601562 L 233.769531 138.601562 C 234.121094 138.601562 234.40625 138.316406 234.40625 137.96875 C 234.40625 137.617188 234.121094 137.332031 233.769531 137.332031 L 227.363281 137.332031 C 227.015625 137.332031 226.730469 137.617188 226.730469 137.96875 Z M 227.25 133.828125 C 227.25 134.179688 227.535156 134.460938 227.886719 134.460938 L 240.359375 134.460938 C 240.710938 134.460938 240.996094 134.179688 240.996094 133.828125 C 240.996094 133.476562 240.710938 133.195312 240.359375 133.195312 L 227.886719 133.195312 C 227.535156 133.195312 227.25 133.476562 227.25 133.828125 Z M 227.769531 129.691406 C 227.769531 130.039062 228.058594 130.324219 228.40625 130.324219 L 233.757812 130.324219 C 234.109375 130.324219 234.390625 130.039062 234.390625 129.691406 C 234.390625 129.339844 234.109375 129.054688 233.757812 129.054688 L 228.40625 129.054688 C 228.058594 129.054688 227.769531 129.339844 227.769531 129.691406 Z M 228.816406 121.414062 C 228.816406 121.761719 229.101562 122.046875 229.449219 122.046875 L 237.167969 122.046875 C 237.519531 122.046875 237.804688 121.761719 237.804688 121.414062 C 237.804688 121.0625 237.519531 120.777344 237.167969 120.777344 L 229.449219 120.777344 C 229.101562 120.777344 228.816406 121.0625 228.816406 121.414062 Z M 229.335938 117.273438 C 229.335938 117.621094 229.621094 117.90625 229.972656 117.90625 L 236.375 117.90625 C 236.730469 117.90625 237.011719 117.621094 237.011719 117.273438 C 237.011719 116.921875 236.730469 116.640625 236.375 116.640625 L 229.972656 116.640625 C 229.621094 116.640625 229.335938 116.921875 229.335938 117.273438 Z M 229.859375 113.132812 C 229.859375 113.484375 230.144531 113.769531 230.492188 113.769531 L 242.96875 113.769531 C 243.316406 113.769531 243.601562 113.484375 243.601562 113.132812 C 243.601562 112.785156 243.316406 112.5 242.96875 112.5 L 230.492188 112.5 C 230.144531 112.5 229.859375 112.785156 229.859375 113.132812 Z M 230.378906 108.996094 C 230.378906 109.34375 230.664062 109.628906 231.011719 109.628906 L 236.363281 109.628906 C 236.714844 109.628906 237 109.34375 237 108.996094 C 237 108.644531 236.714844 108.359375 236.363281 108.359375 L 231.011719 108.359375 C 230.664062 108.359375 230.378906 108.644531 230.378906 108.996094 Z M 230.902344 104.855469 C 230.902344 105.207031 231.183594 105.488281 231.535156 105.488281 L 246.972656 105.488281 C 247.324219 105.488281 247.609375 105.207031 247.609375 104.855469 C 247.609375 104.503906 247.324219 104.222656 246.972656 104.222656 L 231.535156 104.222656 C 231.183594 104.222656 230.902344 104.503906 230.902344 104.855469 Z M 249.929688 109.628906 C 250.28125 109.628906 250.5625 109.34375 250.5625 108.996094 C 250.5625 108.644531 250.28125 108.359375 249.929688 108.359375 L 239.226562 108.359375 C 238.878906 108.359375 238.59375 108.644531 238.59375 108.996094 C 238.59375 109.34375 238.878906 109.628906 239.226562 109.628906 Z M 244.871094 117.273438 C 244.871094 116.921875 244.585938 116.640625 244.234375 116.640625 L 239.992188 116.640625 C 239.640625 116.640625 239.359375 116.921875 239.359375 117.273438 C 239.359375 117.621094 239.640625 117.90625 239.992188 117.90625 L 244.234375 117.90625 C 244.585938 117.90625 244.871094 117.621094 244.871094 117.273438 Z M 247.320312 129.054688 L 236.621094 129.054688 C 236.269531 129.054688 235.984375 129.339844 235.984375 129.691406 C 235.984375 130.039062 236.269531 130.324219 236.621094 130.324219 L 247.320312 130.324219 C 247.675781 130.324219 247.957031 130.039062 247.957031 129.691406 C 247.957031 129.339844 247.675781 129.054688 247.320312 129.054688 Z M 251.007812 122.046875 C 251.359375 122.046875 251.644531 121.761719 251.644531 121.414062 C 251.644531 121.0625 251.359375 120.777344 251.007812 120.777344 L 239.945312 120.777344 C 239.59375 120.777344 239.308594 121.0625 239.308594 121.414062 C 239.308594 121.761719 239.59375 122.046875 239.945312 122.046875 Z M 264.113281 147.46875 C 263.894531 149.21875 262.292969 150.636719 260.539062 150.636719 L 214.109375 150.636719 C 212.355469 150.636719 211.109375 149.21875 211.332031 147.46875 L 217.464844 98.789062 C 217.683594 97.039062 219.289062 95.621094 221.039062 95.621094 L 267.46875 95.621094 C 269.222656 95.621094 270.464844 97.039062 270.25 98.789062 Z M 98.125 115.105469 L 97.535156 110.246094 C 96.964844 105.527344 98.359375 101.070312 101.035156 97.625 L 75.023438 97.625 L 75.023438 115.035156 C 75.023438 115.058594 75.015625 115.082031 75.015625 115.105469 Z M 69.691406 97.042969 L 63.402344 97.042969 L 63.402344 112.222656 L 69.691406 112.222656 Z M 60.207031 97.625 L 60.207031 95.140625 L 53.917969 95.140625 L 53.917969 112.222656 L 60.207031 112.222656 Z M 50.726562 99.320312 L 44.433594 99.320312 L 44.433594 112.222656 L 50.726562 112.222656 Z M 41.242188 106.949219 L 34.949219 106.949219 L 34.949219 112.222656 L 41.242188 112.222656 Z M 31.757812 104.261719 L 25.464844 104.261719 L 25.464844 112.222656 L 31.757812 112.222656 Z M 96.039062 133.851562 L 0.28125 133.851562 C 0.269531 133.640625 0.25 133.429688 0.238281 133.21875 L 96.21875 133.21875 L 97.960938 127.097656 C 98.707031 124.460938 98.925781 121.703125 98.59375 118.980469 L 98.203125 115.742188 L 74.9375 115.742188 C 74.613281 117.148438 73.355469 118.203125 71.847656 118.203125 L 24.976562 118.203125 C 23.464844 118.203125 22.207031 117.148438 21.882812 115.742188 L 0.46875 115.742188 C 0.488281 115.527344 0.511719 115.316406 0.535156 115.105469 L 21.808594 115.105469 C 21.808594 115.082031 21.800781 115.058594 21.800781 115.035156 L 21.800781 97.625 L 3.851562 97.625 C 3.910156 97.414062 3.980469 97.207031 4.042969 96.992188 L 21.800781 96.992188 L 21.800781 90.507812 C 21.800781 88.757812 23.222656 87.339844 24.976562 87.339844 L 71.847656 87.339844 C 73.597656 87.339844 75.023438 88.757812 75.023438 90.507812 L 75.023438 96.992188 L 101.554688 96.992188 C 104.703125 93.316406 109.386719 90.949219 114.683594 90.949219 C 119.910156 90.949219 124.632812 93.277344 127.816406 96.992188 L 144.535156 96.992188 L 144.46875 97.625 L 128.335938 97.625 C 130.253906 100.09375 131.519531 103.101562 131.859375 106.410156 L 132.035156 108.085938 L 135.652344 115.105469 L 142.523438 115.105469 L 142.453125 115.742188 L 135.882812 115.742188 C 135.898438 116.140625 135.648438 116.53125 135.230469 116.652344 L 133.8125 117.066406 C 133.394531 117.1875 133.125 117.578125 133.15625 118.003906 C 133.375 120.824219 134.011719 130.875 132.035156 131.9375 C 129.730469 133.175781 118.742188 130.957031 118.742188 130.957031 C 118.53125 131.703125 118.359375 132.457031 118.21875 133.21875 L 140.511719 133.21875 L 140.441406 133.851562 L 118.109375 133.851562 C 117.71875 136.203125 117.621094 138.589844 117.824219 140.960938 C 115.363281 140.121094 112.070312 138.835938 106.949219 137.796875 C 102.042969 136.800781 97.3125 137.925781 94.628906 138.820312 Z M 81.640625 184.863281 C 80.859375 179.941406 79.828125 174.863281 78.539062 170.078125 L 78.542969 170.078125 C 78.519531 169.992188 78.5 169.910156 78.476562 169.832031 C 78.015625 168.136719 77.523438 166.480469 76.996094 164.882812 C 75.238281 159.546875 76.910156 154.125 80.554688 150.621094 C 80.375 150.703125 80.199219 150.769531 80.023438 150.859375 C 79.726562 151.007812 79.445312 151.167969 79.164062 151.332031 L 2.703125 151.332031 C 2.746094 151.542969 2.789062 151.753906 2.832031 151.964844 L 78.1875 151.964844 C 72.695312 155.894531 70.921875 163.425781 74.320312 169.445312 L 7.699219 169.445312 C 7.773438 169.65625 7.839844 169.867188 7.914062 170.078125 L 74.671875 170.078125 Z M 141.195312 278.523438 C 143.789062 278.523438 146.386719 278.382812 148.984375 278.117188 L 132.371094 278.117188 C 135.304688 278.378906 138.246094 278.523438 141.195312 278.523438 Z M 105.605469 260.027344 C 104.988281 260.027344 104.390625 260.019531 103.800781 260.007812 L 79.996094 260.007812 C 80.347656 260.21875 80.699219 260.429688 81.050781 260.640625 L 195.246094 260.640625 C 195.570312 260.429688 195.898438 260.21875 196.222656 260.007812 L 106.378906 260.007812 C 106.117188 260.007812 105.871094 260.027344 105.605469 260.027344 Z M 80.394531 241.894531 L 55.921875 241.894531 C 56.15625 242.105469 56.386719 242.316406 56.621094 242.527344 L 80.429688 242.527344 C 80.417969 242.316406 80.40625 242.105469 80.394531 241.894531 Z M 134.042969 242.527344 L 218.554688 242.527344 C 218.78125 242.316406 219.007812 242.105469 219.238281 241.894531 L 134.265625 241.894531 C 134.195312 242.101562 134.121094 242.308594 134.042969 242.527344 Z M 80.894531 223.78125 L 38.605469 223.78125 C 38.785156 223.996094 38.964844 224.203125 39.144531 224.414062 L 80.832031 224.414062 C 80.851562 224.203125 80.871094 223.992188 80.894531 223.78125 Z M 83.53125 205.667969 L 25.367188 205.667969 C 25.503906 205.878906 25.640625 206.089844 25.777344 206.300781 L 83.53125 206.300781 C 83.53125 206.09375 83.53125 205.886719 83.53125 205.667969 Z M 181.386719 214.753906 C 182.875 214.996094 184.335938 215.222656 185.753906 215.441406 L 185.59375 215.191406 L 181.824219 214.394531 Z M 214.582031 223.78125 L 224.140625 223.78125 L 221.117188 221.679688 L 215.707031 222.910156 Z M 141.25 187.554688 L 262.375 187.554688 C 262.25 187.765625 262.128906 187.980469 262.003906 188.1875 L 141.574219 188.1875 C 145.597656 195.964844 149.285156 202.429688 151.511719 205.667969 L 250.71875 205.667969 C 250.570312 205.878906 250.421875 206.089844 250.269531 206.300781 L 151.957031 206.300781 C 152.535156 207.101562 152.988281 207.628906 153.285156 207.824219 C 155.644531 209.390625 161.476562 210.964844 168.285156 212.375 L 179.09375 208.308594 C 180.195312 207.894531 181.433594 208.035156 182.410156 208.6875 L 187.75 212.246094 L 189.976562 216.066406 C 194.144531 216.667969 197.570312 217.121094 199.480469 217.363281 L 205.394531 217.140625 L 218.085938 212.765625 C 219.222656 212.375 220.484375 212.554688 221.464844 213.253906 L 226.8125 217.039062 L 230.492188 223.78125 L 236.625 223.78125 C 236.445312 223.992188 236.261719 224.203125 236.082031 224.414062 L 230.835938 224.414062 L 230.960938 224.644531 C 231.195312 225.074219 231.019531 225.617188 230.570312 225.824219 C 229.675781 225.761719 228.648438 225.316406 227.816406 224.695312 L 228.03125 226.152344 C 228.132812 226.816406 227.585938 227.40625 226.914062 227.355469 C 225.863281 227.28125 225 226.507812 224.820312 225.472656 L 224.632812 224.414062 L 213.761719 224.414062 L 211.160156 226.421875 C 209.933594 227.363281 208.507812 227.996094 207.003906 228.269531 C 206.023438 228.449219 205.011719 228.417969 204.027344 228.285156 L 198.027344 227.457031 L 153.355469 227.140625 C 147.960938 226.917969 143.992188 225.894531 140.96875 224.414062 L 129.574219 224.414062 C 129.542969 224.3125 129.515625 224.210938 129.484375 224.109375 L 129.480469 224.109375 C 129.457031 224.023438 129.433594 223.941406 129.40625 223.851562 C 129.398438 223.832031 129.390625 223.804688 129.386719 223.78125 C 128.433594 220.550781 127.746094 217.199219 127.746094 214.238281 C 127.746094 212.554688 127.996094 210.777344 128.402344 208.9375 C 128.507812 208.957031 128.613281 208.976562 128.71875 208.996094 L 122.019531 196.09375 C 121.667969 196.167969 121.308594 196.207031 120.941406 196.207031 C 117.605469 196.207031 114.316406 193.089844 111.847656 188.1875 L 15.519531 188.1875 C 15.417969 187.980469 15.3125 187.769531 15.207031 187.554688 L 111.535156 187.554688 C 109.722656 183.738281 108.390625 178.941406 107.878906 173.722656 C 107.46875 169.539062 107.640625 165.625 108.273438 162.269531 C 108.226562 157.878906 109.410156 154.050781 112.691406 152.527344 C 112.953125 152.402344 113.21875 152.304688 113.480469 152.203125 C 114.417969 151.578125 115.441406 151.238281 116.539062 151.238281 C 116.984375 151.238281 117.429688 151.300781 117.871094 151.40625 C 122.269531 151.507812 126.179688 154.308594 128.03125 158.957031 C 131.738281 168.257812 136.6875 178.707031 141.246094 187.554688 Z M 136.414062 170.078125 L 136.484375 169.445312 L 133.945312 169.445312 C 134.015625 169.65625 134.089844 169.867188 134.15625 170.078125 Z M 138.5 151.332031 L 126.0625 151.332031 C 126.132812 151.460938 126.207031 151.589844 126.273438 151.722656 C 126.3125 151.800781 126.355469 151.882812 126.394531 151.964844 L 138.429688 151.964844 Z M 287.492188 78.882812 L 11.546875 78.882812 C 11.433594 79.089844 11.320312 79.304688 11.210938 79.515625 L 287.648438 79.515625 C 287.59375 79.304688 287.546875 79.089844 287.492188 78.882812 "/>
</g>
<g clip-path="url(#clip4)" clip-rule="nonzero">
<path style=" stroke:none;fill-rule:nonzero;fill:rgb(22.349548%,22.749329%,24.708557%);fill-opacity:1;" d="M 218.367188 207.621094 L 200.480469 207.675781 L 191.535156 207.707031 L 182.59375 207.796875 L 182.59375 208.082031 L 191.535156 208.167969 L 200.480469 208.199219 L 218.367188 208.253906 L 236.253906 208.1875 L 245.199219 208.152344 L 254.140625 208.058594 L 254.140625 207.816406 L 245.199219 207.726562 L 236.253906 207.6875 Z M 210.867188 67.351562 L 204.402344 67.351562 L 204.402344 67.984375 L 210.867188 67.984375 Z M 214.230469 65.871094 L 214.230469 65.238281 L 210.117188 65.238281 L 210.117188 65.871094 Z M 208.515625 65.238281 L 204.402344 65.238281 L 204.402344 65.871094 L 208.515625 65.871094 Z M 214.230469 63.128906 L 204.402344 63.128906 L 204.402344 63.761719 L 214.230469 63.761719 Z M 218.644531 19.019531 C 219.5625 19.019531 220.308594 18.277344 220.308594 17.359375 C 220.308594 16.445312 219.5625 15.703125 218.644531 15.703125 C 217.726562 15.703125 216.984375 16.445312 216.984375 17.359375 C 216.984375 18.277344 217.726562 19.019531 218.644531 19.019531 Z M 128.367188 19.019531 C 129.285156 19.019531 130.03125 18.277344 130.03125 17.359375 C 130.03125 16.445312 129.285156 15.703125 128.367188 15.703125 C 127.449219 15.703125 126.707031 16.445312 126.707031 17.359375 C 126.707031 18.277344 127.449219 19.019531 128.367188 19.019531 Z M 63.476562 68.726562 L 57.011719 68.726562 L 57.011719 69.359375 L 63.476562 69.359375 Z M 66.84375 67.246094 L 66.84375 66.613281 L 62.726562 66.613281 L 62.726562 67.246094 Z M 61.125 66.613281 L 57.011719 66.613281 L 57.011719 67.246094 L 61.125 67.246094 Z M 66.84375 64.5 L 57.011719 64.5 L 57.011719 65.136719 L 66.84375 65.136719 Z M 40.109375 19.019531 C 41.027344 19.019531 41.769531 18.277344 41.769531 17.359375 C 41.769531 16.445312 41.027344 15.703125 40.109375 15.703125 C 39.191406 15.703125 38.449219 16.445312 38.449219 17.359375 C 38.449219 18.277344 39.191406 19.019531 40.109375 19.019531 Z M 28.292969 115.265625 L 28.929688 115.265625 L 28.929688 114.589844 L 37.777344 114.589844 L 37.777344 115.265625 L 38.414062 115.265625 L 38.414062 114.589844 L 47.261719 114.589844 L 47.261719 115.265625 L 47.898438 115.265625 L 47.898438 114.589844 L 56.746094 114.589844 L 56.746094 115.265625 L 57.378906 115.265625 L 57.378906 114.589844 L 66.230469 114.589844 L 66.230469 115.265625 L 66.863281 115.265625 L 66.863281 114.589844 L 69.753906 114.589844 L 69.753906 113.957031 L 66.863281 113.957031 L 66.863281 113.28125 L 66.230469 113.28125 L 66.230469 113.957031 L 57.378906 113.957031 L 57.378906 113.28125 L 56.746094 113.28125 L 56.746094 113.957031 L 47.898438 113.957031 L 47.898438 113.28125 L 47.261719 113.28125 L 47.261719 113.957031 L 38.414062 113.957031 L 38.414062 113.28125 L 37.777344 113.28125 L 37.777344 113.957031 L 28.929688 113.957031 L 28.929688 113.28125 L 28.292969 113.28125 L 28.292969 113.957031 L 25.464844 113.957031 L 25.464844 114.589844 L 28.292969 114.589844 Z M 234.464844 90.949219 C 234.464844 90.601562 234.179688 90.316406 233.832031 90.316406 L 151.785156 90.316406 C 151.433594 90.316406 151.152344 90.601562 151.152344 90.949219 C 151.152344 91.300781 151.433594 91.582031 151.785156 91.582031 L 233.832031 91.582031 C 234.179688 91.582031 234.464844 91.300781 234.464844 90.949219 Z M 215.914062 181.046875 L 211.679688 181.046875 C 211.328125 181.046875 211.042969 181.332031 211.042969 181.679688 C 211.042969 182.03125 211.328125 182.316406 211.679688 182.316406 L 215.914062 182.316406 C 216.261719 182.316406 216.546875 182.03125 216.546875 181.679688 C 216.546875 181.332031 216.261719 181.046875 215.914062 181.046875 Z M 217.070312 177.542969 C 217.070312 177.191406 216.785156 176.910156 216.433594 176.910156 L 212.199219 176.910156 C 211.851562 176.910156 211.566406 177.191406 211.566406 177.542969 C 211.566406 177.890625 211.851562 178.175781 212.199219 178.175781 L 216.433594 178.175781 C 216.785156 178.175781 217.070312 177.890625 217.070312 177.542969 Z M 218.113281 169.261719 C 218.113281 168.914062 217.828125 168.628906 217.476562 168.628906 L 213.242188 168.628906 C 212.890625 168.628906 212.605469 168.914062 212.605469 169.261719 C 212.605469 169.613281 212.890625 169.898438 213.242188 169.898438 L 217.476562 169.898438 C 217.828125 169.898438 218.113281 169.613281 218.113281 169.261719 Z M 218.632812 165.125 C 218.632812 164.777344 218.351562 164.492188 217.996094 164.492188 L 213.765625 164.492188 C 213.414062 164.492188 213.128906 164.777344 213.128906 165.125 C 213.128906 165.476562 213.414062 165.757812 213.765625 165.757812 L 217.996094 165.757812 C 218.351562 165.757812 218.632812 165.476562 218.632812 165.125 Z M 219.15625 160.988281 C 219.15625 160.636719 218.871094 160.355469 218.519531 160.355469 L 214.285156 160.355469 C 213.9375 160.355469 213.652344 160.636719 213.652344 160.988281 C 213.652344 161.335938 213.9375 161.621094 214.285156 161.621094 L 218.519531 161.621094 C 218.871094 161.621094 219.15625 161.335938 219.15625 160.988281 Z M 158.941406 158.542969 C 158.878906 159.058594 159.246094 159.480469 159.761719 159.480469 C 160.28125 159.480469 160.753906 159.058594 160.820312 158.542969 C 160.886719 158.023438 160.519531 157.601562 160 157.601562 C 159.480469 157.601562 159.007812 158.023438 158.941406 158.542969 Z M 166.601562 100.238281 C 166.539062 100.757812 166.90625 101.175781 167.421875 101.175781 C 167.941406 101.175781 168.417969 100.757812 168.480469 100.238281 C 168.546875 99.722656 168.179688 99.300781 167.660156 99.300781 C 167.140625 99.300781 166.667969 99.722656 166.601562 100.238281 Z M 176.003906 122.496094 C 175.652344 122.496094 175.367188 122.777344 175.367188 123.128906 C 175.367188 123.480469 175.652344 123.761719 176.003906 123.761719 L 183.785156 123.761719 C 184.132812 123.761719 184.417969 123.480469 184.417969 123.128906 C 184.417969 122.777344 184.132812 122.496094 183.785156 122.496094 Z M 221.535156 142.105469 C 221.535156 141.757812 221.25 141.472656 220.898438 141.472656 L 216.664062 141.472656 C 216.316406 141.472656 216.03125 141.757812 216.03125 142.105469 C 216.03125 142.457031 216.316406 142.738281 216.664062 142.738281 L 220.898438 142.738281 C 221.25 142.738281 221.535156 142.457031 221.535156 142.105469 Z M 222.054688 137.96875 C 222.054688 137.617188 221.769531 137.332031 221.421875 137.332031 L 217.1875 137.332031 C 216.835938 137.332031 216.550781 137.617188 216.550781 137.96875 C 216.550781 138.316406 216.835938 138.601562 217.1875 138.601562 L 221.421875 138.601562 C 221.769531 138.601562 222.054688 138.316406 222.054688 137.96875 Z M 222.578125 133.828125 C 222.578125 133.476562 222.292969 133.195312 221.941406 133.195312 L 217.707031 133.195312 C 217.359375 133.195312 217.070312 133.476562 217.070312 133.828125 C 217.070312 134.179688 217.359375 134.460938 217.707031 134.460938 L 221.941406 134.460938 C 222.292969 134.460938 222.578125 134.179688 222.578125 133.828125 Z M 223.097656 129.691406 C 223.097656 129.339844 222.816406 129.054688 222.460938 129.054688 L 218.230469 129.054688 C 217.878906 129.054688 217.59375 129.339844 217.59375 129.691406 C 217.59375 130.039062 217.878906 130.324219 218.230469 130.324219 L 222.460938 130.324219 C 222.816406 130.324219 223.097656 130.039062 223.097656 129.691406 Z M 224.140625 121.414062 C 224.140625 121.0625 223.855469 120.777344 223.507812 120.777344 L 219.273438 120.777344 C 218.921875 120.777344 218.636719 121.0625 218.636719 121.414062 C 218.636719 121.761719 218.921875 122.046875 219.273438 122.046875 L 223.507812 122.046875 C 223.855469 122.046875 224.140625 121.761719 224.140625 121.414062 Z M 224.664062 117.273438 C 224.664062 116.921875 224.378906 116.640625 224.027344 116.640625 L 219.792969 116.640625 C 219.445312 116.640625 219.160156 116.921875 219.160156 117.273438 C 219.160156 117.621094 219.445312 117.90625 219.792969 117.90625 L 224.027344 117.90625 C 224.378906 117.90625 224.664062 117.621094 224.664062 117.273438 Z M 225.183594 113.132812 C 225.183594 112.785156 224.902344 112.5 224.550781 112.5 L 220.316406 112.5 C 219.964844 112.5 219.683594 112.785156 219.683594 113.132812 C 219.683594 113.484375 219.964844 113.769531 220.316406 113.769531 L 224.550781 113.769531 C 224.902344 113.769531 225.183594 113.484375 225.183594 113.132812 Z M 225.703125 108.996094 C 225.703125 108.644531 225.421875 108.359375 225.070312 108.359375 L 220.835938 108.359375 C 220.484375 108.359375 220.203125 108.644531 220.203125 108.996094 C 220.203125 109.34375 220.484375 109.628906 220.835938 109.628906 L 225.070312 109.628906 C 225.421875 109.628906 225.703125 109.34375 225.703125 108.996094 Z M 226.226562 104.855469 C 226.226562 104.503906 225.941406 104.222656 225.589844 104.222656 L 221.359375 104.222656 C 221.007812 104.222656 220.722656 104.503906 220.722656 104.855469 C 220.722656 105.207031 221.007812 105.488281 221.359375 105.488281 L 225.589844 105.488281 C 225.941406 105.488281 226.226562 105.207031 226.226562 104.855469 Z M 128.921875 107.828125 L 131.910156 107.679688 C 132.058594 105.941406 132.558594 104.339844 133.382812 103.933594 C 132.503906 103.84375 131.652344 103.867188 131.003906 104.152344 C 130.960938 101.953125 130.089844 100.785156 129.542969 99.402344 C 129.535156 100.980469 129.964844 100.496094 129.800781 102.613281 C 129.707031 103.785156 129.945312 104.988281 129.671875 106.132812 C 129.527344 106.738281 129.242188 107.289062 128.921875 107.828125 Z M 132.546875 107.644531 L 135.035156 107.523438 C 134.847656 105.625 134.238281 104.46875 133.796875 104.46875 C 133.347656 104.46875 132.722656 105.679688 132.546875 107.644531 Z M 135.082031 108.152344 L 132.503906 108.28125 C 132.5 108.429688 132.5 108.582031 132.5 108.738281 C 132.5 111.34375 133.265625 113.007812 133.796875 113.007812 C 134.328125 113.007812 135.097656 111.34375 135.097656 108.738281 C 135.097656 108.535156 135.089844 108.34375 135.082031 108.152344 Z M 75.203125 133.617188 C 74.511719 129.089844 75.835938 124.292969 78.757812 120.757812 C 79.824219 119.460938 81.148438 118.230469 81.476562 116.585938 C 81.816406 114.890625 81.007812 113.203125 80.640625 111.511719 C 79.9375 108.285156 80.9375 104.734375 83.222656 102.347656 C 84.976562 100.515625 87.40625 99.355469 88.886719 97.292969 C 90.128906 95.570312 90.566406 93.417969 91.417969 91.472656 C 93.808594 86.019531 99.847656 82.386719 105.796875 82.828125 C 107.449219 80.773438 110.652344 79.8125 113.25 80.269531 C 115.851562 80.726562 118.164062 82.199219 120.183594 83.890625 C 126.546875 82.917969 134.542969 88.976562 136.765625 104.6875 C 136.167969 104.507812 135.335938 104.269531 134.457031 104.097656 C 135.289062 104.800781 135.734375 106.820312 135.734375 108.738281 C 135.734375 111.113281 135.054688 113.640625 133.796875 113.640625 C 132.539062 113.640625 131.863281 111.113281 131.863281 108.738281 C 131.863281 108.597656 131.867188 108.457031 131.871094 108.3125 L 130.433594 108.386719 C 130.707031 108.53125 130.914062 109.074219 130.914062 109.726562 C 130.914062 110.488281 130.628906 111.105469 130.28125 111.105469 C 129.933594 111.105469 129.652344 110.488281 129.652344 109.726562 C 129.652344 109.09375 129.847656 108.566406 130.109375 108.402344 L 128.515625 108.480469 C 128.140625 109.070312 127.757812 109.664062 127.5 110.3125 C 126.320312 113.28125 127.992188 116.652344 127.523438 119.820312 C 127.226562 121.804688 126.113281 123.566406 125.511719 125.480469 C 124.65625 128.199219 125.257812 131.957031 126.511719 134.515625 L 117.699219 134.515625 C 117.148438 132.445312 116.4375 130.566406 116.359375 128.425781 C 115.773438 130.664062 115.515625 132.707031 115.320312 135.015625 C 114.234375 132.09375 113.519531 129.253906 113.445312 126.144531 C 113.136719 128.632812 113.03125 131.125 112.71875 133.617188 Z M 134.753906 219.113281 C 135.726562 220.335938 136.796875 221.488281 137.96875 222.542969 C 139.132812 223.597656 140.425781 224.53125 141.851562 225.25 C 142.566406 225.59375 143.324219 225.871094 144.101562 226.066406 C 144.898438 226.238281 145.664062 226.324219 146.4375 226.433594 C 147.984375 226.628906 149.53125 226.820312 151.082031 226.957031 C 154.1875 227.253906 157.296875 227.445312 160.414062 227.503906 C 160.492188 227.503906 160.558594 227.445312 160.5625 227.367188 C 160.566406 227.289062 160.503906 227.222656 160.425781 227.214844 C 158.875 227.128906 157.324219 227.003906 155.78125 226.863281 C 154.230469 226.730469 152.6875 226.578125 151.144531 226.402344 C 149.601562 226.21875 148.058594 226.042969 146.519531 225.832031 C 145.753906 225.71875 144.972656 225.625 144.25 225.460938 C 143.519531 225.273438 142.808594 225.007812 142.128906 224.679688 C 139.390625 223.328125 137.144531 221.117188 135.167969 218.773438 C 134.175781 217.59375 133.253906 216.347656 132.390625 215.066406 C 131.519531 213.789062 130.695312 212.472656 129.957031 211.117188 L 129.957031 211.113281 C 129.921875 211.054688 129.855469 211.03125 129.792969 211.0625 C 129.734375 211.09375 129.710938 211.164062 129.738281 211.222656 C 131.128906 214.015625 132.796875 216.667969 134.753906 219.113281 Z M 113.5 180.820312 C 113.144531 180.609375 112.820312 180.363281 112.507812 180.101562 C 112.199219 179.832031 111.914062 179.527344 111.628906 179.207031 C 111.59375 179.167969 111.539062 179.15625 111.488281 179.175781 C 111.425781 179.199219 111.394531 179.269531 111.417969 179.332031 C 111.75 180.164062 112.394531 180.875 113.160156 181.355469 C 113.546875 181.597656 113.957031 181.792969 114.382812 181.925781 C 114.742188 182.039062 115.109375 182.117188 115.476562 182.164062 C 116.703125 184.941406 117.972656 187.703125 119.25 190.457031 C 120.707031 193.519531 122.175781 196.578125 123.683594 199.617188 C 125.195312 202.65625 126.734375 205.675781 128.347656 208.667969 C 128.382812 208.734375 128.46875 208.761719 128.535156 208.730469 C 128.609375 208.695312 128.636719 208.605469 128.605469 208.535156 C 127.851562 207.015625 127.121094 205.488281 126.390625 203.957031 L 124.191406 199.371094 L 119.820312 190.1875 C 118.363281 187.128906 116.9375 184.050781 115.53125 180.96875 C 114.828125 179.425781 114.140625 177.878906 113.472656 176.324219 C 112.8125 174.765625 112.132812 173.207031 111.640625 171.601562 L 111.636719 171.59375 C 111.621094 171.53125 111.554688 171.496094 111.488281 171.511719 C 111.425781 171.53125 111.386719 171.597656 111.40625 171.660156 C 112.347656 174.945312 113.710938 178.0625 115.042969 181.183594 C 115.117188 181.355469 115.199219 181.53125 115.273438 181.703125 C 115.042969 181.605469 114.8125 181.507812 114.589844 181.402344 C 114.214844 181.222656 113.84375 181.039062 113.5 180.820312 Z M 130.167969 120.667969 C 130.40625 120.820312 130.675781 120.917969 130.953125 120.984375 C 131.230469 121.039062 131.511719 121.066406 131.789062 121.039062 C 131.925781 121.027344 132.0625 121 132.199219 120.980469 C 132.332031 120.941406 132.464844 120.90625 132.589844 120.855469 C 132.628906 120.839844 132.660156 120.800781 132.667969 120.757812 C 132.675781 120.691406 132.628906 120.625 132.558594 120.617188 C 132.035156 120.535156 131.558594 120.480469 131.09375 120.367188 C 130.863281 120.3125 130.640625 120.242188 130.414062 120.164062 C 130.195312 120.089844 129.96875 119.980469 129.757812 119.878906 L 129.730469 119.867188 C 129.691406 119.847656 129.640625 119.847656 129.597656 119.871094 C 129.527344 119.914062 129.503906 120 129.542969 120.070312 C 129.703125 120.339844 129.921875 120.515625 130.167969 120.667969 Z M 261.566406 228.199219 L 250.570312 211.707031 L 250.570312 211.5625 L 242.617188 211.472656 L 234.664062 211.445312 L 218.753906 211.390625 L 202.84375 211.457031 L 194.890625 211.492188 L 186.9375 211.585938 L 186.9375 211.828125 L 187.121094 211.828125 L 187.75 212.246094 L 189.855469 215.859375 L 186.148438 215.332031 C 186.171875 215.324219 186.195312 215.316406 186.21875 215.304688 C 186.363281 215.230469 186.484375 215.121094 186.59375 215.007812 C 186.695312 214.882812 186.785156 214.75 186.839844 214.597656 C 186.894531 214.449219 186.933594 214.289062 186.914062 214.121094 C 186.910156 214.089844 186.898438 214.058594 186.878906 214.035156 C 186.820312 213.96875 186.71875 213.960938 186.652344 214.015625 L 186.644531 214.023438 C 186.527344 214.121094 186.441406 214.21875 186.355469 214.3125 C 186.265625 214.40625 186.191406 214.5 186.109375 214.597656 C 186.035156 214.691406 185.953125 214.785156 185.878906 214.890625 C 185.796875 214.996094 185.714844 215.097656 185.636719 215.230469 L 185.632812 215.234375 C 185.632812 215.238281 185.632812 215.242188 185.628906 215.246094 L 185.59375 215.191406 L 181.9375 214.417969 C 181.957031 214.328125 181.984375 214.242188 182 214.15625 C 182.066406 213.851562 182.082031 213.542969 182.085938 213.230469 C 182.078125 212.921875 182.050781 212.609375 181.984375 212.308594 C 181.917969 212.007812 181.828125 211.707031 181.683594 211.429688 C 181.660156 211.382812 181.609375 211.351562 181.554688 211.351562 C 181.472656 211.347656 181.40625 211.414062 181.40625 211.496094 C 181.398438 211.800781 181.417969 212.089844 181.425781 212.378906 L 181.449219 213.242188 L 181.46875 214.105469 C 181.46875 214.292969 181.472656 214.480469 181.476562 214.671875 L 179.652344 214.410156 C 173.308594 213.460938 166.957031 212.5 160.667969 211.261719 C 159.101562 210.949219 157.527344 210.632812 156.011719 210.1875 C 155.636719 210.074219 155.257812 209.949219 154.9375 209.785156 C 154.765625 209.691406 154.738281 209.671875 154.609375 209.46875 L 154.289062 208.984375 C 153.867188 208.304688 153.449219 207.625 153.039062 206.9375 C 151.394531 204.191406 149.789062 201.417969 148.183594 198.644531 L 142.503906 188.804688 L 210.34375 188.804688 L 214.082031 203.058594 L 241 203.058594 L 237.265625 188.804688 L 278.140625 188.804688 C 282.128906 188.804688 285.480469 185.8125 285.917969 181.859375 L 295.753906 93.355469 C 296.269531 88.734375 292.640625 84.6875 287.976562 84.6875 L 150.238281 84.6875 C 146.25 84.6875 142.898438 87.679688 142.460938 91.636719 L 133.84375 169.160156 C 134.660156 171.53125 135.328125 173.847656 135.761719 175.972656 L 145.101562 91.925781 C 145.390625 89.3125 147.597656 87.339844 150.238281 87.339844 L 287.976562 87.339844 C 289.464844 87.339844 290.835938 87.949219 291.828125 89.058594 C 292.824219 90.164062 293.277344 91.585938 293.113281 93.0625 L 283.277344 181.566406 C 282.988281 184.179688 280.777344 186.152344 278.140625 186.152344 L 215.917969 186.152344 C 215.980469 186.054688 216.023438 185.945312 216.023438 185.820312 C 216.023438 185.46875 215.742188 185.1875 215.390625 185.1875 L 211.160156 185.1875 C 210.804688 185.1875 210.523438 185.46875 210.523438 185.820312 C 210.523438 185.945312 210.566406 186.054688 210.632812 186.152344 L 140.972656 186.152344 L 138.570312 181.992188 C 138.535156 181.9375 138.464844 181.917969 138.40625 181.949219 C 138.347656 181.980469 138.324219 182.054688 138.359375 182.113281 L 140.597656 186.152344 L 140.527344 186.152344 C 140.984375 187.054688 141.441406 187.9375 141.894531 188.804688 L 142.0625 188.804688 L 143.015625 190.523438 L 147.753906 198.890625 C 149.339844 201.675781 150.925781 204.460938 152.550781 207.222656 C 152.957031 207.917969 153.375 208.605469 153.796875 209.292969 L 154.132812 209.808594 C 154.203125 209.902344 154.210938 209.960938 154.34375 210.085938 C 154.460938 210.199219 154.554688 210.246094 154.660156 210.304688 C 155.054688 210.511719 155.441406 210.632812 155.835938 210.761719 C 157.394531 211.230469 158.96875 211.558594 160.546875 211.882812 C 166.867188 213.09375 173.222656 214.015625 179.578125 214.925781 L 189.125 216.234375 L 198.683594 217.40625 C 198.761719 217.410156 198.835938 217.359375 198.84375 217.28125 C 198.855469 217.203125 198.800781 217.128906 198.722656 217.121094 L 195.191406 216.617188 L 198.3125 211.933594 L 202.84375 211.953125 L 218.753906 212.019531 L 234.664062 211.964844 L 242.617188 211.9375 L 246.460938 211.894531 L 257.332031 228.199219 L 253.304688 228.199219 L 247.535156 221.6875 L 244.875 223.429688 L 249.800781 228.199219 L 233.824219 228.199219 L 248.355469 219 L 227.882812 219 L 230.960938 224.644531 C 231.195312 225.074219 231.019531 225.617188 230.570312 225.824219 C 229.738281 225.765625 228.796875 225.371094 228 224.820312 C 228 224.800781 228.007812 224.785156 228 224.769531 C 227.65625 223.964844 227.648438 223.078125 227.539062 222.164062 C 227.492188 221.703125 227.390625 221.234375 227.210938 220.777344 C 227.03125 220.320312 226.773438 219.910156 226.472656 219.535156 C 225.855469 218.804688 225.109375 218.230469 224.359375 217.71875 C 223.605469 217.203125 222.855469 216.722656 222.179688 216.132812 C 222.136719 216.09375 222.070312 216.089844 222.023438 216.128906 C 221.972656 216.171875 221.964844 216.246094 222.007812 216.296875 C 222.589844 217.023438 223.332031 217.589844 224.039062 218.148438 C 224.746094 218.707031 225.449219 219.253906 225.980469 219.933594 C 226.25 220.265625 226.488281 220.621094 226.648438 221.003906 C 226.816406 221.386719 226.894531 221.8125 226.984375 222.246094 C 227.117188 222.949219 227.199219 223.730469 227.507812 224.441406 C 227.117188 224.105469 226.777344 223.738281 226.546875 223.355469 L 224.523438 219.980469 L 220.925781 219.113281 C 220.917969 219.105469 220.914062 219.09375 220.90625 219.085938 C 220.875 219.050781 220.824219 219.03125 220.773438 219.046875 C 220.761719 219.050781 220.757812 219.066406 220.746094 219.070312 L 220.699219 219.058594 L 215.636719 222.964844 C 215.644531 222.933594 215.648438 222.90625 215.652344 222.878906 C 215.679688 222.617188 215.664062 222.351562 215.625 222.089844 C 215.578125 221.828125 215.507812 221.570312 215.398438 221.328125 C 215.292969 221.085938 215.160156 220.855469 214.980469 220.65625 C 214.945312 220.621094 214.890625 220.601562 214.84375 220.613281 C 214.761719 220.625 214.707031 220.703125 214.71875 220.785156 C 214.761719 221.035156 214.820312 221.265625 214.863281 221.5 C 214.90625 221.734375 214.960938 221.960938 215 222.195312 C 215.046875 222.425781 215.074219 222.65625 215.113281 222.894531 C 215.136719 223.03125 215.160156 223.175781 215.183594 223.320312 L 211.160156 226.421875 C 210.015625 227.304688 208.695312 227.898438 207.300781 228.199219 L 203.394531 228.199219 L 198.441406 227.515625 C 198.746094 227.246094 199.019531 226.933594 199.207031 226.5625 C 199.453125 226.109375 199.570312 225.574219 199.492188 225.074219 C 199.484375 225.015625 199.433594 224.960938 199.371094 224.953125 C 199.289062 224.941406 199.21875 224.996094 199.207031 225.074219 C 199.140625 225.519531 198.980469 225.925781 198.738281 226.277344 C 198.632812 226.425781 198.511719 226.5625 198.386719 226.695312 C 198.378906 226.402344 198.34375 226.113281 198.273438 225.832031 C 198.140625 225.289062 197.914062 224.769531 197.570312 224.339844 C 197.539062 224.296875 197.480469 224.277344 197.433594 224.296875 C 197.367188 224.324219 197.339844 224.394531 197.359375 224.457031 C 197.542969 224.945312 197.679688 225.433594 197.734375 225.929688 C 197.792969 226.425781 197.789062 226.925781 197.714844 227.410156 C 197.710938 227.425781 197.714844 227.441406 197.714844 227.457031 L 163.605469 227.214844 L 162.109375 228.199219 L 130.859375 228.199219 C 130.941406 228.410156 131.019531 228.621094 131.097656 228.832031 L 295.804688 228.832031 L 295.804688 228.199219 Z M 36.644531 228.199219 L 36.644531 228.832031 L 107.65625 228.832031 C 111.960938 228.832031 113.199219 228.199219 113.199219 228.199219 C 113.757812 228.046875 114.296875 227.84375 114.804688 227.597656 C 118.449219 225.816406 120.644531 221.679688 119.605469 217.410156 L 107.449219 167.535156 C 106.46875 163.507812 102.855469 160.675781 98.703125 160.675781 L 30.808594 160.675781 C 24.976562 160.675781 20.679688 166.125 22.058594 171.777344 L 34.210938 221.652344 C 35 224.894531 37.496094 227.355469 40.601562 228.199219 Z M 135.230469 238.089844 C 135.230469 238.089844 135.21875 238.207031 135.183594 238.40625 C 134.742188 241.050781 130.699219 260.027344 105.605469 260.027344 C 96.417969 260.027344 89.777344 258.511719 86.082031 257.371094 C 87.394531 264.863281 93.945312 270.5625 101.828125 270.5625 L 150.097656 270.5625 C 162.050781 270.5625 173.710938 265.59375 173.710938 265.59375 L 169.964844 287.753906 L 194.574219 287.753906 C 194.574219 287.753906 197.421875 265.59375 198.648438 250.726562 C 199.367188 242.023438 192.941406 239.226562 187.488281 238.40625 L 231.761719 238.40625 L 228.886719 263.09375 L 237.984375 264.601562 L 241.035156 238.40625 L 273.800781 238.40625 L 277.609375 271.152344 L 287.066406 272.710938 L 283.074219 238.40625 L 295.804688 238.40625 L 295.804688 237.773438 L 135.066406 237.773438 C 135.171875 237.976562 135.230469 238.089844 135.230469 238.089844 Z M 80.257812 237.773438 L 36.644531 237.773438 L 36.644531 238.40625 L 57.625 238.40625 C 57.605469 238.5 57.617188 238.597656 57.589844 238.695312 L 57.503906 239.332031 C 57.441406 239.757812 57.417969 240.1875 57.375 240.617188 L 57.269531 242.550781 L 57.25 242.875 C 57.257812 242.980469 57.179688 243.082031 57.386719 243.210938 C 57.617188 243.128906 57.5625 243.015625 57.597656 242.914062 L 57.652344 242.59375 L 57.769531 241.957031 L 57.996094 240.6875 C 58.050781 240.261719 58.128906 239.835938 58.164062 239.410156 L 58.230469 238.769531 C 58.222656 238.648438 58.273438 238.53125 58.25 238.40625 L 80.265625 238.40625 C 80.261719 238.195312 80.261719 237.984375 80.257812 237.773438 Z M 188.140625 100.238281 C 188.140625 99.886719 187.855469 99.605469 187.503906 99.605469 L 178.046875 99.605469 C 177.699219 99.605469 177.414062 99.886719 177.414062 100.238281 C 177.414062 100.589844 177.699219 100.871094 178.046875 100.871094 L 187.503906 100.871094 C 187.855469 100.871094 188.140625 100.589844 188.140625 100.238281 Z M 163.046875 100.238281 C 162.980469 100.757812 163.347656 101.175781 163.867188 101.175781 C 164.386719 101.175781 164.859375 100.757812 164.921875 100.238281 C 164.992188 99.722656 164.625 99.300781 164.101562 99.300781 C 163.585938 99.300781 163.113281 99.722656 163.046875 100.238281 Z M 160.3125 101.175781 C 159.792969 101.175781 159.421875 100.757812 159.492188 100.238281 C 159.554688 99.722656 160.027344 99.300781 160.546875 99.300781 C 161.066406 99.300781 161.433594 99.722656 161.367188 100.238281 C 161.304688 100.757812 160.832031 101.175781 160.3125 101.175781 "/>
</g>
<g clip-path="url(#clip5)" clip-rule="nonzero">
<path style=" stroke:none;fill-rule:nonzero;fill:rgb(46.669006%,48.239136%,52.159119%);fill-opacity:1;" d="M 249.246094 203.058594 L 244.132812 203.058594 L 240.398438 188.804688 L 237.265625 188.804688 L 241 203.058594 L 187.484375 203.058594 C 184.785156 203.058594 182.59375 205.242188 182.59375 207.9375 L 254.140625 207.9375 C 254.140625 205.242188 251.949219 203.058594 249.246094 203.058594 Z M 76.183594 202.722656 L 65.640625 202.722656 C 64.964844 202.722656 64.394531 203.226562 64.320312 203.894531 L 55.78125 277.679688 C 55.695312 278.464844 56.3125 279.160156 57.105469 279.160156 L 67.652344 279.160156 C 68.324219 279.160156 68.894531 278.652344 68.972656 277.984375 L 77.507812 204.203125 C 77.597656 203.414062 76.980469 202.722656 76.183594 202.722656 Z M 233.34375 228.5 L 237.625 228.5 L 247.367188 222.113281 L 253.027344 228.5 L 256.1875 228.5 L 248.355469 219 Z M 292.171875 84.6875 L 287.976562 84.6875 C 292.640625 84.6875 296.269531 88.734375 295.753906 93.355469 L 285.917969 181.859375 C 285.480469 185.8125 282.128906 188.804688 278.140625 188.804688 L 282.335938 188.804688 C 286.320312 188.804688 289.671875 185.8125 290.109375 181.859375 L 299.945312 93.355469 C 300.460938 88.734375 296.832031 84.6875 292.171875 84.6875 Z M 188.140625 100.238281 C 188.140625 99.886719 187.855469 99.605469 187.503906 99.605469 L 178.046875 99.605469 C 177.699219 99.605469 177.414062 99.886719 177.414062 100.238281 C 177.414062 100.589844 177.699219 100.871094 178.046875 100.871094 L 187.503906 100.871094 C 187.855469 100.871094 188.140625 100.589844 188.140625 100.238281 Z M 164.101562 99.300781 C 163.585938 99.300781 163.113281 99.722656 163.046875 100.238281 C 162.980469 100.757812 163.347656 101.175781 163.867188 101.175781 C 164.386719 101.175781 164.859375 100.757812 164.921875 100.238281 C 164.992188 99.722656 164.625 99.300781 164.101562 99.300781 Z M 160.546875 99.300781 C 160.027344 99.300781 159.554688 99.722656 159.492188 100.238281 C 159.421875 100.757812 159.792969 101.175781 160.3125 101.175781 C 160.832031 101.175781 161.304688 100.757812 161.367188 100.238281 C 161.433594 99.722656 161.066406 99.300781 160.546875 99.300781 Z M 168.480469 100.238281 C 168.417969 100.757812 167.941406 101.175781 167.421875 101.175781 C 166.90625 101.175781 166.539062 100.757812 166.601562 100.238281 C 166.667969 99.722656 167.140625 99.300781 167.660156 99.300781 C 168.179688 99.300781 168.546875 99.722656 168.480469 100.238281 "/>
</g>
</g>
</svg>
