<svg height="477.60001pt" viewBox="0 0 477.60001 477.60001" width="477.60001pt" xmlns="http://www.w3.org/2000/svg"><path d="m477.601562 238.800781c0 131.886719-106.914062 238.800781-238.800781 238.800781s-238.800781-106.914062-238.800781-238.800781 106.914062-238.800781 238.800781-238.800781 238.800781 106.914062 238.800781 238.800781zm0 0" fill="#382b73"/><path d="m445.398438 238.800781c0 114.101563-92.496094 206.597657-206.597657 206.597657-114.101562 0-206.597656-92.496094-206.597656-206.597657 0-114.101562 92.496094-206.597656 206.597656-206.597656 114.101563 0 206.597657 92.496094 206.597657 206.597656zm0 0" fill="#473080"/><path d="m200.191406 127.085938c-11.28125 0-21.015625 6.578124-25.597656 16.105468-.003906.003906-.003906.003906-.003906.007813-.078125.160156-.15625.324219-.230469.484375 0 .003906-.003906.007812-.003906.011718-.066407.136719-.125.273438-.183594.414063-.015625.03125-.03125.066406-.042969.097656-.058594.132813-.113281.265625-.171875.398438-.011719.035156-.027343.070312-.042969.101562-.066406.167969-.132812.335938-.199218.503907-1.09375-.101563-2.199219-.160157-3.320313-.160157-17 0-31.1875 12.039063-34.511719 28.050781-.1875.066407-.375.132813-.5625.203126-.074218.023437-.144531.054687-.214843.078124-.113281.042969-.21875.082032-.328125.125-.089844.035157-.179688.066407-.269532.105469-.074218.027344-.152343.0625-.230468.089844-.222656.089844-.445313.183594-.664063.277344-.023437.007812-.050781.019531-.074219.03125-.144531.0625-.289062.125-.433593.191406-.003907 0-.007813 0-.007813.003906-12.3125 5.496094-20.898437 17.835938-20.898437 32.191407 0 .207031.003906.414062.007812.625v.132812c.003907.152344.007813.304688.015625.457031.113282 3.355469.703125 6.59375 1.6875 9.648438-4.027344 4.203125-7.03125 9.398437-8.59375 15.1875-.003906.011719-.007812.023437-.007812.03125-.03125.117187-.0625.230469-.089844.34375-.003906.019531-.007812.035156-.015625.050781-.027344.113281-.058594.230469-.085937.34375 0 .011719-.003907.019531-.007813.03125-.027344.117188-.058594.238281-.085937.355469 0 .011719-.003907.023437-.007813.035156-.027344.121094-.054687.234375-.078125.351563-.003906.015624-.007812.03125-.011719.042968-.027343.117188-.050781.234375-.074219.351563-.003906.011719-.007812.023437-.007812.035156-.128906.609375-.238281 1.222656-.335938 1.84375-.003906.035156-.011718.074219-.015624.109375-.011719.085938-.023438.171875-.039063.257812-.007813.054688-.015625.105469-.019531.15625-.011719.082032-.023438.160157-.035156.242188-.007813.058594-.015626.117188-.019532.175781-.011718.078125-.019531.160157-.027344.238281-.007812.058594-.015624.113282-.023437.171876-.007813.078124-.015625.160156-.023437.238281-.007813.0625-.015626.125-.019532.1875-.007812.074219-.015625.148437-.023437.222656-.003907.066406-.011719.132813-.019531.199219-.003907.070312-.011719.140625-.015626.210937-.007812.070313-.011718.144531-.019531.214844v.015625c-.003906.0625-.011719.125-.015625.191406-.003906.058594-.007812.121094-.011718.183594 0 .015625 0 .03125-.003907.042969-.003906.066406-.007812.132812-.011719.195312-.003906.050781-.007812.101563-.007812.148438-.003906.023437-.003906.046875-.003906.074219-.003906.066406-.007813.132812-.011719.199218 0 .035156-.003906.078125-.003906.113282-.003907.042968-.003907.078124-.003907.121093v.015625c-.003906.054688-.003906.109375-.007812.167969 0 .027344 0 .0625-.003906.089844 0 .058593-.003906.109375-.003906.167969 0 .058593-.003907.117187-.003907.175781v.046875c-.003906.070312-.003906.140625-.003906.210937 0 .058594-.003906.117188-.003906.175781v.011719.40625c0 .144531 0 .289063.003906.429688v.183593c.003906.0625.003906.128907.003906.191407.003907.140625.007813.28125.011719.421875.003906.070312.007812.144531.007812.21875.007813.183594.015626.367187.027344.550781.003906.097656.011719.195313.019532.292969.003906.089844.011718.183594.015624.273437.007813.117188.019532.242188.027344.359375.003906.054688.011719.113282.015625.164063.492188 5.703125 2.347657 11.011719 5.230469 15.613281.003906.007812.007812.011719.011719.019531.101562.164063.207031.324219.308593.480469.015626.019531.027344.042969.039063.0625.121094.183594.238281.359375.359375.539062-.128906.183594-.25.375-.375.5625-.015625.023438-.027344.042969-.042969.066407-2.609375 4.019531-4.421875 8.601562-5.214843 13.523437-.003907.027344-.007813.054688-.015626.082032-.019531.140624-.042968.28125-.0625.421874-.011718.066407-.019531.132813-.027343.199219-.019531.125-.035157.25-.050781.375-.007813.0625-.015626.128907-.023438.195313-.007812.050781-.011719.097656-.019531.148437-.007813.082031-.019531.164063-.03125.25-.003907.03125-.007813.0625-.007813.09375-.015625.128907-.027344.261719-.042968.394531-.007813.070313-.011719.144532-.019532.21875-.011718.113282-.019531.226563-.03125.335938-.003906.050781-.007812.097656-.011718.148438-.003907.050781-.007813.097656-.011719.148437-.007813.109375-.015625.21875-.023438.328125 0 .042969-.003906.09375-.007812.136719 0 .011719 0 .023437-.003907.03125 0 .042969-.003906.089843-.007812.132812-.003906.070313-.007812.140625-.007812.210938-.003907.050781-.007813.101562-.007813.152343-.003906.070313-.007813.132813-.007813.203126-.003906.046874-.003906.089843-.007812.136718 0 .050782-.003906.101563-.003906.152344 0 .023438-.003906.046875-.003906.070312-.003907.121094-.003907.242188-.007813.363282 0 .027344 0 .058594-.003906.085937v.128907c-.003907.167968-.003907.335937-.003907.503906v.382812c.101563 9.535156 3.996094 18.15625 10.234376 24.441406.089843.089844.175781.175782.265624.265626.019532.019531.039063.039062.0625.058593.074219.074219.148438.148438.222657.21875.039062.035157.074219.070313.109375.105469.0625.0625.128906.121094.195312.183594.046875.042968.09375.089844.144532.132812.054687.054688.109374.101563.164062.15625.066406.058594.132812.121094.199219.179688.039062.035156.082031.074218.121093.109375.109376.097656.21875.195312.328126.292969.070312.214843.140624.429687.210937.644531-.390625 2.042969-.601563 4.148437-.601563 6.300781 0 16.753906 12.304688 30.628906 28.371094 33.085938.652344.511718 1.316406 1.007812 1.984375 1.5.066407.152343.132813.304687.199219.453124.015625.035157.035156.066407.046875.101563.054687.121094.109375.242187.167969.359375.011718.023438.023437.050781.035156.074219.058594.125.121094.25.183594.375l.035156.070312c.066406.128907.128906.257813.195312.386719.007813.011719.011719.019531.019532.03125 4.417968 8.414062 13.238281 14.152344 23.402344 14.152344 1.78125 0 3.523437-.175782 5.207031-.515625 5.253906 7.550781 13.992187 12.496093 23.890625 12.496093 12.527344 0 23.207031-7.917968 27.304687-19.019531 1.140625-2.011719 1.792969-4.335937 1.792969-6.816406v-197.308594c0-1.03125-.117188-2.035156-.328125-3.003906-2.097656-13.625-13.867187-24.054687-28.074219-24.054687zm0 0" fill="#382b73"/><path d="m395.941406 187.859375c0-.128906-.003906-.253906-.011718-.378906-.019532-.253907-.050782-.503907-.101563-.746094-.003906-.023437-.007813-.042969-.011719-.066406-.089844-.425781-.230468-.835938-.410156-1.222657-.707031-1.535156-2.078125-2.726562-3.792969-3.171874l-13.828125-3.578126 5.441406-9.242187c.519532-.882813.777344-1.859375.792969-2.832031.003907-.050782 0-.097656 0-.148438v-6.980468c.003907-.03125 0-.0625 0-.09375.066407-1.25-.277343-2.5-.996093-3.554688l-.007813-.015625c-.039063-.050781-.074219-.101563-.109375-.148437-.023438-.035157-.046875-.066407-.070312-.101563-.015626-.015625-.027344-.03125-.042969-.050781-.140625-.179688-.289063-.351563-.457031-.519532l-9.269532-9.269531c-1.207031-1.203125-2.839844-1.785156-4.457031-1.679687-.886719.054687-1.765625.3125-2.570313.789062l-14.519531 8.546875c-.492187-.214843-.992187-.421875-1.492187-.621093l-4.226563-16.3125c-.429687-1.667969-1.5625-3.003907-3.03125-3.730469-.007812-.003907-.011719-.007813-.023437-.011719-.023438-.011719-.046875-.023438-.070313-.035156-.402343-.191406-.824219-.335938-1.269531-.429688-.007812 0-.015625-.003906-.023438-.003906-.257812-.054688-.519531-.089844-.785156-.109375-.128906-.007813-.253906-.011719-.378906-.011719-.007812 0-.011719 0-.015625 0h-13.113281c-.007813 0-.011719 0-.019532 0-.125 0-.25.003906-.375.011719-.265624.019531-.53125.054687-.789062.109375-.007812.003906-.015625.003906-.023438.003906-.441406.09375-.867187.238282-1.265624.429688-.023438.011718-.050782.023437-.074219.035156-.007813.003906-.011719.007812-.019531.011719-1.46875.726562-2.601563 2.0625-3.035157 3.730469l-2.746093 10.609374c-3.6875-1.304687-7.652344-2.019531-11.789063-2.019531-.417969 0-.835937.007813-1.253906.023438-.691407.027343-1.382813.074219-2.0625.136719-.066407-.167969-.132813-.335938-.203125-.503907-.011719-.035156-.027344-.070312-.042969-.101562-.054687-.132813-.109375-.265625-.167969-.398438-.015625-.035156-.03125-.074219-.046875-.109375-.058593-.132812-.121093-.265625-.179687-.398437-.007813-.015625-.015625-.03125-.023438-.046875-.070312-.152344-.136718-.304688-.210937-.453125 0-.003907 0-.003907-.003907-.007813-.753906-1.570312-1.648437-3.058594-2.664062-4.449218-.207031-.28125-.417969-.5625-.636719-.835938-.214843-.273438-.4375-.542969-.664062-.8125-5.207031-6.125-12.964844-10.007812-21.632813-10.007812-14.207031 0-25.976562 10.429687-28.070312 24.050781-.109375.484375-.191406.980469-.246094 1.480469s-.085938 1.007812-.085938 1.527343v197.308594c0 2.480469.652344 4.804687 1.792969 6.816406.769531 2.082031 1.769531 4.050781 2.96875 5.875.199219.304688.40625.609375.617188.902344.210937.296875.425781.589844.648437.878906.222656.289063.445313.570313.679688.851563.113281.136718.234375.277344.351562.414062 4.863282 5.632813 11.84375 9.382813 19.710938 10.007813.382812.027343.769531.054687 1.160156.066406.386719.015625.777344.023437 1.167969.023437 9.898437 0 18.632812-4.945312 23.890625-12.496093.527344.101562 1.058594.191406 1.59375.265625.214844.03125.429687.058594.644531.082031.433594.046875.871094.085937 1.308594.113281.546875.035156 1.097656.050782 1.65625.050782 3.40625 0 6.660156-.644532 9.644531-1.816407.148438-.054687.296875-.117187.445312-.179687.296876-.121094.589844-.25.882813-.378906.144531-.066407.289063-.136719.433594-.207032 1.148437-.550781 2.253906-1.183594 3.304687-1.886718.394532-.265626.78125-.542969 1.160156-.828126.25-.191406.5-.382812.746094-.582031.246094-.203125.484375-.402343.726563-.613281.238281-.207031.472656-.417969.699219-.632812.347656-.324219.683593-.65625 1.011718-.996094.21875-.230469.433594-.460938.644532-.695313 1.441406-1.613281 2.6875-3.402343 3.703124-5.335937.007813-.011719.011719-.023438.019532-.035156.0625-.121094.125-.242188.183594-.363282.015624-.03125.035156-.066406.050781-.097656.054687-.113281.109375-.222656.164062-.335938.019531-.039062.035157-.078124.054688-.113281.054687-.113281.109375-.226562.160156-.339843.015625-.039063.035156-.074219.050781-.113282.070313-.148437.136719-.300781.199219-.453125.671875-.492187 1.332031-.988281 1.988281-1.5 6.148438-.9375 11.746094-3.554687 16.316406-7.363281.371094-.308594.738282-.628906 1.097657-.957031.898437-.816407 1.75-1.679688 2.554687-2.589844.320313-.363281.632813-.734375.941406-1.109375.152344-.1875.304688-.378906.453126-.574219.144531-.191406.292968-.386719.4375-.578125.144531-.195312.285156-.394531.429687-.589844.070313-.101562.140625-.199218.207031-.300781.210938-.296875.410156-.601562.609375-.910156.792969-1.226563 1.507813-2.511719 2.132813-3.84375.105468-.21875.210937-.445313.308594-.667969.101562-.222656.199218-.449218.292968-.679687.097656-.226563.1875-.453125.277344-.683594 1.492188-3.792969 2.308594-7.917969 2.308594-12.238281 0-.402344-.007813-.804688-.023438-1.207032-.019531-.535156-.050781-1.0625-.09375-1.59375-.011718-.128906-.023437-.261718-.035156-.390624-.078125-.789063-.179688-1.570313-.308594-2.339844-.042968-.257813-.089844-.515625-.140625-.769532.070313-.214843.140625-.429687.210938-.644531.109375-.097656.21875-.195312.328125-.292969.039062-.035156.082031-.074218.121094-.109374.066406-.058594.132812-.121094.199218-.179688.054688-.050781.109375-.101562.167969-.15625.046875-.042969.09375-.089844.140625-.132812.066406-.058594.128906-.121094.195312-.183594.035157-.035156.070313-.070313.109376-.105469.074218-.070313.148437-.144531.222656-.21875.019531-.019531.042968-.039063.0625-.0625.089844-.085937.179687-.171875.265625-.261719 6.242187-6.285156 10.132812-14.90625 10.234375-24.441406.003906-.128906.003906-.253906.003906-.382812 0-.167969-.003906-.335938-.003906-.503907 0-.042969-.003906-.085937-.003906-.128906 0-.03125 0-.058594 0-.085937-.003907-.121094-.007813-.242188-.011719-.363282 0-.023437 0-.046875 0-.070312-.003907-.050782-.003907-.101563-.007813-.152344 0-.046875-.003906-.089844-.003906-.136719-.003906-.066406-.007812-.136719-.007812-.203125-.003907-.050781-.007813-.101562-.007813-.152344-.003906-.070312-.007813-.140624-.011719-.210937 0-.042969-.003906-.089844-.007812-.132813 0-.007812 0-.019531 0-.03125-.003906-.042968-.007813-.09375-.007813-.136718-.007812-.105469-.015625-.207032-.023437-.308594-.003906-.058594-.007813-.113281-.011719-.167969-.003906-.054687-.007813-.105469-.015625-.160156-.007812-.105469-.015625-.210937-.027344-.316406-.007812-.078125-.011718-.160157-.023437-.238281-.007813-.101563-.019531-.207032-.03125-.308594-.003907-.054688-.011719-.113282-.015625-.167969-.011719-.089844-.019532-.175781-.035156-.265625-.003907-.039062-.007813-.078125-.011719-.121094-.007813-.070312-.019531-.140625-.027344-.207031-.015625-.125-.03125-.25-.050781-.375-.007813-.066406-.019532-.132813-.027344-.199219-.019531-.140625-.039062-.28125-.0625-.421875-.003906-.027343-.011719-.054687-.015625-.082031-.792969-4.921875-2.605469-9.503906-5.214844-13.523438-.015625-.023437-.027343-.042968-.042969-.066406-.125-.1875-.246093-.378906-.375-.5625.121094-.179687.238282-.355468.359376-.539062.027343-.046875.058593-.09375.089843-.140625.085938-.132813.171875-.265625.253907-.398438.03125-.050781.0625-.101562.09375-.152343 1.054687-1.699219 1.96875-3.496094 2.726562-5.367188l.007812-.019531c.070313-.171875.136719-.34375.203126-.515625.007812-.019532.015624-.042969.027343-.066406.058594-.160157.121094-.320313.179688-.484376.011719-.03125.023437-.066406.035156-.097656.058594-.15625.113281-.3125.167969-.472656.011718-.035156.027344-.070312.039062-.105469.050782-.160156.105469-.316406.160156-.476562.007813-.035157.019532-.066407.027344-.09375.054688-.164063.105469-.324219.15625-.488281.007813-.035157.019532-.070313.03125-.101563.046875-.160156.09375-.320313.140625-.480469.429688-.246094.832031-.554687 1.195313-.917968l9.273437-9.269532c1.175781-1.179687 1.753907-2.757812 1.6875-4.339844v-6.832031c0-.015625 0-.03125 0-.046875.054688-1.097656-.203125-2.222656-.792969-3.222656l-5.441406-9.242188 13.824219-3.578124c2.550781-.660157 4.332031-2.960938 4.332031-5.597657v-20.53125c0 .003907 0 0 0-.003906zm0 0" fill="#382b73"/><path d="m228.261719 137.136719c-2.09375-13.621094-13.863281-24.050781-28.070313-24.050781-12.0625 0-22.363281 7.519531-26.480468 18.128906-1.089844-.101563-2.195313-.160156-3.316407-.160156-17 0-31.1875 12.035156-34.511719 28.050781-13.785156 4.785156-23.683593 17.882812-23.683593 33.296875 0 3.792968.605469 7.4375 1.714843 10.863281-6.074218 6.332031-9.8125 14.921875-9.8125 24.386719 0 7.339844 2.246094 14.152344 6.085938 19.796875-3.839844 5.644531-6.085938 12.457031-6.085938 19.800781 0 10.578125 4.667969 20.0625 12.046876 26.523438.070312.214843.136718.429687.210937.648437-.390625 2.039063-.601563 4.144531-.601563 6.300781 0 16.75 12.304688 30.628906 28.367188 33.085938.65625.507812 1.316406 1.007812 1.988281 1.496094 4.039063 9.414062 13.390625 16.003906 24.285157 16.003906 1.78125 0 3.523437-.179688 5.207031-.515625 5.253906 7.550781 13.992187 12.496093 23.890625 12.496093 12.527344 0 23.207031-7.917968 27.304687-19.019531 1.140625-2.011719 1.792969-4.335937 1.792969-6.816406v-197.308594c-.003906-1.03125-.121094-2.035156-.332031-3.007812zm0 0" fill="#ee5a9c"/><path d="m116.144531 299.773438c-.121093-.109376-.238281-.222657-.359375-.332032-.015625.425782-.03125.851563-.03125 1.28125 0 1.023438.046875 2.039063.136719 3.039063.101563-1.132813.253906-2.246094.464844-3.34375-.070313-.210938-.140625-.429688-.210938-.644531zm0 0" fill="#ef6ea8"/><path d="m113.914062 209.265625c-.492187-1.53125-.882812-3.109375-1.167968-4.71875-5.378906 6.1875-8.644532 14.261719-8.644532 23.105469 0 1.019531.046876 2.03125.132813 3.027344.691406-8.285157 4.246094-15.753907 9.679687-21.414063zm0 0" fill="#ef6ea8"/><path d="m228.261719 137.136719c-2.09375-13.621094-13.863281-24.050781-28.070313-24.050781-12.0625 0-22.363281 7.519531-26.480468 18.128906-1.089844-.101563-2.195313-.160156-3.316407-.160156-17 0-31.1875 12.035156-34.511719 28.050781-13.785156 4.785156-23.683593 17.882812-23.683593 33.296875 0 1.007812.046875 2.003906.128906 2.988281 1.195313-14.089844 10.679687-25.816406 23.554687-30.289063 3.324219-16.011718 17.511719-28.050781 34.511719-28.050781 1.121094 0 2.226563.058594 3.320313.160157 4.117187-10.605469 14.414062-18.128907 26.476562-18.128907 14.207032 0 25.980469 10.433594 28.070313 24.054688.214843.96875.332031 1.972656.332031 3.003906v-6c-.003906-1.027344-.121094-2.03125-.332031-3.003906zm0 0" fill="#ef6ea8"/><path d="m110.183594 253.453125c-.65625-.96875-1.261719-1.96875-1.824219-3-2.714844 4.992187-4.257813 10.710937-4.257813 16.800781 0 .992188.050782 1.972656.132813 2.945313.53125-6.175781 2.648437-11.894531 5.949219-16.746094zm0 0" fill="#ef6ea8"/><g fill="#e43c90"><path d="m110.183594 223.453125c-1.632813-2.402344-2.976563-5.019531-3.980469-7.796875-1.359375 3.746094-2.101563 7.785156-2.101563 11.996094 0 2.683594.300782 5.292968.867188 7.800781.988281-4.363281 2.777344-8.417969 5.214844-12zm0 0"/><path d="m199.492188 339.292969c-9.898438 0-18.636719-4.945313-23.890626-12.496094-1.6875.335937-3.425781.515625-5.207031.515625-10.890625 0-20.242187-6.59375-24.285156-16.003906-.667969-.492188-1.332031-.988282-1.988281-1.5-16.0625-2.457032-28.367188-16.332032-28.367188-33.085938 0-2.152344.210938-4.257812.601563-6.300781-.070313-.214844-.140625-.429687-.210938-.644531-4.441406-3.890625-7.890625-8.878906-9.941406-14.539063-1.359375 3.75-2.105469 7.792969-2.105469 12.015625 0 10.578125 4.667969 20.058594 12.046875 26.523438.070313.214844.136719.429687.210938.644531-.390625 2.042969-.601563 4.148437-.601563 6.300781 0 16.753906 12.304688 30.628906 28.367188 33.085938.65625.511718 1.316406 1.007812 1.988281 1.5 4.039063 9.410156 13.390625 16.003906 24.285156 16.003906 1.78125 0 3.519531-.179688 5.207031-.515625 5.253907 7.550781 13.992188 12.496094 23.890626 12.496094 12.527343 0 23.207031-7.917969 27.304687-19.023438 1.140625-2.011719 1.792969-4.335937 1.792969-6.816406v-24c0 2.480469-.652344 4.804687-1.792969 6.816406-4.097656 11.105469-14.777344 19.023438-27.304687 19.023438zm0 0"/><path d="m124.527344 299.523438c3.652344 0 7.316406-.636719 10.851562-1.921876 6.140625-2.226562 11.320313-6.199218 15.023438-11.414062 3.539062 2.765625 7.785156 4.484375 12.359375 4.941406.152343.015625.304687.023438.453125.023438 2.285156 0 4.242187-1.730469 4.472656-4.054688.25-2.472656-1.554688-4.675781-4.03125-4.925781-3.992188-.398437-7.589844-2.328125-10.128906-5.433594-2.539063-3.105469-3.71875-7.015625-3.320313-11.007812.25-2.472657-1.554687-4.679688-4.027343-4.925781-2.476563-.246094-4.679688 1.558593-4.925782 4.03125-.503906 5.019531.5625 9.957031 3.015625 14.253906-2.667969 4.660156-6.855469 8.195312-11.960937 10.046875-5.714844 2.074219-11.894532 1.800781-17.402344-.777344-2.609375-1.21875-4.9375-2.917969-6.890625-4.980469 2.042969 3.957032 4.808594 7.484375 8.128906 10.390625.070313.214844.140625.429688.210938.644531-.242188 1.269532-.40625 2.566407-.5 3.878907 2.835937.820312 5.75 1.230469 8.671875 1.230469zm0 0"/><path d="m228.589844 236.273438v-9.375c-1.839844-.40625-3.738282-.601563-5.671875-.558594-4.777344.085937-9.316407 1.554687-13.164063 4.207031-10.941406-9.277344-26.734375-9.960937-38.394531-2.015625-2.089844-4.136719-5.394531-7.714844-9.738281-10.132812-2.171875-1.207032-4.914063-.425782-6.121094 1.746093s-.429688 4.910157 1.746094 6.121094c7.238281 4.023437 9.851562 13.191406 5.824218 20.429687-1.207031 2.171876-.425781 4.910157 1.742188 6.117188.695312.386719 1.445312.570312 2.183594.570312 1.582031 0 3.117187-.835937 3.9375-2.316406 2.308594-4.144531 3.246094-8.691406 2.972656-13.109375 8.863281-8.085937 22.605469-7.890625 31.234375.546875.230469.5625.574219 1.089844 1.039063 1.535156.296874.289063.628906.523438.972656.710938 2.730468 3.488281 4.40625 7.722656 4.769531 12.164062.191406 2.355469 2.15625 4.136719 4.476563 4.136719.125 0 .246093-.003906.371093-.015625 2.476563-.199218 4.324219-2.375 4.121094-4.847656-.433594-5.3125-2.207031-10.402344-5.097656-14.8125 2.191406-1.28125 4.683593-1.992188 7.289062-2.035156 1.910157-.035156 3.769531.289062 5.507813.933594zm0 0"/><path d="m191.410156 304.746094c-2.445312.453125-4.058594 2.800781-3.605468 5.242187.453124 2.445313 2.800781 4.058594 5.242187 3.609375 4.273437-.792968 8.464844.320313 11.699219 2.730469-.53125.382813-.992188.882813-1.332032 1.5-2.90625 5.335937-7.722656 9.222656-13.554687 10.9375s-11.984375 1.058594-17.320313-1.851563c-3.753906-2.046874-6.839843-5.109374-8.917968-8.792968 1.359375-.609375 2.78125-1.089844 4.253906-1.421875 2.421875-.546875 3.945312-2.957031 3.398438-5.378907-.546876-2.425781-2.953126-3.945312-5.378907-3.398437-7.289062 1.640625-13.792969 5.832031-18.3125 11.792969-3.085937 4.070312-5.09375 8.71875-5.960937 13.605468.824218.191407 1.660156.359376 2.507812.488282.652344.511718 1.316406 1.007812 1.984375 1.5 1.070313 2.488281 2.511719 4.777344 4.253907 6.800781-.003907-.039063-.011719-.070313-.015626-.105469-.832031-6.023437.734376-12.007812 4.40625-16.851562.472657-.625.976563-1.214844 1.507813-1.785156 2.890625 4.777343 7.015625 8.746093 11.96875 11.445312 4.730469 2.582031 9.917969 3.890625 15.160156 3.890625 3.007813 0 6.039063-.429687 9.007813-1.304687 7.417968-2.183594 13.648437-6.882813 17.769531-13.339844.152344.511718.28125 1.039062.382813 1.574218.398437 2.167969 2.292968 3.683594 4.417968 3.683594.273438 0 .546875-.023437.824219-.078125 2.445313-.449219 4.058594-2.796875 3.605469-5.242187-2.414063-13.023438-14.96875-21.65625-27.992188-19.25zm0 0"/><path d="m143.605469 181.429688c-.226563 4.730468-1.925781 9.269531-4.828125 12.964843-5.28125.066407-10.578125 1.851563-14.964844 5.464844-1.917969 1.582031-2.191406 4.417969-.609375 6.335937 1.578125 1.917969 4.414063 2.191407 6.332031.609376 6.394532-5.265626 15.878906-4.347657 21.144532 2.042968.890624 1.082032 2.179687 1.636719 3.476562 1.636719 1.007812 0 2.023438-.335937 2.859375-1.023437 1.917969-1.582032 2.191406-4.417969.609375-6.335938-2.570312-3.117188-5.769531-5.417969-9.265625-6.875 2.523437-4.363281 3.992187-9.300781 4.234375-14.398438.5625-11.898437-5.535156-22.59375-14.996094-28.484374-.726562 1.839843-1.304687 3.757812-1.714844 5.734374-1.261718.4375-2.492187.949219-3.683593 1.523438 7.15625 4.121094 11.820312 12.003906 11.40625 20.804688zm0 0"/><path d="m228.589844 293.316406v-9.21875c-3.480469.90625-7.148438.96875-10.757813.148438-5.925781-1.351563-10.972656-4.933594-14.207031-10.078125-2.855469-4.539063-4.015625-9.957031-3.273438-15.261719.347657-2.457031-1.371093-4.734375-3.832031-5.082031-2.460937-.339844-4.734375 1.371093-5.082031 3.832031-1.039062 7.402344.585938 14.964844 4.566406 21.300781 4.511719 7.179688 11.554688 12.175781 19.824219 14.0625 2.367187.539063 4.753906.804688 7.125.804688 1.898437.003906 3.78125-.171875 5.636719-.507813zm0 0"/><path d="m110.183594 247.453125c-1.035156 1.519531-1.945313 3.125-2.734375 4.800781 2.355469.542969 4.761719.824219 7.171875.824219 7.613281 0 15.253906-2.714844 21.324218-8.222656 1.839844-1.667969 1.980469-4.515625.308594-6.355469-1.667968-1.839844-4.515625-1.980469-6.355468-.308594-6.246094 5.664063-14.800782 7.199219-22.300782 4.78125.753906 1.5625 1.621094 3.058594 2.585938 4.480469zm0 0"/><path d="m204.515625 175.527344c-8.332031 1.585937-15.550781 6.324218-20.320313 13.339844-1.398437 2.058593-.863281 4.855468 1.191407 6.253906 2.058593 1.398437 4.855469.863281 6.253906-1.191406 3.417969-5.03125 8.585937-8.421876 14.558594-9.5625 5.972656-1.140626 12.03125.117187 17.058593 3.535156 2.054688 1.398437 3.851563 3.121094 5.332032 5.074218v-12.320312c-.09375-.0625-.183594-.132812-.273438-.195312-7.015625-4.773438-15.46875-6.523438-23.800781-4.933594zm0 0"/><path d="m173.710938 131.214844c-1.089844-.101563-2.195313-.160156-3.316407-.160156-.8125 0-1.617187.035156-2.414062.089843.058593 3.703125.761719 7.347657 2.054687 10.769531-.027344.769532.136719 1.550782.519532 2.277344 3.882812 7.316406 1.089843 16.425782-6.226563 20.308594-2.195313 1.164062-3.03125 3.890625-1.867187 6.085938.808593 1.523437 2.367187 2.390624 3.980468 2.390624.710938 0 1.433594-.171874 2.105469-.527343 6.53125-3.46875 10.808594-9.542969 12.230469-16.269531 1.914062 1.421874 4.011718 2.65625 6.289062 3.644531.585938.253906 1.195313.375 1.792969.375 1.738281 0 3.390625-1.011719 4.128906-2.710938.988281-2.277343-.054687-4.929687-2.335937-5.917969-10.832032-4.703124-16.15625-16.875-12.582032-27.886718-1.808593 2.253906-3.292968 4.785156-4.359374 7.53125zm0 0"/></g><path d="m249.085938 137.136719c2.089843-13.621094 13.859374-24.050781 28.066406-24.050781 12.0625 0 22.363281 7.519531 26.480468 18.128906 1.089844-.101563 2.195313-.160156 3.316407-.160156 17 0 31.1875 12.035156 34.511719 28.050781 13.785156 4.785156 23.683593 17.882812 23.683593 33.296875 0 3.792968-.605469 7.4375-1.710937 10.863281 6.074218 6.332031 9.8125 14.921875 9.8125 24.386719 0 7.339844-2.246094 14.152344-6.085938 19.796875 3.84375 5.644531 6.085938 12.457031 6.085938 19.800781 0 10.578125-4.667969 20.0625-12.046875 26.523438-.070313.214843-.140625.429687-.210938.648437.390625 2.039063.601563 4.144531.601563 6.300781 0 16.75-12.304688 30.628906-28.367188 33.085938-.65625.507812-1.316406 1.007812-1.988281 1.496094-4.039063 9.414062-13.390625 16.003906-24.285156 16.003906-1.78125 0-3.519531-.179688-5.207031-.515625-5.253907 7.550781-13.992188 12.496093-23.890626 12.496093-12.527343 0-23.207031-7.917968-27.304687-19.019531-1.140625-2.011719-1.792969-4.335937-1.792969-6.816406v-197.308594c0-1.03125.117188-2.035156.332032-3.007812zm0 0" fill="#ee5a9c"/><path d="m364.601562 204.546875c-.289062 1.609375-.675781 3.1875-1.167968 4.71875 5.429687 5.660156 8.984375 13.128906 9.679687 21.417969.085938-1 .128907-2.007813.128907-3.03125 0-8.84375-3.261719-16.917969-8.640626-23.105469zm0 0" fill="#ef6ea8"/><path d="m277.152344 119.085938c12.0625 0 22.363281 7.519531 26.480468 18.128906 1.089844-.101563 2.195313-.160156 3.316407-.160156 17 0 31.1875 12.035156 34.511719 28.050781 12.878906 4.46875 22.363281 16.195312 23.554687 30.289062.085937-.988281.128906-1.984375.128906-2.992187 0-15.414063-9.898437-28.507813-23.683593-33.296875-3.324219-16.011719-17.511719-28.050781-34.511719-28.050781-1.121094 0-2.222657.058593-3.316407.160156-4.117187-10.605469-14.417968-18.128906-26.480468-18.128906-14.207032 0-25.976563 10.433593-28.066406 24.054687-.214844.96875-.332032 1.972656-.332032 3.003906v6c0-1.03125.117188-2.035156.332032-3.003906 2.089843-13.625 13.859374-24.054687 28.066406-24.054687zm0 0" fill="#ef6ea8"/><path d="m367.160156 253.453125c3.300782 4.851563 5.417969 10.570313 5.949219 16.746094.082031-.972657.136719-1.953125.136719-2.945313 0-6.085937-1.546875-11.804687-4.261719-16.800781-.558594 1.027344-1.167969 2.03125-1.824219 3zm0 0" fill="#ef6ea8"/><path d="m361.199219 299.773438c-.070313.214843-.140625.429687-.210938.648437.207031 1.09375.363281 2.207031.464844 3.339844.089844-1 .136719-2.015625.136719-3.039063 0-.429687-.015625-.851562-.03125-1.277344-.121094.105469-.238282.222657-.359375.328126zm0 0" fill="#ef6ea8"/><path d="m367.160156 223.453125c2.4375 3.582031 4.226563 7.636719 5.214844 12 .566406-2.511719.867188-5.117187.867188-7.800781 0-4.210938-.742188-8.25-2.101563-11.996094-1.003906 2.777344-2.347656 5.394531-3.980469 7.796875zm0 0" fill="#e43c90"/><path d="m361.199219 269.773438c-.070313.214843-.140625.429687-.210938.648437.390625 2.039063.601563 4.144531.601563 6.300781 0 16.75-12.304688 30.628906-28.371094 33.085938-.652344.507812-1.316406 1.007812-1.984375 1.496094-4.042969 9.414062-13.390625 16.003906-24.285156 16.003906-1.785157 0-3.523438-.179688-5.207031-.515625-5.257813 7.550781-13.996094 12.496093-23.890626 12.496093-12.53125 0-23.207031-7.917968-27.304687-19.019531-1.140625-2.011719-1.792969-4.335937-1.792969-6.816406v24c0 2.476563.652344 4.800781 1.792969 6.816406 4.097656 11.101563 14.773437 19.019531 27.304687 19.019531 9.894532 0 18.632813-4.945312 23.890626-12.496093 1.683593.335937 3.421874.515625 5.207031.515625 10.890625 0 20.242187-6.589844 24.285156-16.003906.667969-.488282 1.332031-.988282 1.984375-1.496094 16.066406-2.457032 28.371094-16.335938 28.371094-33.085938 0-2.15625-.214844-4.261718-.601563-6.300781.070313-.214844.140625-.433594.210938-.648437 7.378906-6.460938 12.042969-15.945313 12.042969-26.523438 0-4.21875-.746094-8.265625-2.105469-12.015625-2.046875 5.660156-5.496094 10.648437-9.9375 14.539063zm0 0" fill="#e43c90"/><path d="m352.820312 299.523438c-3.652343 0-7.316406-.636719-10.851562-1.921876-6.140625-2.226562-11.324219-6.199218-15.023438-11.414062-3.539062 2.765625-7.789062 4.484375-12.359374 4.941406-.152344.015625-.304688.023438-.457032.023438-2.28125 0-4.238281-1.730469-4.472656-4.054688-.246094-2.472656 1.558594-4.675781 4.03125-4.925781 3.992188-.398437 7.589844-2.328125 10.132812-5.433594 2.539063-3.105469 3.71875-7.015625 3.320313-11.007812-.25-2.472657 1.554687-4.679688 4.03125-4.925781 2.472656-.246094 4.675781 1.558593 4.925781 4.03125.5 5.019531-.566406 9.957031-3.019531 14.253906 2.667969 4.660156 6.855469 8.195312 11.960937 10.046875 5.714844 2.074219 11.894532 1.800781 17.402344-.777344 2.609375-1.21875 4.9375-2.917969 6.890625-4.980469-2.042969 3.957032-4.808593 7.484375-8.128906 10.390625-.070313.214844-.140625.429688-.210937.644531.242187 1.269532.40625 2.566407.5 3.878907-2.839844.820312-5.753907 1.230469-8.671876 1.230469zm0 0" fill="#e43c90"/><path d="m248.753906 236.273438v-9.375c1.839844-.40625 3.738282-.601563 5.671875-.558594 4.777344.085937 9.316407 1.554687 13.164063 4.207031 10.941406-9.277344 26.734375-9.960937 38.394531-2.015625 2.089844-4.136719 5.394531-7.714844 9.738281-10.132812 2.171875-1.207032 4.914063-.425782 6.121094 1.746093s.429688 4.910157-1.742188 6.121094c-7.238281 4.023437-9.855468 13.191406-5.824218 20.429687 1.207031 2.171876.425781 4.910157-1.746094 6.117188-.691406.386719-1.441406.570312-2.183594.570312-1.578125 0-3.113281-.835937-3.9375-2.316406-2.304687-4.144531-3.242187-8.691406-2.96875-13.109375-8.863281-8.085937-22.601562-7.890625-31.234375.546875-.230469.5625-.574219 1.089844-1.039062 1.535156-.296875.289063-.628907.523438-.972657.710938-2.730468 3.488281-4.40625 7.722656-4.765624 12.164062-.195313 2.355469-2.160157 4.136719-4.480469 4.136719-.125 0-.246094-.003906-.371094-.015625-2.476563-.199218-4.320313-2.375-4.121094-4.847656.433594-5.3125 2.207031-10.402344 5.097657-14.8125-2.191407-1.28125-4.683594-1.992188-7.289063-2.035156-1.910156-.035156-3.773437.289062-5.511719.933594zm0 0" fill="#e43c90"/><path d="m285.933594 304.746094c2.445312.453125 4.058594 2.800781 3.605468 5.242187-.449218 2.445313-2.800781 4.058594-5.242187 3.609375-4.273437-.792968-8.460937.320313-11.699219 2.730469.53125.382813.996094.882813 1.332032 1.5 2.910156 5.335937 7.722656 9.222656 13.554687 10.9375s11.984375 1.058594 17.320313-1.851563c3.753906-2.046874 6.839843-5.109374 8.917968-8.792968-1.359375-.609375-2.78125-1.089844-4.25-1.421875-2.425781-.546875-3.945312-2.957031-3.402344-5.378907.546876-2.425781 2.957032-3.945312 5.382813-3.398437 7.289063 1.640625 13.789063 5.832031 18.3125 11.792969 3.082031 4.070312 5.09375 8.71875 5.957031 13.605468-.824218.191407-1.65625.359376-2.503906.488282-.65625.511718-1.316406 1.007812-1.988281 1.5-1.066407 2.488281-2.511719 4.777344-4.25 6.800781.003906-.039063.011719-.070313.015625-.105469.828125-6.023437-.734375-12.007812-4.40625-16.851562-.472656-.625-.980469-1.214844-1.511719-1.785156-2.886719 4.777343-7.011719 8.746093-11.964844 11.445312-4.730469 2.582031-9.921875 3.890625-15.164062 3.890625-3.007813 0-6.039063-.429687-9.007813-1.304687-7.417968-2.183594-13.648437-6.882813-17.769531-13.339844-.152344.511718-.28125 1.039062-.378906 1.574218-.402344 2.167969-2.292969 3.683594-4.421875 3.683594-.269532 0-.546875-.023437-.824219-.078125-2.441406-.449219-4.058594-2.796875-3.605469-5.242187 2.414063-13.023438 14.96875-21.65625 27.992188-19.25zm0 0" fill="#e43c90"/><path d="m333.738281 181.429688c.226563 4.730468 1.925781 9.269531 4.828125 12.964843 5.28125.066407 10.578125 1.851563 14.964844 5.464844 1.917969 1.582031 2.191406 4.417969.609375 6.335937-1.578125 1.917969-4.414063 2.191407-6.332031.609376-6.394532-5.265626-15.878906-4.347657-21.148438 2.042968-.886718 1.082032-2.175781 1.636719-3.472656 1.636719-1.007812 0-2.023438-.335937-2.859375-1.023437-1.917969-1.582032-2.191406-4.417969-.613281-6.335938 2.570312-3.117188 5.773437-5.417969 9.265625-6.875-2.519531-4.363281-3.992188-9.300781-4.234375-14.398438-.558594-11.898437 5.539062-22.59375 15-28.484374.726562 1.839843 1.304687 3.757812 1.714844 5.734374 1.261718.4375 2.488281.949219 3.683593 1.523438-7.152343 4.121094-11.820312 12.003906-11.40625 20.804688zm0 0" fill="#e43c90"/><path d="m248.753906 293.316406v-9.21875c3.480469.90625 7.148438.96875 10.757813.148438 5.925781-1.351563 10.972656-4.933594 14.207031-10.078125 2.855469-4.539063 4.015625-9.957031 3.273438-15.261719-.347657-2.457031 1.371093-4.734375 3.832031-5.082031 2.460937-.339844 4.734375 1.371093 5.082031 3.832031 1.039062 7.402344-.585938 14.964844-4.5625 21.300781-4.515625 7.179688-11.554688 12.175781-19.828125 14.0625-2.367187.539063-4.753906.804688-7.125.804688-1.898437.003906-3.78125-.171875-5.636719-.507813zm0 0" fill="#e43c90"/><path d="m367.160156 247.453125c1.035156 1.519531 1.945313 3.125 2.734375 4.800781-2.355469.542969-4.761719.824219-7.171875.824219-7.613281 0-15.253906-2.714844-21.324218-8.222656-1.839844-1.667969-1.976563-4.515625-.308594-6.355469 1.671875-1.839844 4.515625-1.980469 6.355468-.308594 6.246094 5.664063 14.800782 7.199219 22.300782 4.78125-.753906 1.5625-1.621094 3.058594-2.585938 4.480469zm0 0" fill="#e43c90"/><path d="m272.828125 175.527344c8.335937 1.585937 15.550781 6.324218 20.320313 13.339844 1.398437 2.058593.863281 4.855468-1.191407 6.253906-2.058593 1.398437-4.855469.863281-6.253906-1.191406-3.417969-5.03125-8.585937-8.421876-14.558594-9.5625-5.972656-1.140626-12.027343.117187-17.054687 3.535156-2.058594 1.398437-3.855469 3.121094-5.335938 5.074218v-12.320312c.09375-.0625.183594-.132812.273438-.195312 7.015625-4.773438 15.46875-6.523438 23.800781-4.933594zm0 0" fill="#e43c90"/><path d="m303.632812 131.214844c1.089844-.101563 2.195313-.160156 3.316407-.160156.8125 0 1.613281.035156 2.414062.089843-.058593 3.703125-.761719 7.347657-2.054687 10.769531.027344.769532-.132813 1.550782-.519532 2.277344-3.882812 7.316406-1.089843 16.425782 6.226563 20.308594 2.195313 1.164062 3.03125 3.890625 1.867187 6.085938-.808593 1.523437-2.367187 2.390624-3.980468 2.390624-.710938 0-1.433594-.171874-2.105469-.527343-6.53125-3.46875-10.808594-9.542969-12.230469-16.269531-1.914062 1.421874-4.011718 2.65625-6.289062 3.644531-.585938.253906-1.191406.375-1.792969.375-1.738281 0-3.390625-1.011719-4.128906-2.710938-.988281-2.277343.054687-4.929687 2.335937-5.917969 10.832032-4.703124 16.15625-16.875 12.582032-27.886718 1.8125 2.253906 3.292968 4.785156 4.359374 7.53125zm0 0" fill="#e43c90"/><path d="m368.003906 246.148438c3.320313-5.378907 5.238282-11.710938 5.238282-18.496094 0-9.46875-3.738282-18.054688-9.808594-24.386719 1.105468-3.421875 1.710937-7.070313 1.710937-10.863281 0-15.414063-9.898437-28.511719-23.683593-33.296875-2.375-11.449219-10.304688-20.863281-20.84375-25.300781l-3.355469 12.972656c-.503907.195312-1 .402344-1.496094.617187l-14.519531-8.546875c-.808594-.472656-1.691406-.734375-2.582032-.789062-1.609374-.097656-3.238281.480468-4.445312 1.679687l-9.269531 9.273438c-.164063.164062-.3125.335937-.453125.515625-.015625.019531-.03125.035156-.046875.058594-.019531.027343-.046875.058593-.066407.089843-.039062.050781-.078124.105469-.113281.160157-.003906.003906-.003906.003906-.003906.007812-.722656 1.054688-1.066406 2.308594-1 3.558594v.089844 7.128906c.015625.972656.269531 1.949218.792969 2.832031l5.4375 9.242187-13.824219 3.578126c-1.71875.445312-3.085937 1.636718-3.796875 3.171874-.179688.390626-.316406.796876-.40625 1.222657-.003906.023437-.007812.042969-.011719.066406-.050781.242187-.082031.492187-.101562.746094-.007813.125-.011719.25-.011719.378906v20.542969c0 2.636718 1.78125 4.941406 4.332031 5.601562l13.824219 3.574219-5.441406 9.242187c-.589844 1.003907-.847656 2.128907-.792969 3.226563v6.878906c-.066406 1.578125.511719 3.160157 1.6875 4.335938l9.269531 9.273437c1.867188 1.863282 4.753906 2.230469 7.023438.894532l14.53125-8.554688c.488281.214844.984375.414062 1.484375.609375l4.222656 16.328125c.660156 2.550781 2.964844 4.332031 5.601563 4.332031h13.113281c2.636719 0 4.9375-1.78125 5.597656-4.332031l4.226563-16.328125c.496093-.195313.992187-.398437 1.480468-.609375l14.53125 8.554688c.621094.367187 1.289063.605468 1.96875.71875zm-34.363281-37.15625c-11.355469 0-20.5625-9.207032-20.5625-20.5625 0-11.355469 9.207031-20.5625 20.5625-20.5625s20.5625 9.207031 20.5625 20.5625c0 11.355468-9.207031 20.5625-20.5625 20.5625zm0 0" fill="#e43d91"/><path d="m384.015625 145.492188c.003906-.046876 0-.089844 0-.136719.003906-.074219 0-.148438 0-.222657-.003906-.121093-.007813-.246093-.019531-.367187-.078125-1.378906-.632813-2.722656-1.660156-3.757813l-9.273438-9.273437c-1.867188-1.859375-4.753906-2.230469-7.023438-.886719l-14.527343 8.550782c-.492188-.214844-.988281-.417969-1.484375-.609376l-4.230469-16.332031c-.660156-2.550781-2.964844-4.332031-5.597656-4.332031h-13.113281c-2.632813 0-4.941407 1.78125-5.601563 4.332031l-4.226563 16.332031c-.496093.191407-.992187.394532-1.484374.609376l-14.53125-8.550782c-2.269532-1.34375-5.152344-.972656-7.023438.886719l-9.269531 9.273437c-1.027344 1.035157-1.582031 2.378907-1.664063 3.757813-.007812.121094-.011718.246094-.015625.367187 0 .074219-.003906.148438 0 .222657 0 .046875-.003906.089843-.003906.136719v7.125c.015625.976562.273437 1.949218.792969 2.835937l5.441406 9.242187-13.824219 3.578126c-2.554687.660156-4.332031 2.964843-4.332031 5.597656v20.53125c0 2.636718 1.78125 4.9375 4.332031 5.597656l13.828125 3.578125-5.441406 9.246094c-.539062.910156-.789062 1.917969-.789062 2.921875 0 .019531-.003907.039062-.003907.054687-.003906.050781 0 .097657 0 .148438-.003906.046875 0 .09375 0 .144531v6.835938c-.066406 1.578124.507813 3.160156 1.683594 4.335937l9.273437 9.269531c1.863282 1.863282 4.75 2.234375 7.023438.894532l14.53125-8.554688c.488281.214844.984375.414062 1.480469.609375l4.226562 16.328125c.660157 2.554688 2.960938 4.335938 5.597657 4.335938h13.113281c2.636719 0 4.9375-1.78125 5.597656-4.335938l4.226563-16.328125c.5-.195313.992187-.394531 1.484374-.609375l14.527344 8.554688c2.273438 1.339843 5.160156.96875 7.023438-.894532l9.273437-9.269531c1.175781-1.175781 1.753907-2.757813 1.6875-4.335937v-6.832032c0-.050781 0-.101562 0-.148437s0-.097657 0-.144531c0-.019532-.003906-.035157-.003906-.054688-.003906-1.003906-.253906-2.015625-.792969-2.925781l-5.441406-9.242188 13.828125-3.578125c2.550781-.660156 4.335937-2.964844 4.335937-5.601562v-20.527344c0-2.632812-1.78125-4.941406-4.332031-5.601562l-13.828125-3.578126 5.441406-9.242187c.519532-.882813.773438-1.859375.792969-2.832031 0-.050782 0-.097656 0-.148438v-6.980468zm-50.375 55.582031c-11.382813 0-20.644531-9.261719-20.644531-20.644531 0-11.382813 9.261718-20.644532 20.644531-20.644532 11.386719 0 20.648437 9.261719 20.648437 20.644532 0 11.382812-9.261718 20.644531-20.648437 20.644531zm0 0" fill="#e7ad27"/><path d="m333.640625 135.683594c-24.710937 0-44.746094 20.03125-44.746094 44.746094 0 24.714843 20.035157 44.75 44.746094 44.75 24.714844 0 44.75-20.035157 44.75-44.75-.003906-24.714844-20.035156-44.746094-44.75-44.746094zm0 65.308594c-11.355469 0-20.5625-9.207032-20.5625-20.5625 0-11.355469 9.207031-20.5625 20.5625-20.5625s20.5625 9.207031 20.5625 20.5625c0 11.355468-9.207031 20.5625-20.5625 20.5625zm0 0" fill="#fddd3a"/><path d="m344.640625 146.863281h-22c-3.78125 0-6.546875-3.570312-5.597656-7.230469l4.441406-17.167968c.660156-2.554688 2.964844-4.335938 5.601563-4.335938h13.113281c2.636719 0 4.9375 1.78125 5.597656 4.335938l4.441406 17.167968c.949219 3.660157-1.8125 7.230469-5.597656 7.230469zm0 0" fill="#fddd3a"/><path d="m322.640625 213.996094h22c3.785156 0 6.546875 3.570312 5.597656 7.234375l-4.441406 17.167969c-.660156 2.550781-2.960937 4.332031-5.597656 4.332031h-13.113281c-2.636719 0-4.941407-1.78125-5.601563-4.332031l-4.441406-17.167969c-.949219-3.664063 1.816406-7.234375 5.597656-7.234375zm0 0" fill="#fddd3a"/><path d="m367.207031 191.429688v-22c0-3.78125 3.570313-6.546876 7.234375-5.597657l17.167969 4.445313c2.550781.660156 4.332031 2.960937 4.332031 5.597656v13.113281c0 2.636719-1.78125 4.9375-4.332031 5.597657l-17.167969 4.445312c-3.664062.945312-7.234375-1.816406-7.234375-5.601562zm0 0" fill="#fddd3a"/><path d="m300.074219 169.429688v22.003906c0 3.78125-3.570313 6.542968-7.230469 5.597656l-17.167969-4.445312c-2.554687-.660157-4.335937-2.960938-4.335937-5.597657v-13.113281c0-2.636719 1.78125-4.9375 4.335937-5.597656l17.167969-4.445313c3.660156-.949219 7.230469 1.816407 7.230469 5.597657zm0 0" fill="#fddd3a"/><path d="m365.15625 164.472656-15.558594-15.558594c-2.671875-2.671874-2.105468-7.152343 1.15625-9.070312l15.28125-8.996094c2.273438-1.335937 5.160156-.96875 7.023438.894532l9.273437 9.273437c1.863281 1.863281 2.230469 4.75.894531 7.023437l-8.996093 15.28125c-1.921875 3.257813-6.402344 3.828126-9.074219 1.152344zm0 0" fill="#fddd3a"/><path d="m302.125 196.386719 15.558594 15.558593c2.675781 2.671876 2.105468 7.152344-1.15625 9.070313l-15.28125 9c-2.273438 1.335937-5.160156.96875-7.023438-.894531l-9.273437-9.273438c-1.863281-1.863281-2.230469-4.75-.894531-7.023437l8.996093-15.28125c1.921875-3.261719 6.402344-3.832031 9.074219-1.15625zm0 0" fill="#fddd3a"/><path d="m349.597656 211.945312 15.558594-15.558593c2.671875-2.675781 7.152344-2.105469 9.070312 1.15625l8.996094 15.28125c1.339844 2.273437.972656 5.160156-.894531 7.023437l-9.269531 9.273438c-1.863282 1.863281-4.753906 2.230468-7.023438.894531l-15.28125-9c-3.261718-1.917969-3.832031-6.398437-1.15625-9.070313zm0 0" fill="#fddd3a"/><path d="m317.683594 148.914062-15.558594 15.558594c-2.671875 2.675782-7.152344 2.105469-9.070312-1.15625l-8.996094-15.28125c-1.339844-2.269531-.96875-5.160156.894531-7.023437l9.269531-9.273438c1.867188-1.863281 4.753906-2.230469 7.023438-.890625l15.285156 8.996094c3.257812 1.917969 3.828125 6.398438 1.152344 9.070312zm0 0" fill="#fddd3a"/><path d="m333.640625 217.882812c-20.652344 0-37.453125-16.800781-37.453125-37.453124 0-20.652344 16.800781-37.453126 37.453125-37.453126s37.457031 16.800782 37.457031 37.453126c0 20.652343-16.804687 37.453124-37.457031 37.453124zm0-69.046874c-17.421875 0-31.59375 14.171874-31.59375 31.59375 0 17.421874 14.171875 31.597656 31.59375 31.597656s31.597656-14.175782 31.597656-31.597656c-.003906-17.421876-14.175781-31.59375-31.597656-31.59375zm0 0" fill="#fff235"/><path d="m333.640625 212.027344c-17.421875 0-31.59375-14.175782-31.59375-31.597656 0-17.421876 14.171875-31.59375 31.59375-31.59375s31.597656 14.171874 31.597656 31.59375c-.003906 17.421874-14.175781 31.597656-31.597656 31.597656zm0-52.242188c-11.382813 0-20.644531 9.261719-20.644531 20.644532 0 11.382812 9.261718 20.644531 20.644531 20.644531 11.386719 0 20.648437-9.261719 20.648437-20.644531 0-11.382813-9.261718-20.644532-20.648437-20.644532zm0 0" fill="#f6ca14"/></svg>