<svg id="Icon_Set" enable-background="new 0 0 64 64" height="512" viewBox="0 0 64 64" width="512" xmlns="http://www.w3.org/2000/svg"><path d="m55 36h-49c-.552 0-1-.448-1-1v-30c0-.552.448-1 1-1h49c.552 0 1 .448 1 1v30c0 .552-.448 1-1 1z" fill="#c2c2c2"/><path d="m55 36.5h-49c-.827 0-1.5-.673-1.5-1.5v-30c0-.827.673-1.5 1.5-1.5h49c.827 0 1.5.673 1.5 1.5v30c0 .827-.673 1.5-1.5 1.5zm-49-32c-.276 0-.5.225-.5.5v30c0 .275.224.5.5.5h49c.276 0 .5-.225.5-.5v-30c0-.275-.224-.5-.5-.5z" fill="#212a41"/><path d="m58 36h-49c-.552 0-1-.448-1-1v-30c0-.552.448-1 1-1h49c.552 0 1 .448 1 1v30c0 .552-.448 1-1 1z" fill="#e0e0e0"/><path d="m58 36.5h-49c-.827 0-1.5-.673-1.5-1.5v-30c0-.827.673-1.5 1.5-1.5h49c.827 0 1.5.673 1.5 1.5v30c0 .827-.673 1.5-1.5 1.5zm-49-32c-.276 0-.5.225-.5.5v30c0 .275.224.5.5.5h49c.276 0 .5-.225.5-.5v-30c0-.275-.224-.5-.5-.5z" fill="#212a41"/><path d="m16.091 12.5h12v15h-12z" fill="#f9ac2f"/><path d="m28.091 28h-12c-.276 0-.5-.224-.5-.5v-15c0-.276.224-.5.5-.5h12c.276 0 .5.224.5.5v15c0 .276-.224.5-.5.5zm-11.5-1h11v-14h-11z" fill="#212a41"/><path d="m33.091 12.5h18v3h-18z" fill="#b7c0d7"/><path d="m51.091 16h-18c-.276 0-.5-.224-.5-.5v-3c0-.276.224-.5.5-.5h18c.276 0 .5.224.5.5v3c0 .276-.224.5-.5.5zm-17.5-1h17v-2h-17z" fill="#212a41"/><path d="m33.091 18.5h18v3h-18z" fill="#b7c0d7"/><path d="m51.091 22h-18c-.276 0-.5-.224-.5-.5v-3c0-.276.224-.5.5-.5h18c.276 0 .5.224.5.5v3c0 .276-.224.5-.5.5zm-17.5-1h17v-2h-17z" fill="#212a41"/><path d="m33.091 24.5h18v3h-18z" fill="#b7c0d7"/><path d="m51.091 28h-18c-.276 0-.5-.224-.5-.5v-3c0-.276.224-.5.5-.5h18c.276 0 .5.224.5.5v3c0 .276-.224.5-.5.5zm-17.5-1h17v-2h-17z" fill="#212a41"/><path d="m55 60h-49c-.552 0-1-.448-1-1v-2c0-.552.448-1 1-1h49c.552 0 1 .448 1 1v2c0 .552-.448 1-1 1z" fill="#c2c2c2"/><path d="m55 60.5h-49c-.827 0-1.5-.673-1.5-1.5v-2c0-.827.673-1.5 1.5-1.5h49c.827 0 1.5.673 1.5 1.5v2c0 .827-.673 1.5-1.5 1.5zm-49-4c-.276 0-.5.225-.5.5v2c0 .275.224.5.5.5h49c.276 0 .5-.225.5-.5v-2c0-.275-.224-.5-.5-.5z" fill="#212a41"/><path d="m58 60h-49c-.552 0-1-.448-1-1v-2c0-.552.448-1 1-1h49c.552 0 1 .448 1 1v2c0 .552-.448 1-1 1z" fill="#e0e0e0"/><path d="m58 60.5h-49c-.827 0-1.5-.673-1.5-1.5v-2c0-.827.673-1.5 1.5-1.5h49c.827 0 1.5.673 1.5 1.5v2c0 .827-.673 1.5-1.5 1.5zm-49-4c-.276 0-.5.225-.5.5v2c0 .275.224.5.5.5h49c.276 0 .5-.225.5-.5v-2c0-.275-.224-.5-.5-.5z" fill="#212a41"/><circle cx="45" cy="44" fill="#e0c8a4" r="4"/><path d="m45 48.5c-2.481 0-4.5-2.019-4.5-4.5s2.019-4.5 4.5-4.5 4.5 2.019 4.5 4.5-2.019 4.5-4.5 4.5zm0-8c-1.93 0-3.5 1.57-3.5 3.5s1.57 3.5 3.5 3.5 3.5-1.57 3.5-3.5-1.57-3.5-3.5-3.5z" fill="#212a41"/><path d="m49 48h-8c-2.209 0-4 1.791-4 4v1.015h-2v3h5v3.985h10v-4h3v-4c0-2.209-1.791-4-4-4z" fill="#0079a8"/><g fill="#212a41"><path d="m50 60.5h-10c-.276 0-.5-.224-.5-.5v-3.485h-4.5c-.276 0-.5-.224-.5-.5v-3c0-.276.224-.5.5-.5h1.5v-.515c0-2.481 2.019-4.5 4.5-4.5h8c2.481 0 4.5 2.019 4.5 4.5v4c0 .276-.224.5-.5.5h-2.5v3.5c0 .276-.224.5-.5.5zm-9.5-1h9v-3.5c0-.276.224-.5.5-.5h2.5v-3.5c0-1.93-1.57-3.5-3.5-3.5h-8c-1.93 0-3.5 1.57-3.5 3.5v1.015c0 .276-.224.5-.5.5h-1.5v2h4.5c.276 0 .5.224.5.5z"/><path d="m40 56.515c-.276 0-.5-.224-.5-.5v-3c0-.276.224-.5.5-.5s.5.224.5.5v3c0 .276-.224.5-.5.5z"/><path d="m50 56.515c-.276 0-.5-.224-.5-.5v-3c0-.276.224-.5.5-.5s.5.224.5.5v3c0 .276-.224.5-.5.5z"/></g><circle cx="21" cy="44" fill="#e0c8a4" r="4"/><path d="m21 48.5c-2.481 0-4.5-2.019-4.5-4.5s2.019-4.5 4.5-4.5 4.5 2.019 4.5 4.5-2.019 4.5-4.5 4.5zm0-8c-1.93 0-3.5 1.57-3.5 3.5s1.57 3.5 3.5 3.5 3.5-1.57 3.5-3.5-1.57-3.5-3.5-3.5z" fill="#212a41"/><path d="m25 48h-8c-2.209 0-4 1.791-4 4v1.015h-2v3h5v3.985h10v-4h3v-4c0-2.209-1.791-4-4-4z" fill="#0079a8"/><path d="m26 60.5h-10c-.276 0-.5-.224-.5-.5v-3.485h-4.5c-.276 0-.5-.224-.5-.5v-3c0-.276.224-.5.5-.5h1.5v-.515c0-2.481 2.019-4.5 4.5-4.5h8c2.481 0 4.5 2.019 4.5 4.5v4c0 .276-.224.5-.5.5h-2.5v3.5c0 .276-.224.5-.5.5zm-9.5-1h9v-3.5c0-.276.224-.5.5-.5h2.5v-3.5c0-1.93-1.57-3.5-3.5-3.5h-8c-1.93 0-3.5 1.57-3.5 3.5v1.015c0 .276-.224.5-.5.5h-1.5v2h4.5c.276 0 .5.224.5.5z" fill="#212a41"/><path d="m16 56.515c-.276 0-.5-.224-.5-.5v-3c0-.276.224-.5.5-.5s.5.224.5.5v3c0 .276-.224.5-.5.5z" fill="#212a41"/><path d="m26 56.515c-.276 0-.5-.224-.5-.5v-3c0-.276.224-.5.5-.5s.5.224.5.5v3c0 .276-.224.5-.5.5z" fill="#212a41"/><path d="m57 34.5c-.276 0-.5-.224-.5-.5v-28c0-.276.224-.5.5-.5s.5.224.5.5v28c0 .276-.224.5-.5.5z" fill="#c2c2c2"/><path d="m10 34.5c-.276 0-.5-.224-.5-.5v-28c0-.276.224-.5.5-.5s.5.224.5.5v28c0 .276-.224.5-.5.5z" fill="#fefefe"/></svg>