<svg width="2816" height="522" viewBox="0 0 2816 522" fill="black" xmlns="http://www.w3.org/2000/svg">
<path fill-rule="evenodd" clip-rule="evenodd" d="M153.891 483L120.891 516H33L0 483V56.4375L33 23.4375H712.676L745.676 56.4375V127.629L744.341 128.964C753.245 127.749 762.357 127.148 771.656 127.148C814.922 127.148 852.943 138.994 883.129 164.331C913.982 139.076 952.546 127.148 996.457 127.148C1013.69 127.148 1030.13 129.011 1045.58 132.881V33L1078.58 0H1163.25L1196.25 33V136.498C1212.19 130.314 1229.46 127.148 1247.92 127.148C1271.11 127.148 1292.81 131.044 1311.89 139.736L1318.62 133.008H1398.3L1414.02 147.636C1436.74 133.974 1463.01 127.148 1492.05 127.148C1528.95 127.148 1562.12 137.315 1586.26 161.821C1590.94 158.321 1595.84 155.047 1600.96 152.001L1601.07 151.938C1629.65 135.083 1662.06 127.148 1697.23 127.148C1747.28 127.148 1790.79 142.726 1824.76 175.692C1826.53 177.399 1828.26 179.135 1829.94 180.901V56.4375L1862.94 23.4375H2029.35C2065.41 23.4375 2098.6 30.0441 2128.07 44.2965C2157.8 58.5821 2181.56 79.4772 2198.18 106.994C2203.8 116.227 2208.43 125.855 2212.08 135.841C2231.69 129.958 2252.52 127.148 2274.36 127.148C2305.5 127.148 2334.11 132.678 2358.9 144.954L2370.84 133.008H2450.82L2460.98 142.557V33L2493.98 0H2578.65L2611.65 33V190.88L2651.1 144.602L2676.21 133.008H2777.87L2802.81 187.625L2704.81 300.661L2815.2 464.565L2787.83 516H2690.57L2662.78 500.8L2611.65 420.984V483L2578.65 516H2493.98L2474.75 496.764L2455.51 516H2328.86L2310.21 504.607C2289.56 516.154 2266.04 521.859 2240.38 521.859C2202.51 521.859 2168.65 510.7 2141.29 486.727L2141.17 486.623C2113.71 462.332 2099.57 430.645 2099.57 393.938C2099.57 380.385 2101.21 367.502 2104.54 355.435C2081.19 362.451 2055.47 365.707 2027.88 365.707H1983.83V483L1950.83 516H1862.94L1829.94 483V468.789C1795.78 504.834 1750.55 521.859 1697.81 521.859C1664.38 521.859 1633.95 515.018 1607.4 500.847L1592.25 516H1507.58L1474.58 483V280.266C1474.58 273.523 1473.83 269.149 1473.05 266.552C1472.66 265.237 1472.31 264.548 1472.14 264.269C1471.88 264.124 1471.32 263.855 1470.33 263.54C1467.91 262.779 1463.66 261.996 1456.9 261.996C1447.58 261.996 1441.33 264.35 1436.29 269.871V483L1403.29 516H1267.84L1234.84 483V282.316C1234.84 275.473 1234.09 270.843 1233.23 267.908C1232.82 266.485 1232.41 265.577 1232.13 265.052C1231.99 264.79 1231.88 264.619 1231.81 264.519C1231.74 264.42 1231.7 264.379 1231.7 264.378L1231.66 264.334C1231.03 263.919 1227.5 261.996 1217.16 261.996C1206.69 261.996 1200.53 264.365 1196.25 268.451V483L1163.25 516H1078.58L1070 507.418C1047.31 517.167 1022.85 521.859 997.043 521.859C956.464 521.859 920.397 511.794 890.686 490.528C883.299 495.479 875.427 499.901 867.101 503.801L866.879 503.904C840.442 516.051 811.65 521.859 781.031 521.859C727.226 521.859 680.658 505.081 644.342 469.734L644.263 469.657C632.531 458.161 622.807 445.498 615.012 431.787V483L582.012 516H494.121L461.121 483V160.629H321.27V483L288.27 516H200.379L167.379 483V160.629H153.891V483ZM120.891 127.629V483H33V56.4375H712.676V127.629H582.012V483H494.121V127.629H288.27V483H200.379V127.629H120.891ZM615.012 160.629V219.241C627.408 195.584 644.022 175.856 664.862 160.629H615.012ZM865.083 467.642C865.67 467.299 866.253 466.952 866.833 466.603C866.987 466.509 867.142 466.415 867.296 466.322C876.266 460.86 884.297 454.583 891.389 447.489C899.131 455.693 907.686 462.678 917.055 468.442C939.18 482.053 965.843 488.859 997.043 488.859C1014.32 488.859 1030.5 486.376 1045.58 481.409C1051.65 479.411 1057.54 477.012 1063.25 474.211C1068.68 471.527 1073.78 468.558 1078.58 465.307V483H1163.25V257.707C1174.38 238.566 1192.35 228.996 1217.16 228.996C1235.32 228.996 1248.31 233.391 1256.12 242.18C1263.93 250.773 1267.84 264.152 1267.84 282.316V483H1403.29V259.465C1415.2 239.152 1433.07 228.996 1456.9 228.996C1475.06 228.996 1488.05 233.098 1495.86 241.301C1503.68 249.309 1507.58 262.297 1507.58 280.266V483H1592.25V449.038C1602.13 458.796 1613.13 466.761 1625.25 472.932C1646.11 483.55 1670.3 488.859 1697.81 488.859C1743.52 488.859 1779.94 474.211 1807.09 444.914C1816.25 434.959 1823.87 423.914 1829.94 411.778C1841.86 387.961 1847.81 359.944 1847.81 327.727L1847.23 306.047C1845.43 280.234 1839.67 257.517 1829.94 237.895C1822.74 223.369 1813.36 210.539 1801.82 199.406C1774.86 173.234 1740 160.148 1697.23 160.148C1667.15 160.148 1640.68 166.887 1617.83 180.363C1613.62 182.869 1609.59 185.566 1605.74 188.456C1596.38 195.488 1588.1 203.659 1580.9 212.969C1577.19 204.12 1572.58 196.376 1567.05 189.738C1565.43 187.786 1563.72 185.93 1561.93 184.171C1545.62 168.156 1522.32 160.148 1492.05 160.148C1469.3 160.148 1449.3 165.201 1432.06 175.308C1420.44 182.119 1410.06 191.226 1400.94 202.629L1398.3 166.008H1318.62V183.015C1310.17 175.487 1300.15 169.818 1288.56 166.008C1287.82 165.765 1287.07 165.53 1286.32 165.303C1274.98 161.867 1262.18 160.148 1247.92 160.148C1228.89 160.148 1211.67 164.374 1196.25 172.824C1184.13 179.466 1173.13 188.717 1163.25 200.578V33H1078.58V183.382C1068.68 176.401 1057.68 170.993 1045.58 167.158C1030.84 162.485 1014.46 160.148 996.457 160.148C960.131 160.148 930.019 169.5 906.12 188.203C900.208 192.83 894.675 198.029 889.523 203.801C887.153 206.457 884.89 209.195 882.736 212.015C879.989 208.218 877.044 204.601 873.902 201.164C869.484 196.294 864.772 191.857 859.765 187.854C836.662 169.384 807.293 160.148 771.656 160.148C742.75 160.148 716.969 166.984 694.312 180.656C671.852 194.133 654.469 213.469 642.164 238.664C629.859 263.664 623.707 292.082 623.707 323.918V332.121C623.707 379.582 638.258 417.57 667.359 446.086C696.656 474.602 734.547 488.859 781.031 488.859C807.398 488.859 831.422 483.879 853.102 473.918C857.261 471.97 861.254 469.878 865.083 467.642ZM858.749 389.001C858.366 387.693 857.996 386.373 857.639 385.043C857.188 383.358 856.758 381.655 856.35 379.934C855.154 374.892 854.143 369.695 853.318 364.344C852.699 360.331 852.184 356.23 851.773 352.043H709.547C711.197 364.537 714.839 375.537 720.472 385.043C724.173 391.289 728.735 396.891 734.156 401.848C748.023 414.348 765.504 420.598 786.598 420.598C803.404 420.598 818.317 417.461 831.338 411.187C833.816 409.992 836.226 408.684 838.568 407.263C846.104 402.687 852.93 396.933 859.046 390.002C858.946 389.669 858.847 389.335 858.749 389.001ZM807.394 385.043C801.242 386.734 794.36 387.598 786.598 387.598C779.84 387.598 774.191 386.688 769.367 385.043H807.394ZM1649.18 253.02C1660.51 236.809 1676.52 228.703 1697.23 228.703C1718.12 228.703 1734.34 236.809 1745.86 253.02C1757.38 269.23 1763.14 292.082 1763.14 321.574C1763.14 356.145 1757.38 381.34 1745.86 397.16C1734.34 412.785 1718.32 420.598 1697.81 420.598C1676.72 420.598 1660.51 412.688 1649.18 396.867C1637.85 380.852 1632.19 357.805 1632.19 327.727C1632.19 293.938 1637.85 269.035 1649.18 253.02ZM1676.07 377.736C1680.61 384.035 1686.37 387.598 1697.81 387.598C1708.48 387.598 1714.35 384.252 1719.24 377.659C1724.53 370.342 1730.14 353.787 1730.14 321.574C1730.14 295.795 1725.02 280.659 1718.96 272.139C1713.99 265.145 1708.08 261.703 1697.23 261.703C1686.7 261.703 1681.05 265.025 1676.23 271.922L1676.12 272.076C1670.68 279.77 1665.19 296.368 1665.19 327.727C1665.19 354.305 1670.3 369.527 1676.07 377.736ZM1078.58 284.074H1048.9C1048.72 276.761 1047.62 270.069 1045.58 263.998C1043.05 256.449 1039.08 249.86 1033.66 244.23C1023.9 233.879 1011.01 228.703 994.992 228.703C975.266 228.703 960.324 235.93 950.168 250.383C946.28 255.948 943.151 262.882 940.78 271.186C937.245 283.569 935.397 298.999 935.238 317.473C935.23 318.345 935.227 319.224 935.227 320.109V328.898C935.227 337.209 935.55 344.924 936.197 352.043C936.427 354.582 936.699 357.046 937.012 359.433C939.265 376.623 943.65 389.882 950.168 399.211C960.129 413.469 975.266 420.598 995.578 420.598C1011.2 420.598 1023.9 416.301 1033.66 407.707C1039.08 402.944 1043.05 397.311 1045.58 390.808C1047.62 385.578 1048.72 379.785 1048.9 373.43H1078.58V284.074ZM1045.58 343.656V313.836L1015.91 284.86C1015.68 275.258 1012.99 270.339 1009.88 267.103L1009.66 266.876C1006.94 263.994 1003.18 261.703 994.992 261.703C984.587 261.703 980.378 264.806 977.199 269.313C973.218 275.037 968.227 289.733 968.227 320.109V328.898C968.227 359.823 973.268 374.654 977.22 380.312C979.906 384.156 983.966 387.598 995.578 387.598C1004.87 387.598 1009.28 385.204 1011.86 382.933C1014.04 381.018 1015.74 378.602 1015.91 372.526L1045.58 343.656ZM828.199 294.328V287.59C828 278.029 826.582 269.586 823.945 262.259C823.833 261.947 823.718 261.636 823.601 261.328C821.084 254.686 817.539 248.987 812.965 244.23C803.199 233.879 789.332 228.703 771.363 228.703C754.566 228.703 740.895 234.367 730.348 245.695C726.276 250.151 722.779 255.362 719.856 261.328C715.346 270.531 712.203 281.531 710.426 294.328H828.199ZM1231.77 264.412C1231.77 264.412 1231.76 264.402 1231.73 264.38C1231.76 264.401 1231.77 264.412 1231.77 264.412ZM1472.33 264.383C1472.33 264.384 1472.31 264.374 1472.28 264.351C1472.31 264.371 1472.33 264.382 1472.33 264.383ZM1472.05 264.119C1472.05 264.119 1472.06 264.13 1472.07 264.156C1472.05 264.132 1472.05 264.119 1472.05 264.119ZM1862.94 483H1950.83V332.707H2027.88C2069.08 332.707 2102.95 324.742 2129.51 308.811C2135.57 305.179 2141.24 301.132 2146.54 296.672C2147.49 295.865 2148.43 295.049 2149.36 294.223C2150.21 293.457 2151.06 292.683 2151.89 291.901C2151.91 291.874 2151.94 291.848 2151.97 291.822C2154.76 289.182 2157.4 286.448 2159.88 283.618C2165.93 276.719 2171.06 269.253 2175.26 261.223H2224.27C2224.27 261.063 2224.27 260.904 2224.27 260.746C2224.37 249.058 2228.38 239.842 2236.28 233.098C2244.48 226.262 2255.71 222.844 2269.97 222.844C2286.18 222.844 2298 227.238 2305.42 236.027C2310.26 241.616 2313.57 248.39 2315.33 256.348C2316.34 260.905 2316.84 265.85 2316.84 271.184V289.348H2277.88C2237.35 289.516 2204.99 296.274 2180.83 309.622C2176.93 311.774 2173.25 314.098 2169.77 316.594C2168.43 317.566 2167.13 318.56 2165.86 319.578C2165.85 319.582 2165.85 319.586 2165.84 319.59C2160.38 323.97 2155.59 328.774 2151.48 334.002C2138.87 350.01 2132.57 369.988 2132.57 393.938C2132.57 421.281 2142.72 443.938 2163.04 461.906C2183.54 479.875 2209.32 488.859 2240.38 488.859C2259.5 488.859 2276.54 484.977 2291.49 477.213C2302.18 471.657 2311.81 464.114 2320.36 454.582C2322.12 465.91 2324.95 475.383 2328.86 483H2455.51V275.578C2457.07 272.193 2458.89 269.073 2460.98 266.216C2468.51 255.949 2479.51 249.095 2493.98 245.657V483H2578.65V386.32L2609.12 355.852L2690.57 483H2787.83L2663.32 298.137L2777.87 166.008H2676.21L2595.06 261.223L2578.65 282.316V33H2493.98V165.743C2490.6 167.132 2487.33 168.78 2484.18 170.686C2475.58 175.883 2467.85 183.002 2460.98 192.043C2458.24 195.656 2455.64 199.575 2453.17 203.801L2450.82 166.008H2370.84V192.951C2369.67 191.857 2368.47 190.786 2367.23 189.738C2358.6 182.281 2348.8 176.233 2337.84 171.595C2319.82 163.964 2298.66 160.148 2274.36 160.148C2254.9 160.148 2236.89 162.708 2220.32 167.827C2214.94 169.49 2209.71 171.422 2204.64 173.625C2199.02 176.01 2193.75 178.646 2188.82 181.533C2187.65 169.762 2185.18 158.595 2181.4 148.033C2178.41 139.681 2174.6 131.708 2169.97 124.113C2156.89 102.434 2138.14 85.7344 2113.72 74.0156C2089.5 62.2969 2061.38 56.4375 2029.35 56.4375H1862.94V483ZM2261.18 256.772C2266.28 256.527 2271.45 256.389 2276.7 256.354C2275.09 256.068 2272.89 255.844 2269.97 255.844C2265.93 255.844 2263.11 256.264 2261.18 256.772ZM2060.26 220.62L2060.45 220.445C2064.11 217.196 2067.83 211.504 2067.83 198.234C2067.83 184.254 2063.95 176.04 2058.5 170.336C2053.59 165.189 2045.81 160.944 2031.08 160.629H1983.83V228.516H2029.35C2047.86 228.516 2056.36 224.142 2060.26 220.62ZM2029.35 261.516C2052.59 261.516 2070.27 256.047 2082.38 245.109C2094.68 234.172 2100.83 218.547 2100.83 198.234C2100.83 177.336 2094.68 160.441 2082.38 147.551C2070.07 134.66 2053.08 128.02 2031.4 127.629H1950.83V261.516H2029.35ZM2278 386.725C2280.44 385.395 2282.34 384.033 2283.84 382.666V371.866C2266.58 372.024 2258.05 375.199 2254.47 377.523C2252.94 378.518 2252.29 379.349 2251.9 380.04C2251.47 380.781 2250.77 382.357 2250.43 385.414L2250.25 388.427C2250.27 388.753 2250.31 388.972 2250.33 389.097C2250.34 389.144 2250.35 389.181 2250.36 389.209C2250.41 389.276 2250.52 389.403 2250.72 389.586L2250.73 389.589C2250.82 389.677 2251.12 389.952 2252.08 390.273C2253.15 390.636 2255.27 391.113 2258.84 391.113C2266.24 391.113 2272.45 389.562 2278 386.725ZM2217.23 387.785L2217.53 382.805C2220.23 353.823 2242.34 339.176 2283.84 338.864C2284.29 338.861 2284.75 338.859 2285.2 338.859H2316.84V393.352C2311.77 402.727 2303.95 410.246 2293.41 415.91C2282.86 421.379 2271.34 424.113 2258.84 424.113C2245.95 424.113 2235.79 420.695 2228.37 413.859C2220.95 407.023 2217.23 398.332 2217.23 387.785Z" fill="black"/>
</svg>
