<?xml version="1.0" encoding="UTF-8"?>
<svg xmlns="http://www.w3.org/2000/svg" xmlns:xlink="http://www.w3.org/1999/xlink" width="300pt" height="299.999988pt" viewBox="0 0 300 299.999988" version="1.2">
<defs>
<clipPath id="clip1">
  <path d="M 21.316406 19.1875 L 289 19.1875 L 289 292.636719 L 21.316406 292.636719 Z M 21.316406 19.1875 "/>
</clipPath>
<clipPath id="clip2">
  <path d="M 8 7.636719 L 299.839844 7.636719 L 299.839844 270 L 8 270 Z M 8 7.636719 "/>
</clipPath>
<clipPath id="clip3">
  <path d="M 8.503906 11 L 295 11 L 295 292.636719 L 8.503906 292.636719 Z M 8.503906 11 "/>
</clipPath>
</defs>
<g id="surface1">
<g clip-path="url(#clip1)" clip-rule="nonzero">
<path style=" stroke:none;fill-rule:nonzero;fill:rgb(79.60968%,92.939758%,86.669922%);fill-opacity:1;" d="M 269.382812 225.5 L 288.582031 225.5 L 288.582031 233.203125 L 265.757812 233.203125 C 262.613281 239.46875 259.128906 245.417969 255.296875 250.960938 C 254.980469 251.421875 254.660156 251.878906 254.335938 252.335938 C 254.078125 252.703125 253.8125 253.066406 253.550781 253.429688 C 253.214844 253.894531 252.871094 254.355469 252.527344 254.816406 C 252.289062 255.136719 252.050781 255.460938 251.808594 255.777344 C 251.25 256.507812 250.6875 257.234375 250.117188 257.945312 C 242.109375 267.964844 232.777344 276.308594 222.058594 282.335938 C 222.019531 282.359375 221.980469 282.382812 221.9375 282.40625 C 220.921875 282.976562 219.898438 283.527344 218.855469 284.054688 C 218.855469 284.054688 218.851562 284.058594 218.847656 284.058594 C 207.613281 289.746094 194.917969 292.941406 180.695312 292.941406 C 138.929688 292.941406 94.636719 268.15625 63.429688 233.203125 L 24.984375 233.203125 L 24.984375 225.5 L 56.886719 225.5 C 35.457031 198.871094 21.667969 167.34375 21.667969 136.675781 C 21.667969 61.140625 76.695312 19.40625 152.082031 19.40625 C 227.46875 19.40625 288.582031 52.132812 288.582031 127.671875 C 288.582031 160.4375 282.460938 195.875 269.382812 225.5 "/>
</g>
<g clip-path="url(#clip2)" clip-rule="nonzero">
<path style=" stroke:none;fill-rule:nonzero;fill:rgb(36.859131%,78.819275%,79.998779%);fill-opacity:1;" d="M 230.265625 73.84375 L 230.265625 124.449219 L 234.550781 124.449219 L 234.550781 134.035156 L 235.191406 134.015625 L 235.191406 124.449219 L 299.839844 124.449219 L 299.839844 73.84375 Z M 97.414062 44.851562 C 97.414062 45.121094 97.636719 45.34375 97.90625 45.34375 C 98.179688 45.34375 98.398438 45.121094 98.398438 44.851562 C 98.398438 44.582031 98.179688 44.359375 97.90625 44.359375 C 97.636719 44.359375 97.414062 44.582031 97.414062 44.851562 Z M 90.476562 55.128906 L 90.476562 50.316406 C 90.476562 49.554688 91.09375 48.933594 91.851562 48.933594 L 96.070312 48.933594 L 96.894531 47.386719 C 96.945312 47.289062 97.019531 47.199219 97.097656 47.121094 C 96.167969 46.785156 95.492188 45.898438 95.492188 44.851562 C 95.492188 43.515625 96.578125 42.433594 97.90625 42.433594 C 99.238281 42.433594 100.320312 43.515625 100.320312 44.851562 C 100.320312 45.898438 99.648438 46.785156 98.714844 47.117188 C 98.796875 47.199219 98.867188 47.289062 98.917969 47.386719 L 99.742188 48.933594 L 103.960938 48.933594 C 104.71875 48.933594 105.335938 49.554688 105.335938 50.316406 L 105.335938 55.128906 C 105.335938 55.890625 104.71875 56.507812 103.960938 56.507812 L 91.851562 56.507812 C 91.09375 56.507812 90.476562 55.890625 90.476562 55.128906 Z M 116.351562 67.472656 L 52.792969 67.472656 L 52.792969 20.625 L 50.871094 20.625 L 50.871094 69.398438 L 116.351562 69.398438 Z M 79.027344 114.933594 L 73.304688 114.933594 L 73.304688 116.859375 L 79.027344 116.859375 Z M 73.304688 114.375 L 86.117188 114.375 L 86.117188 112.449219 L 73.304688 112.449219 Z M 73.304688 111.894531 L 82.273438 111.894531 L 82.273438 109.96875 L 73.304688 109.96875 Z M 73.304688 105.273438 L 73.304688 107.199219 L 79.027344 107.199219 L 79.027344 105.273438 Z M 86.117188 102.792969 L 73.304688 102.792969 L 73.304688 104.714844 L 86.117188 104.714844 Z M 73.304688 100.308594 L 73.304688 102.234375 L 82.273438 102.234375 L 82.273438 100.308594 Z M 31.84375 109.5625 L 8.140625 109.5625 L 8.140625 116.363281 L 31.84375 116.363281 Z M 40.683594 99.675781 L 8.140625 99.675781 L 8.140625 106.480469 L 40.683594 106.480469 Z M 110.335938 225.5 L 123.246094 225.5 L 116.746094 211.507812 Z M 219.28125 142.925781 C 215.914062 135.570312 208.960938 130.148438 200.511719 129.066406 C 200.320312 129.042969 200.128906 129.019531 199.9375 128.996094 L 199.707031 123.753906 C 199.707031 123.753906 199.910156 121.957031 198.667969 121.316406 C 198.667969 121.316406 193.332031 122.984375 188.25 123.753906 C 183.167969 124.523438 180.648438 122.171875 180.648438 122.171875 C 180.648438 122.171875 178.386719 122.34375 178.257812 123.453125 C 178.128906 124.566406 179.496094 125.46875 179.046875 126.449219 C 178.917969 126.734375 178.664062 127.316406 178.367188 127.988281 C 170.066406 128.449219 162.519531 130.199219 157.875 134.253906 L 149.601562 140.683594 L 153.179688 153.199219 L 163.300781 188.621094 L 154.425781 188.621094 C 154.921875 190.457031 155.453125 192.203125 155.964844 193.785156 C 157.695312 199.117188 157.15625 204.925781 154.488281 209.855469 L 146.019531 225.5 L 213.113281 225.5 C 212.199219 210.21875 213.089844 194.886719 215.757812 179.8125 C 216.554688 180.578125 217.390625 181.3125 218.277344 182.003906 L 230.542969 196.851562 C 234.371094 201.488281 241.128906 202.375 246.023438 198.878906 C 251.238281 195.152344 252.398438 187.871094 248.589844 182.707031 Z M 115.589844 167.117188 C 111.402344 170.21875 109.914062 175.8125 112.011719 180.585938 C 114.210938 185.605469 119.660156 188.195312 124.824219 186.9375 L 118.492188 164.863281 Z M 141.851562 233.203125 L 139.203125 238.101562 C 161.570312 238.101562 182.230469 250.074219 193.386719 269.5 L 193.527344 269.742188 L 214.8125 244.585938 L 213.71875 233.203125 Z M 34.539062 190.089844 L 56.519531 211.507812 L 57.4375 211.507812 L 33.785156 188.46875 C 34.035156 189.007812 34.28125 189.550781 34.539062 190.089844 Z M 55.585938 180.304688 L 53.332031 186.550781 L 54.523438 176.53125 L 47.984375 165.964844 L 43.976562 174.496094 L 45.886719 162.816406 L 29.128906 143.941406 L 29.160156 141.671875 L 28.519531 141.671875 L 28.488281 144.183594 L 45.207031 163.015625 L 42.605469 178.933594 L 48.0625 167.308594 L 53.859375 176.675781 L 52.035156 192.03125 L 55.539062 182.324219 L 63.949219 209.574219 L 64.703125 211.507812 L 65.386719 211.507812 L 64.554688 209.359375 Z M 91.878906 89.050781 L 91.878906 89.789062 L 92.472656 90.117188 L 101.785156 84.683594 L 99.507812 115.53125 L 91.878906 123.125 L 91.878906 123.773438 L 98.371094 120.296875 L 97.707031 167.785156 L 81.476562 176.898438 L 97.535156 173.589844 L 96.347656 188.886719 L 83.566406 191.210938 L 79.007812 211.507812 L 79.664062 211.507812 L 84.101562 191.765625 L 96.949219 189.429688 L 98.242188 172.789062 L 85.390625 175.4375 L 98.34375 168.164062 L 99.027344 119.21875 L 94.015625 121.90625 L 100.132812 115.816406 L 102.511719 83.515625 L 92.464844 89.375 Z M 72.300781 173.054688 L 61.699219 146.507812 L 63.5 141.671875 L 62.816406 141.671875 L 61.011719 146.515625 L 70.601562 170.539062 L 61.128906 161.433594 L 59.679688 175.160156 L 70.917969 198.0625 L 71.5 211.507812 L 72.140625 211.507812 L 71.554688 197.96875 L 71.554688 197.902344 L 60.332031 175.046875 L 61.628906 162.800781 Z M 64.175781 141.671875 L 72.292969 154.746094 L 68.699219 141.671875 L 68.035156 141.671875 L 70.503906 150.648438 L 64.933594 141.671875 Z M 234.550781 219.621094 C 234.765625 219.621094 234.976562 219.621094 235.191406 219.621094 L 235.191406 204.074219 L 234.550781 204.054688 Z M 235.191406 37.035156 C 234.976562 36.921875 234.765625 36.8125 234.550781 36.699219 L 234.550781 73.84375 L 235.191406 73.84375 Z M 228.746094 219.652344 C 228.957031 219.648438 229.171875 219.648438 229.386719 219.648438 L 229.386719 203.882812 L 228.746094 203.859375 Z M 228.746094 134.230469 L 229.386719 134.207031 L 229.386719 58.242188 L 231.921875 58.242188 L 231.921875 7.636719 L 160.441406 7.636719 L 160.441406 58.242188 L 228.746094 58.242188 Z M 141 19.71875 C 140.785156 19.730469 140.574219 19.742188 140.359375 19.757812 L 140.359375 130.699219 L 141 130.675781 Z M 141 189.160156 L 140.359375 189.164062 L 140.359375 218.71875 C 140.574219 218.71875 140.789062 218.71875 141 218.722656 Z M 134.554688 130.898438 L 135.195312 130.875 L 135.195312 20.132812 C 134.980469 20.152344 134.765625 20.171875 134.554688 20.1875 Z M 134.554688 189.183594 L 134.554688 218.703125 C 134.765625 218.703125 134.980469 218.703125 135.195312 218.707031 L 135.195312 189.179688 L 134.832031 189.183594 C 134.738281 189.183594 134.644531 189.183594 134.554688 189.183594 Z M 278.375 200.722656 C 278.4375 200.511719 278.5 200.304688 278.558594 200.097656 L 275.882812 199.742188 L 278.753906 199.433594 C 278.820312 199.214844 278.878906 198.992188 278.941406 198.769531 L 270.484375 199.671875 Z M 280.609375 165.453125 L 279.183594 155.3125 L 267.914062 167.054688 L 267.914062 179.382812 L 264.550781 170.402344 L 260.496094 174.359375 L 263.125 192.492188 L 257.011719 184.140625 L 252.332031 192.882812 L 256.722656 210.878906 L 254.175781 219.96875 C 254.382812 220.027344 254.585938 220.097656 254.78125 220.171875 L 257.386719 210.886719 L 253.011719 192.96875 L 257.097656 185.34375 L 264.128906 194.949219 L 261.175781 174.589844 L 264.292969 171.546875 L 268.554688 182.917969 L 268.554688 167.3125 L 278.734375 156.707031 L 280.433594 168.824219 L 281.070312 168.796875 L 281.863281 153.964844 L 287.753906 148.691406 C 287.777344 148.382812 287.800781 148.074219 287.820312 147.769531 L 281.238281 153.664062 Z M 258.96875 224 C 259.082031 224.222656 259.179688 224.449219 259.269531 224.679688 L 269.949219 210.230469 L 275.082031 211.003906 C 275.152344 210.796875 275.226562 210.589844 275.296875 210.386719 L 269.664062 209.539062 Z M 36.464844 181.261719 C 35.128906 179.78125 32.199219 178.613281 29.386719 177.78125 C 29.484375 178.03125 29.570312 178.289062 29.664062 178.539062 C 31.789062 179.191406 33.914062 180.027344 35.25 181.027344 L 30.382812 180.410156 C 30.472656 180.640625 30.558594 180.867188 30.648438 181.09375 L 37.042969 181.902344 Z M 30.148438 163.839844 L 25.285156 164.558594 C 25.230469 164.347656 25.183594 164.136719 25.132812 163.929688 L 26.175781 163.773438 C 25.828125 163.734375 25.453125 163.699219 25.066406 163.65625 C 25.011719 163.4375 24.960938 163.214844 24.902344 162.996094 C 26.382812 163.136719 27.640625 163.296875 28.417969 163.464844 L 30.148438 163.839844 "/>
</g>
<path style=" stroke:none;fill-rule:nonzero;fill:rgb(97.648621%,82.348633%,56.858826%);fill-opacity:1;" d="M 238.003906 100.699219 L 233.5625 100.699219 L 233.5625 101.34375 L 238.003906 101.34375 Z M 245.09375 98.21875 L 233.5625 98.21875 L 233.5625 98.859375 L 245.09375 98.859375 Z M 241.25 95.738281 L 233.5625 95.738281 L 233.5625 96.378906 L 241.25 96.378906 Z M 282.609375 81.371094 L 282.609375 82.546875 L 276.621094 82.546875 L 273.371094 85.804688 C 270.554688 83.816406 267.132812 82.636719 263.457031 82.636719 C 263.175781 82.636719 262.890625 82.644531 262.609375 82.65625 C 262.464844 82.664062 262.324219 82.675781 262.179688 82.6875 C 262.046875 82.695312 261.914062 82.707031 261.785156 82.71875 C 261.59375 82.738281 261.40625 82.761719 261.214844 82.789062 C 261.132812 82.796875 261.054688 82.804688 260.972656 82.816406 C 260.753906 82.847656 260.535156 82.886719 260.320312 82.925781 C 260.285156 82.933594 260.25 82.9375 260.210938 82.945312 L 260.214844 82.945312 L 263.457031 99.964844 L 280.75 99.964844 C 280.75 94.371094 278.050781 89.367188 273.894531 86.191406 L 276.886719 83.1875 L 282.609375 83.1875 L 282.609375 84.367188 L 290.296875 84.367188 L 290.296875 81.371094 Z M 115.710938 68.113281 L 52.152344 68.113281 L 52.152344 21.265625 L 51.511719 21.265625 L 51.511719 68.753906 L 115.710938 68.753906 Z M 91.851562 49.578125 C 91.449219 49.578125 91.117188 49.90625 91.117188 50.316406 L 91.117188 55.128906 C 91.117188 55.539062 91.449219 55.867188 91.851562 55.867188 L 103.960938 55.867188 C 104.367188 55.867188 104.695312 55.539062 104.695312 55.128906 L 104.695312 50.316406 C 104.695312 49.90625 104.367188 49.578125 103.960938 49.578125 L 99.359375 49.578125 L 98.355469 47.691406 C 98.164062 47.332031 97.648438 47.332031 97.460938 47.691406 L 96.453125 49.578125 Z M 96.132812 44.851562 C 96.132812 45.832031 96.929688 46.625 97.90625 46.625 C 98.882812 46.625 99.679688 45.832031 99.679688 44.851562 C 99.679688 43.875 98.882812 43.074219 97.90625 43.074219 C 96.929688 43.074219 96.132812 43.875 96.132812 44.851562 Z M 119.71875 74.023438 L 44.59375 74.023438 L 44.59375 15.871094 L 119.71875 15.871094 Z M 97.90625 45.984375 C 98.53125 45.984375 99.039062 45.476562 99.039062 44.851562 C 99.039062 44.226562 98.53125 43.71875 97.90625 43.71875 C 97.28125 43.71875 96.773438 44.226562 96.773438 44.851562 C 96.773438 45.476562 97.28125 45.984375 97.90625 45.984375 Z M 202.550781 17.996094 L 198.109375 17.996094 L 198.109375 18.636719 L 202.550781 18.636719 Z M 209.640625 15.511719 L 198.109375 15.511719 L 198.109375 16.15625 L 209.640625 16.15625 Z M 205.796875 13.035156 L 198.109375 13.035156 L 198.109375 13.675781 L 205.796875 13.675781 Z M 174.878906 17.996094 L 170.4375 17.996094 L 170.4375 18.636719 L 174.878906 18.636719 Z M 181.964844 15.511719 L 170.4375 15.511719 L 170.4375 16.15625 L 181.964844 16.15625 Z M 178.121094 13.035156 L 170.4375 13.035156 L 170.4375 13.675781 L 178.121094 13.675781 Z M 207.332031 23.28125 L 198.109375 23.28125 L 198.109375 52.257812 L 207.332031 52.257812 Z M 170.4375 52.257812 L 179.660156 52.257812 L 179.660156 37.636719 L 170.4375 37.636719 Z M 5.773438 136.132812 L 7.695312 136.132812 L 7.695312 89.792969 L 5.773438 89.792969 Z M 8.140625 136.132812 L 46.316406 136.132812 L 46.316406 129.332031 L 8.140625 129.332031 Z M 24.667969 89.792969 L 8.140625 89.792969 L 8.140625 96.597656 L 24.667969 96.597656 Z M 73.304688 136.175781 L 79.027344 136.175781 L 79.027344 134.25 L 73.304688 134.25 Z M 73.304688 133.691406 L 86.117188 133.691406 L 86.117188 131.769531 L 73.304688 131.769531 Z M 73.304688 131.214844 L 82.273438 131.214844 L 82.273438 129.289062 L 73.304688 129.289062 Z M 73.304688 97.539062 L 79.027344 97.539062 L 79.027344 95.613281 L 73.304688 95.613281 Z M 73.304688 95.058594 L 86.117188 95.058594 L 86.117188 93.132812 L 73.304688 93.132812 Z M 82.273438 92.578125 L 82.273438 90.652344 L 73.304688 90.652344 L 73.304688 92.578125 Z M 112.875 145.285156 L 109.59375 149 L 107.617188 151.308594 C 106.90625 152.183594 106.671875 153.414062 107.132812 154.539062 L 112.011719 180.585938 L 113.191406 181.558594 C 116.207031 184.039062 120.492188 183.75 123.175781 181.183594 L 117.367188 160.945312 L 120.382812 161.113281 C 121.128906 161.15625 121.871094 160.96875 122.515625 160.582031 L 125.589844 158.722656 C 125.984375 158.484375 126.128906 157.980469 125.921875 157.566406 C 125.742188 157.203125 125.339844 157.007812 124.941406 157.09375 L 122.160156 157.707031 L 124.808594 155.578125 C 125.0625 155.375 125.199219 155.074219 125.1875 154.753906 L 125.15625 153.789062 C 125.144531 153.34375 124.832031 152.957031 124.398438 152.847656 L 122.980469 152.480469 L 124.644531 151.140625 C 125.1875 150.707031 125.449219 150.011719 125.332031 149.324219 C 125.152344 148.277344 124.15625 147.570312 123.113281 147.761719 L 114.050781 149.378906 Z M 240.703125 179.066406 L 212.753906 161.109375 L 204.726562 150.679688 C 203.9375 149.65625 202.75 149.027344 201.460938 148.953125 L 195.828125 148.628906 C 195.464844 148.605469 195.105469 148.71875 194.820312 148.949219 L 192.988281 150.425781 L 186.871094 151.527344 C 186.40625 151.609375 186.050781 151.988281 185.996094 152.457031 C 185.878906 153.457031 186.675781 154.324219 187.679688 154.296875 L 188.890625 154.261719 L 185.136719 159.167969 C 184.628906 159.832031 184.792969 160.789062 185.492188 161.246094 C 185.867188 161.488281 186.335938 161.542969 186.753906 161.394531 L 193.433594 155.039062 C 193.941406 154.554688 194.664062 154.375 195.339844 154.5625 L 196.179688 154.792969 L 190.511719 160.046875 L 190.378906 160.238281 C 189.429688 161.585938 189.816406 163.453125 191.214844 164.3125 L 191.601562 164.550781 C 192.460938 165.078125 193.5 165.214844 194.464844 164.925781 L 198.613281 163.683594 C 199.101562 163.535156 199.625 163.566406 200.09375 163.765625 L 206.984375 166.710938 L 227.578125 193.421875 C 231.394531 198.378906 238.789062 198.570312 242.863281 193.820312 C 246.765625 189.269531 245.75 182.308594 240.703125 179.066406 Z M 188.25 123.753906 C 193.332031 122.984375 198.667969 121.316406 198.667969 121.316406 C 198.703125 121.332031 198.726562 121.351562 198.757812 121.371094 L 198.167969 111.585938 C 202.238281 107.503906 208.429688 99.019531 203.644531 89.445312 C 199.871094 81.894531 196.472656 79.882812 191.496094 78.558594 C 184.929688 76.8125 177.832031 78.109375 172.527344 82.359375 C 170.4375 84.035156 168.835938 86.027344 168.636719 88.277344 C 168.453125 90.421875 167.472656 94.25 168.351562 98.539062 C 168.984375 101.617188 169.128906 107.417969 170.0625 110.492188 C 172.0625 117.078125 176.679688 120.101562 178.566406 119.984375 C 178.988281 119.960938 179.410156 119.917969 179.835938 119.867188 C 179.808594 119.945312 179.777344 120.023438 179.75 120.105469 C 179.75 120.105469 180.425781 120.765625 180.792969 122.289062 C 181.386719 122.757812 183.859375 124.417969 188.25 123.753906 Z M 159.660156 290.9375 C 134.738281 286.292969 109.84375 273.847656 88.195312 256.617188 L 92.28125 254.910156 L 107.839844 250.1875 C 168.035156 251.65625 167.632812 271.339844 159.660156 290.9375 "/>
<path style=" stroke:none;fill-rule:nonzero;fill:rgb(52.549744%,54.119873%,80.389404%);fill-opacity:1;" d="M 263.457031 99.964844 L 260.214844 82.945312 C 257.171875 83.523438 254.417969 84.902344 252.164062 86.847656 L 249.402344 84.082031 L 244.910156 84.082031 L 244.910156 81.511719 L 233.761719 81.511719 L 233.761719 87.324219 L 244.910156 87.324219 L 244.910156 84.722656 L 249.136719 84.722656 L 251.695312 87.285156 C 248.300781 90.449219 246.164062 94.953125 246.164062 99.964844 C 246.164062 109.535156 253.90625 117.292969 263.457031 117.292969 C 273.007812 117.292969 280.75 109.535156 280.75 99.964844 Z M 263.457031 82.636719 C 272.945312 82.636719 280.75 90.460938 280.75 99.964844 C 280.75 90.394531 273.007812 82.636719 263.457031 82.636719 Z M 56.882812 46.523438 L 61.480469 46.523438 L 62.484375 48.410156 C 62.675781 48.769531 63.191406 48.769531 63.382812 48.410156 L 64.382812 46.523438 L 68.984375 46.523438 C 69.394531 46.523438 69.722656 46.191406 69.722656 45.785156 L 69.722656 40.972656 C 69.722656 40.5625 69.394531 40.234375 68.984375 40.234375 L 56.882812 40.234375 C 56.472656 40.234375 56.144531 40.5625 56.144531 40.972656 L 56.144531 45.785156 C 56.144531 46.191406 56.472656 46.523438 56.882812 46.523438 Z M 112.640625 31.621094 C 112.640625 31.777344 112.671875 31.929688 112.730469 32.066406 C 112.816406 32.269531 112.957031 32.4375 113.136719 32.5625 C 113.316406 32.683594 113.535156 32.753906 113.769531 32.753906 C 114.394531 32.753906 114.902344 32.246094 114.902344 31.621094 C 114.902344 30.996094 114.394531 30.484375 113.769531 30.484375 C 113.144531 30.484375 112.640625 30.996094 112.640625 31.621094 Z M 98.976562 43.445312 L 112.230469 32.480469 C 112.085938 32.222656 112 31.933594 112 31.621094 C 112 30.640625 112.792969 29.84375 113.769531 29.84375 C 114.746094 29.84375 115.542969 30.640625 115.542969 31.621094 C 115.542969 32.597656 114.746094 33.394531 113.769531 33.394531 C 113.339844 33.394531 112.945312 33.234375 112.636719 32.976562 L 99.410156 43.917969 C 99.292969 43.734375 99.148438 43.574219 98.976562 43.445312 Z M 96.523438 43.753906 L 92.113281 41.199219 C 92.027344 41.402344 91.90625 41.582031 91.761719 41.738281 L 96.222656 44.320312 C 96.292969 44.113281 96.390625 43.921875 96.523438 43.753906 Z M 61.957031 52.210938 C 62.066406 52.398438 62.226562 52.550781 62.421875 52.648438 C 62.578125 52.730469 62.75 52.777344 62.933594 52.777344 C 63.453125 52.777344 63.886719 52.425781 64.019531 51.949219 C 64.046875 51.851562 64.0625 51.75 64.0625 51.644531 C 64.0625 51.527344 64.042969 51.414062 64.007812 51.304688 C 63.863281 50.847656 63.4375 50.511719 62.933594 50.511719 C 62.308594 50.511719 61.800781 51.019531 61.800781 51.644531 C 61.800781 51.851562 61.863281 52.042969 61.957031 52.210938 Z M 61.96875 53.132812 L 52.152344 63.535156 L 52.152344 62.597656 L 61.507812 52.6875 C 61.292969 52.394531 61.160156 52.035156 61.160156 51.644531 C 61.160156 50.667969 61.957031 49.871094 62.933594 49.871094 C 63.792969 49.871094 64.507812 50.484375 64.671875 51.292969 L 76.625 51.097656 C 76.613281 51.183594 76.597656 51.269531 76.597656 51.359375 C 76.597656 51.488281 76.613281 51.613281 76.640625 51.742188 L 64.675781 51.9375 C 64.539062 52.777344 63.8125 53.421875 62.933594 53.421875 C 62.578125 53.421875 62.246094 53.3125 61.96875 53.132812 Z M 79.890625 50.460938 L 89.429688 41.941406 C 89.253906 41.816406 89.105469 41.660156 88.988281 41.476562 L 79.46875 49.976562 C 79.636719 50.109375 79.78125 50.273438 79.890625 50.460938 Z M 188.714844 17.996094 L 184.273438 17.996094 L 184.273438 18.636719 L 188.714844 18.636719 Z M 191.445312 15.511719 L 184.273438 15.511719 L 184.273438 16.15625 L 191.445312 16.15625 Z M 192.984375 13.035156 L 184.273438 13.035156 L 184.273438 13.675781 L 192.984375 13.675781 Z M 216.542969 17.996094 L 212.105469 17.996094 L 212.105469 18.636719 L 216.542969 18.636719 Z M 212.105469 16.15625 L 223.632812 16.15625 L 223.632812 15.511719 L 212.105469 15.511719 Z M 219.789062 13.035156 L 212.105469 13.035156 L 212.105469 13.675781 L 219.789062 13.675781 Z M 221.167969 26.371094 L 211.945312 26.371094 L 211.945312 52.257812 L 221.167969 52.257812 Z M 184.273438 52.257812 L 193.496094 52.257812 L 193.496094 30.457031 L 184.273438 30.457031 Z M 85.476562 93.773438 L 73.945312 93.773438 L 73.945312 94.414062 L 85.476562 94.414062 Z M 85.476562 103.433594 L 73.945312 103.433594 L 73.945312 104.074219 L 85.476562 104.074219 Z M 85.476562 113.09375 L 73.945312 113.09375 L 73.945312 113.734375 L 85.476562 113.734375 Z M 85.476562 132.410156 L 73.945312 132.410156 L 73.945312 133.050781 L 85.476562 133.050781 Z M 78.386719 134.890625 L 73.945312 134.890625 L 73.945312 135.53125 L 78.386719 135.53125 Z M 45.675781 129.972656 L 8.78125 129.972656 L 8.78125 135.492188 L 45.675781 135.492188 Z M 7.054688 90.4375 L 6.414062 90.4375 L 6.414062 135.492188 L 7.054688 135.492188 Z M 8.78125 115.722656 L 31.203125 115.722656 L 31.203125 110.203125 L 8.78125 110.203125 Z M 8.78125 105.839844 L 40.042969 105.839844 L 40.042969 100.320312 L 8.78125 100.320312 Z M 8.78125 95.957031 L 24.027344 95.957031 L 24.027344 90.4375 L 8.78125 90.4375 Z M 73.945312 130.570312 L 81.632812 130.570312 L 81.632812 129.929688 L 73.945312 129.929688 Z M 73.945312 116.214844 L 78.386719 116.214844 L 78.386719 115.574219 L 73.945312 115.574219 Z M 73.945312 111.253906 L 81.632812 111.253906 L 81.632812 110.609375 L 73.945312 110.609375 Z M 73.945312 106.558594 L 78.386719 106.558594 L 78.386719 105.914062 L 73.945312 105.914062 Z M 73.945312 101.59375 L 81.632812 101.59375 L 81.632812 100.949219 L 73.945312 100.949219 Z M 73.945312 96.898438 L 78.386719 96.898438 L 78.386719 96.253906 L 73.945312 96.253906 Z M 73.945312 91.9375 L 81.632812 91.9375 L 81.632812 91.292969 L 73.945312 91.292969 Z M 91.878906 141.671875 L 0.179688 141.671875 L 0.179688 84.167969 L 91.878906 84.167969 Z M 90.5625 214.203125 C 87.945312 214.203125 85.800781 216.164062 85.195312 218.792969 C 84.617188 221.292969 85.703125 223.257812 88.328125 223.257812 C 90.917969 223.257812 93.082031 221.511719 93.746094 218.636719 C 94.300781 216.21875 93.28125 214.203125 90.5625 214.203125 Z M 83.242188 214.34375 L 77.773438 214.34375 L 75.75 223.113281 L 81.402344 223.113281 L 81.777344 221.488281 L 78.136719 221.488281 L 78.617188 219.40625 L 81.875 219.40625 L 82.246094 217.792969 L 78.988281 217.792969 L 79.410156 215.96875 L 82.863281 215.96875 Z M 74.671875 214.589844 C 74.359375 214.410156 73.617188 214.203125 72.578125 214.203125 C 69.898438 214.203125 67.363281 215.867188 66.671875 218.855469 C 66.09375 221.355469 67.238281 223.242188 70.296875 223.242188 C 71.375 223.242188 72.25 223.050781 72.660156 222.867188 L 72.710938 221.316406 C 72.285156 221.476562 71.582031 221.605469 70.976562 221.605469 C 69.191406 221.605469 68.394531 220.496094 68.800781 218.742188 C 69.25 216.789062 70.703125 215.839844 72.292969 215.839844 C 73.003906 215.839844 73.53125 215.996094 73.898438 216.164062 Z M 110.335938 225.5 L 49.070312 225.5 L 53.464844 211.507812 L 116.746094 211.507812 Z M 90.144531 215.777344 C 88.792969 215.777344 87.710938 217.050781 87.320312 218.753906 C 86.921875 220.472656 87.460938 221.683594 88.796875 221.683594 C 90.152344 221.683594 91.21875 220.40625 91.613281 218.703125 C 91.976562 217.128906 91.527344 215.777344 90.144531 215.777344 Z M 217.160156 160.554688 C 215.550781 160.554688 214.929688 162.554688 215.765625 165.027344 C 216.605469 167.5 218.59375 169.503906 220.203125 169.503906 C 221.8125 169.503906 222.4375 167.5 221.597656 165.027344 C 220.753906 162.554688 218.769531 160.554688 217.160156 160.554688 Z M 215.898438 238.101562 L 216.886719 253.441406 C 215.03125 261.222656 211.957031 270.238281 206.984375 276.050781 C 198.894531 285.503906 174.132812 290.085938 163.761719 291.625 C 162.222656 291.394531 160.6875 291.136719 159.152344 290.84375 C 159.25 274.007812 146.457031 259.761719 129.566406 258.25 L 91.894531 254.875 C 91.894531 254.875 116.609375 245.289062 139.203125 238.101562 L 215.898438 238.101562 "/>
<g clip-path="url(#clip3)" clip-rule="nonzero">
<path style=" stroke:none;fill-rule:nonzero;fill:rgb(18.818665%,32.159424%,41.569519%);fill-opacity:1;" d="M 283.828125 107.109375 L 283.828125 109.691406 L 280.875 109.691406 L 278.847656 107.816406 C 280.0625 105.453125 280.75 102.785156 280.75 99.964844 C 280.75 99.890625 280.75 99.816406 280.75 99.738281 L 263.457031 99.964844 L 255.929688 115.566406 C 258.273438 116.703125 260.847656 117.292969 263.457031 117.292969 C 269.898438 117.292969 275.558594 113.6875 278.535156 108.398438 L 280.625 110.335938 L 283.828125 110.335938 L 283.828125 112.921875 L 294.96875 112.921875 L 294.96875 107.109375 Z M 238.003906 120.015625 L 233.5625 120.015625 L 233.5625 120.660156 L 238.003906 120.660156 Z M 245.09375 117.535156 L 233.5625 117.535156 L 233.5625 118.175781 L 245.09375 118.175781 Z M 241.25 115.054688 L 233.5625 115.054688 L 233.5625 115.699219 L 241.25 115.699219 Z M 238.003906 110.359375 L 233.5625 110.359375 L 233.5625 111 L 238.003906 111 Z M 245.09375 107.878906 L 233.5625 107.878906 L 233.5625 108.519531 L 245.09375 108.519531 Z M 241.25 105.394531 L 233.5625 105.394531 L 233.5625 106.039062 L 241.25 106.039062 Z M 85.160156 62.316406 L 85.160156 57.503906 C 85.160156 57.09375 84.828125 56.765625 84.425781 56.765625 L 79.824219 56.765625 L 78.820312 54.878906 C 78.625 54.519531 78.113281 54.519531 77.921875 54.878906 L 76.917969 56.765625 L 72.316406 56.765625 C 71.910156 56.765625 71.582031 57.09375 71.582031 57.503906 L 71.582031 62.316406 C 71.582031 62.726562 71.910156 63.054688 72.316406 63.054688 L 84.425781 63.054688 C 84.828125 63.054688 85.160156 62.726562 85.160156 62.316406 Z M 84.425781 35.152344 L 89.023438 35.152344 L 90.027344 37.035156 C 90.21875 37.394531 90.730469 37.394531 90.925781 37.035156 L 91.929688 35.152344 L 96.527344 35.152344 C 96.9375 35.152344 97.265625 34.820312 97.265625 34.410156 L 97.265625 29.597656 C 97.265625 29.191406 96.9375 28.859375 96.527344 28.859375 L 84.425781 28.859375 C 84.015625 28.859375 83.6875 29.191406 83.6875 29.597656 L 83.6875 34.410156 C 83.6875 34.820312 84.015625 35.152344 84.425781 35.152344 Z M 91.609375 40.519531 C 91.609375 39.894531 91.101562 39.386719 90.476562 39.386719 C 89.851562 39.386719 89.34375 39.894531 89.34375 40.519531 C 89.34375 40.710938 89.394531 40.882812 89.476562 41.039062 C 89.578125 41.234375 89.730469 41.394531 89.921875 41.5 C 90.085938 41.597656 90.273438 41.65625 90.476562 41.65625 C 90.746094 41.65625 90.984375 41.558594 91.179688 41.402344 C 91.351562 41.265625 91.476562 41.085938 91.546875 40.871094 C 91.582031 40.761719 91.609375 40.644531 91.609375 40.519531 Z M 92.25 40.519531 C 92.25 40.761719 92.199219 40.988281 92.113281 41.199219 C 92.027344 41.402344 91.90625 41.582031 91.761719 41.738281 C 91.4375 42.082031 90.980469 42.296875 90.476562 42.296875 C 90.082031 42.296875 89.722656 42.164062 89.429688 41.941406 C 89.253906 41.816406 89.105469 41.660156 88.988281 41.476562 C 88.808594 41.199219 88.707031 40.871094 88.707031 40.519531 C 88.707031 39.539062 89.5 38.742188 90.476562 38.742188 C 91.453125 38.742188 92.25 39.539062 92.25 40.519531 Z M 77.238281 51.359375 C 77.238281 51.488281 77.265625 51.613281 77.304688 51.726562 C 77.460938 52.171875 77.875 52.492188 78.371094 52.492188 C 78.996094 52.492188 79.503906 51.984375 79.503906 51.359375 C 79.503906 51.195312 79.464844 51.039062 79.402344 50.898438 C 79.3125 50.699219 79.167969 50.527344 78.988281 50.410156 C 78.808594 50.292969 78.597656 50.222656 78.371094 50.222656 C 77.839844 50.222656 77.398438 50.59375 77.277344 51.085938 C 77.253906 51.171875 77.238281 51.265625 77.238281 51.359375 Z M 76.640625 51.742188 C 76.613281 51.613281 76.597656 51.488281 76.597656 51.359375 C 76.597656 51.269531 76.613281 51.183594 76.625 51.097656 C 76.753906 50.242188 77.484375 49.582031 78.371094 49.582031 C 78.785156 49.582031 79.167969 49.734375 79.46875 49.976562 C 79.636719 50.109375 79.78125 50.273438 79.890625 50.460938 C 80.046875 50.726562 80.144531 51.03125 80.144531 51.359375 C 80.144531 52.335938 79.347656 53.132812 78.371094 53.132812 C 77.523438 53.132812 76.816406 52.535156 76.640625 51.742188 Z M 165.175781 52.578125 L 174.730469 52.578125 L 174.730469 53.570312 L 175.371094 53.570312 L 175.371094 52.578125 L 181.644531 52.578125 L 181.644531 53.570312 L 182.285156 53.570312 L 182.285156 52.578125 L 188.5625 52.578125 L 188.5625 53.570312 L 189.203125 53.570312 L 189.203125 52.578125 L 195.480469 52.578125 L 195.480469 53.570312 L 196.121094 53.570312 L 196.121094 52.578125 L 202.402344 52.578125 L 202.402344 53.570312 L 203.039062 53.570312 L 203.039062 52.578125 L 209.320312 52.578125 L 209.320312 53.570312 L 209.960938 53.570312 L 209.960938 52.578125 L 216.234375 52.578125 L 216.234375 53.570312 L 216.875 53.570312 L 216.875 52.578125 L 226.976562 52.578125 L 226.976562 51.9375 L 216.875 51.9375 L 216.875 50.945312 L 216.234375 50.945312 L 216.234375 51.9375 L 209.960938 51.9375 L 209.960938 50.945312 L 209.320312 50.945312 L 209.320312 51.9375 L 203.039062 51.9375 L 203.039062 50.945312 L 202.402344 50.945312 L 202.402344 51.9375 L 196.121094 51.9375 L 196.121094 50.945312 L 195.480469 50.945312 L 195.480469 51.9375 L 189.203125 51.9375 L 189.203125 50.945312 L 188.5625 50.945312 L 188.5625 51.9375 L 182.285156 51.9375 L 182.285156 50.945312 L 181.644531 50.945312 L 181.644531 51.9375 L 175.371094 51.9375 L 175.371094 50.945312 L 174.730469 50.945312 L 174.730469 51.9375 L 165.816406 51.9375 L 165.816406 48.171875 L 166.808594 48.171875 L 166.808594 47.53125 L 165.816406 47.53125 L 165.816406 42.464844 L 166.808594 42.464844 L 166.808594 41.824219 L 165.816406 41.824219 L 165.816406 36.761719 L 166.808594 36.761719 L 166.808594 36.121094 L 165.816406 36.121094 L 165.816406 31.058594 L 166.808594 31.058594 L 166.808594 30.414062 L 165.816406 30.414062 L 165.816406 25.351562 L 166.808594 25.351562 L 166.808594 24.710938 L 165.816406 24.710938 L 165.816406 19.648438 L 166.808594 19.648438 L 166.808594 19.003906 L 165.816406 19.003906 L 165.816406 13.941406 L 166.808594 13.941406 L 166.808594 13.300781 L 165.816406 13.300781 L 165.816406 11.140625 L 165.175781 11.140625 L 165.175781 13.300781 L 164.1875 13.300781 L 164.1875 13.941406 L 165.175781 13.941406 L 165.175781 19.003906 L 164.1875 19.003906 L 164.1875 19.648438 L 165.175781 19.648438 L 165.175781 24.710938 L 164.1875 24.710938 L 164.1875 25.351562 L 165.175781 25.351562 L 165.175781 30.414062 L 164.1875 30.414062 L 164.1875 31.058594 L 165.175781 31.058594 L 165.175781 36.121094 L 164.1875 36.121094 L 164.1875 36.761719 L 165.175781 36.761719 L 165.175781 41.824219 L 164.1875 41.824219 L 164.1875 42.464844 L 165.175781 42.464844 L 165.175781 47.53125 L 164.1875 47.53125 L 164.1875 48.171875 L 165.175781 48.171875 Z M 8.78125 125.609375 L 61.820312 125.609375 L 61.820312 120.085938 L 8.78125 120.085938 Z M 78.386719 125.234375 L 73.945312 125.234375 L 73.945312 125.875 L 78.386719 125.875 Z M 73.945312 123.394531 L 85.476562 123.394531 L 85.476562 122.753906 L 73.945312 122.753906 Z M 73.945312 120.269531 L 73.945312 120.914062 L 81.632812 120.914062 L 81.632812 120.269531 Z M 199.859375 130.703125 C 199.9375 130.75 200.042969 130.71875 200.085938 130.636719 C 200.160156 130.507812 200.1875 130.378906 200.214844 130.25 C 200.242188 130.117188 200.238281 129.988281 200.234375 129.863281 C 200.226562 129.734375 200.214844 129.605469 200.171875 129.480469 C 200.136719 129.351562 200.097656 129.222656 200.011719 129.097656 C 200.003906 129.078125 199.984375 129.0625 199.964844 129.050781 C 199.894531 129.011719 199.808594 129.039062 199.769531 129.105469 C 199.695312 129.238281 199.660156 129.367188 199.636719 129.496094 C 199.601562 129.625 199.601562 129.753906 199.597656 129.882812 C 199.601562 130.011719 199.609375 130.136719 199.644531 130.265625 C 199.679688 130.394531 199.71875 130.523438 199.796875 130.648438 C 199.8125 130.667969 199.832031 130.691406 199.859375 130.703125 Z M 177.265625 132.351562 C 177.34375 132.375 177.425781 132.332031 177.453125 132.253906 C 177.542969 131.984375 177.597656 131.714844 177.65625 131.449219 C 177.71875 131.183594 177.761719 130.917969 177.816406 130.652344 C 177.855469 130.386719 177.910156 130.121094 177.945312 129.851562 C 177.984375 129.578125 178.023438 129.308594 178.039062 129.023438 C 178.039062 128.980469 178.019531 128.933594 177.984375 128.910156 C 177.921875 128.871094 177.84375 128.886719 177.804688 128.945312 C 177.640625 129.183594 177.523438 129.445312 177.421875 129.710938 C 177.3125 129.976562 177.246094 130.257812 177.1875 130.535156 C 177.132812 130.816406 177.09375 131.097656 177.09375 131.382812 C 177.089844 131.667969 177.101562 131.957031 177.164062 132.242188 C 177.175781 132.292969 177.210938 132.335938 177.265625 132.351562 Z M 180.324219 128.890625 C 180.320312 128.953125 180.351562 129.011719 180.40625 129.039062 C 180.480469 129.074219 180.570312 129.042969 180.605469 128.96875 C 180.804688 128.554688 180.800781 128.058594 180.699219 127.625 C 180.601562 127.179688 180.394531 126.78125 180.160156 126.414062 C 179.925781 126.058594 179.675781 125.730469 179.425781 125.414062 C 179.183594 125.09375 178.960938 124.769531 178.773438 124.414062 C 178.75 124.371094 178.699219 124.339844 178.648438 124.347656 C 178.582031 124.355469 178.53125 124.414062 178.539062 124.484375 C 178.589844 124.921875 178.769531 125.335938 178.972656 125.707031 C 179.171875 126.085938 179.414062 126.421875 179.625 126.761719 C 179.835938 127.09375 180.019531 127.433594 180.15625 127.785156 C 180.289062 128.136719 180.355469 128.503906 180.328125 128.890625 Z M 112.996094 145.09375 C 112.664062 143.742188 112.292969 142.398438 111.941406 141.054688 L 110.804688 137.035156 C 110.410156 135.699219 110.007812 134.363281 109.566406 133.042969 C 109.542969 132.972656 109.472656 132.929688 109.398438 132.945312 C 109.320312 132.964844 109.269531 133.042969 109.289062 133.117188 C 109.582031 134.484375 109.917969 135.835938 110.257812 137.183594 L 111.324219 141.222656 C 111.710938 142.558594 112.078125 143.902344 112.476562 145.238281 C 112.871094 146.570312 113.277344 147.90625 113.722656 149.226562 C 113.726562 149.238281 113.734375 149.242188 113.738281 149.25 C 113.300781 149.3125 112.863281 149.378906 112.425781 149.46875 C 111.96875 149.5625 111.515625 149.660156 111.066406 149.800781 C 111.015625 149.816406 110.980469 149.859375 110.980469 149.914062 C 110.976562 149.980469 111.027344 150.042969 111.097656 150.042969 C 111.570312 150.058594 112.03125 150.035156 112.496094 150.007812 C 112.960938 149.984375 113.421875 149.929688 113.882812 149.875 C 114.339844 149.8125 114.800781 149.75 115.253906 149.65625 C 115.710938 149.570312 116.164062 149.476562 116.617188 149.339844 C 116.671875 149.320312 116.71875 149.265625 116.722656 149.203125 C 116.722656 149.121094 116.660156 149.054688 116.578125 149.050781 C 116.109375 149.035156 115.644531 149.0625 115.183594 149.09375 C 114.765625 149.121094 114.355469 149.167969 113.945312 149.222656 C 113.953125 149.203125 113.960938 149.183594 113.957031 149.164062 C 113.667969 147.800781 113.332031 146.445312 112.996094 145.09375 Z M 163.140625 188.730469 L 154.433594 188.640625 C 154.429688 188.636719 154.425781 188.628906 154.425781 188.621094 L 150.402344 188.621094 L 150.402344 188.625 L 144.265625 188.601562 L 134.832031 188.570312 C 131.757812 188.550781 128.6875 188.5625 125.613281 188.578125 L 121.867188 175.796875 L 119.949219 169.304688 L 117.996094 162.820312 C 117.976562 162.757812 117.910156 162.71875 117.84375 162.738281 C 117.78125 162.753906 117.742188 162.824219 117.757812 162.886719 L 119.5625 169.414062 L 121.40625 175.933594 L 125.109375 188.957031 C 125.144531 189.082031 125.257812 189.175781 125.394531 189.175781 C 128.539062 189.1875 131.683594 189.203125 134.832031 189.183594 L 144.265625 189.148438 L 150.402344 189.128906 L 150.402344 194.515625 C 150.402344 198.234375 152.867188 201.332031 155.925781 201.433594 L 156.910156 201.464844 C 157.085938 198.894531 156.78125 196.285156 155.964844 193.785156 C 155.5 192.34375 155.019531 190.765625 154.558594 189.109375 L 163.140625 189.019531 C 163.21875 189.019531 163.285156 188.957031 163.285156 188.878906 C 163.289062 188.796875 163.222656 188.730469 163.140625 188.730469 Z M 163.832031 187.722656 L 159.695312 173.445312 L 155.496094 159.191406 L 154.523438 155.894531 C 154.554688 155.664062 154.578125 155.429688 154.628906 155.199219 C 154.707031 154.875 154.757812 154.550781 154.855469 154.230469 C 155.019531 153.589844 155.21875 152.953125 155.433594 152.324219 C 155.867188 151.058594 156.328125 149.804688 156.832031 148.5625 C 157.808594 146.066406 158.890625 143.609375 159.917969 141.128906 C 159.945312 141.074219 159.921875 141.007812 159.871094 140.976562 C 159.808594 140.941406 159.734375 140.964844 159.703125 141.019531 C 159.042969 142.195312 158.4375 143.402344 157.859375 144.621094 C 157.28125 145.839844 156.757812 147.082031 156.238281 148.328125 C 155.75 149.585938 155.28125 150.855469 154.894531 152.152344 C 154.625 153.082031 154.378906 154.035156 154.265625 155.011719 L 151.296875 144.929688 C 149.910156 140.171875 148.457031 135.4375 147.042969 130.691406 C 147.007812 130.566406 146.890625 130.480469 146.757812 130.480469 L 128.003906 131.117188 C 121.753906 131.320312 115.507812 131.578125 109.257812 131.816406 C 109.191406 131.820312 109.136719 131.875 109.140625 131.941406 C 109.140625 132.007812 109.199219 132.0625 109.265625 132.0625 C 115.519531 131.914062 121.769531 131.78125 128.019531 131.59375 L 146.550781 131.066406 C 147.933594 135.746094 149.289062 140.4375 150.699219 145.109375 L 159.230469 173.585938 L 163.554688 187.804688 C 163.578125 187.878906 163.65625 187.925781 163.734375 187.902344 C 163.8125 187.878906 163.855469 187.800781 163.832031 187.722656 Z M 114.863281 160.925781 C 115.597656 161.015625 116.328125 161.066406 117.058594 161.105469 C 117.792969 161.152344 118.523438 161.167969 119.253906 161.183594 L 120.355469 161.191406 C 120.742188 161.1875 121.136719 161.148438 121.503906 161.050781 C 122.253906 160.871094 122.9375 160.542969 123.578125 160.175781 C 123.632812 160.140625 123.664062 160.070312 123.640625 160.003906 C 123.617188 159.925781 123.535156 159.886719 123.457031 159.910156 C 122.761719 160.136719 122.082031 160.382812 121.390625 160.496094 C 121.046875 160.546875 120.707031 160.578125 120.363281 160.566406 L 119.261719 160.542969 C 118.53125 160.539062 117.800781 160.539062 117.066406 160.5625 C 116.335938 160.585938 115.601562 160.613281 114.871094 160.683594 C 114.8125 160.6875 114.765625 160.730469 114.757812 160.792969 C 114.75 160.859375 114.796875 160.917969 114.863281 160.925781 Z M 117.683594 158.441406 C 118.621094 158.40625 119.539062 158.386719 120.488281 158.265625 C 120.960938 158.195312 121.441406 158.089844 121.894531 157.890625 C 122.339844 157.683594 122.761719 157.363281 123.007812 156.929688 C 123.035156 156.878906 123.027344 156.8125 122.980469 156.773438 C 122.929688 156.730469 122.851562 156.738281 122.804688 156.789062 C 122.234375 157.476562 121.316406 157.664062 120.433594 157.726562 C 119.53125 157.777344 118.59375 157.800781 117.675781 157.800781 C 116.75 157.828125 115.828125 157.816406 114.898438 157.828125 C 113.972656 157.839844 113.046875 157.847656 112.113281 157.898438 C 112.042969 157.902344 111.988281 157.957031 111.976562 158.027344 C 111.96875 158.105469 112.027344 158.179688 112.105469 158.1875 C 113.03125 158.292969 113.960938 158.351562 114.890625 158.398438 C 115.820312 158.441406 116.75 158.445312 117.683594 158.441406 Z M 124.339844 150.898438 C 124.304688 150.839844 124.226562 150.820312 124.167969 150.855469 C 123.300781 151.386719 122.449219 151.953125 121.605469 152.523438 C 120.765625 153.078125 119.917969 153.71875 119.113281 154.234375 C 118.3125 154.714844 117.308594 154.800781 116.3125 154.851562 C 115.3125 154.898438 114.269531 154.875 113.25 155.121094 C 113.179688 155.136719 113.128906 155.203125 113.136719 155.277344 C 113.144531 155.355469 113.214844 155.414062 113.296875 155.40625 C 114.292969 155.320312 115.292969 155.410156 116.324219 155.417969 C 117.34375 155.417969 118.453125 155.34375 119.433594 154.789062 C 119.917969 154.484375 120.273438 154.183594 120.699219 153.878906 C 121.105469 153.574219 121.523438 153.277344 121.921875 152.960938 C 122.730469 152.34375 123.53125 151.714844 124.316406 151.058594 C 124.359375 151.015625 124.371094 150.953125 124.339844 150.898438 Z M 219.183594 165.363281 C 218.984375 164.867188 218.769531 164.378906 218.535156 163.898438 C 218.40625 163.628906 218.257812 163.367188 218.117188 163.101562 C 217.980469 162.839844 217.820312 162.585938 217.660156 162.332031 C 217.628906 162.289062 217.574219 162.265625 217.523438 162.277344 C 217.457031 162.296875 217.414062 162.363281 217.433594 162.429688 C 217.507812 162.722656 217.585938 163.011719 217.6875 163.292969 C 217.785156 163.578125 217.875 163.859375 217.984375 164.136719 C 218.203125 164.691406 218.4375 165.238281 218.699219 165.777344 L 218.710938 165.800781 C 218.757812 165.898438 218.863281 165.964844 218.976562 165.957031 C 219.523438 165.929688 220.074219 165.890625 220.621094 165.796875 C 220.679688 165.789062 220.730469 165.742188 220.742188 165.679688 C 220.753906 165.597656 220.699219 165.523438 220.621094 165.507812 C 220.140625 165.425781 219.664062 165.390625 219.183594 165.363281 Z M 121.601562 258.070312 C 121.582031 257.992188 121.5 257.945312 121.421875 257.96875 C 119.4375 258.492188 117.457031 259.03125 115.484375 259.601562 L 109.574219 261.335938 L 103.691406 263.148438 C 101.734375 263.761719 99.78125 264.402344 97.835938 265.058594 C 97.773438 265.078125 97.738281 265.140625 97.757812 265.203125 C 97.773438 265.273438 97.839844 265.308594 97.90625 265.292969 C 99.890625 264.769531 101.875 264.230469 103.847656 263.667969 L 109.757812 261.949219 L 115.648438 260.144531 C 117.605469 259.535156 119.558594 258.898438 121.503906 258.246094 C 121.578125 258.21875 121.621094 258.144531 121.601562 258.070312 Z M 110.820312 224.746094 C 111.347656 223.785156 111.835938 222.804688 112.316406 221.820312 C 112.800781 220.835938 113.253906 219.839844 113.722656 218.851562 C 114.164062 217.847656 114.625 216.851562 115.050781 215.84375 C 115.480469 214.835938 115.90625 213.824219 116.289062 212.796875 C 116.3125 212.738281 116.289062 212.675781 116.234375 212.644531 C 116.175781 212.613281 116.101562 212.632812 116.066406 212.691406 C 115.539062 213.65625 115.046875 214.636719 114.5625 215.617188 C 114.074219 216.597656 113.617188 217.59375 113.144531 218.582031 C 112.695312 219.582031 112.234375 220.574219 111.800781 221.582031 C 111.371094 222.589844 110.945312 223.597656 110.554688 224.625 C 110.53125 224.695312 110.554688 224.769531 110.621094 224.804688 C 110.691406 224.84375 110.78125 224.820312 110.820312 224.746094 Z M 193.441406 149.9375 C 192.992188 150.253906 192.574219 150.601562 192.160156 150.953125 C 191.742188 151.300781 191.34375 151.671875 190.945312 152.039062 C 190.554688 152.414062 190.164062 152.792969 189.792969 153.1875 C 189.417969 153.582031 189.050781 153.984375 188.710938 154.414062 C 188.671875 154.464844 188.667969 154.535156 188.707031 154.589844 C 188.75 154.65625 188.84375 154.671875 188.910156 154.625 C 189.355469 154.304688 189.773438 153.953125 190.183594 153.601562 C 190.597656 153.25 190.992188 152.875 191.390625 152.503906 C 191.777344 152.125 192.164062 151.746094 192.53125 151.34375 C 192.90625 150.949219 193.269531 150.546875 193.609375 150.113281 C 193.644531 150.070312 193.644531 150.011719 193.613281 149.964844 C 193.574219 149.910156 193.496094 149.894531 193.441406 149.9375 Z M 203.714844 162.09375 C 203.773438 162.0625 203.800781 162 203.785156 161.933594 C 203.769531 161.855469 203.691406 161.808594 203.613281 161.824219 C 203.144531 161.921875 202.695312 162.058594 202.242188 162.191406 C 201.792969 162.320312 201.347656 162.472656 200.902344 162.617188 C 200.457031 162.773438 200.011719 162.921875 199.574219 163.09375 C 199.136719 163.261719 198.695312 163.429688 198.261719 163.632812 C 198.21875 163.65625 198.1875 163.703125 198.191406 163.757812 C 198.199219 163.824219 198.257812 163.875 198.328125 163.867188 C 198.804688 163.816406 199.269531 163.71875 199.734375 163.613281 C 200.152344 163.515625 200.5625 163.394531 200.972656 163.265625 C 200.976562 163.285156 200.972656 163.304688 200.984375 163.320312 C 201.113281 163.515625 201.292969 163.667969 201.488281 163.789062 C 201.6875 163.914062 201.910156 163.992188 202.136719 164.042969 C 202.367188 164.085938 202.601562 164.101562 202.832031 164.0625 C 203.0625 164.027344 203.289062 163.957031 203.484375 163.828125 C 203.519531 163.800781 203.542969 163.761719 203.550781 163.71875 C 203.558594 163.632812 203.5 163.558594 203.414062 163.546875 L 203.40625 163.546875 C 203.195312 163.523438 203.007812 163.515625 202.816406 163.496094 C 202.628906 163.46875 202.441406 163.449219 202.261719 163.414062 C 202.074219 163.382812 201.894531 163.335938 201.707031 163.292969 C 201.566406 163.257812 201.417969 163.210938 201.273438 163.164062 C 201.664062 163.03125 202.054688 162.890625 202.433594 162.722656 C 202.875 162.535156 203.304688 162.335938 203.714844 162.09375 Z M 191.027344 163.777344 L 193.589844 162.132812 C 194.445312 161.59375 195.300781 161.050781 196.175781 160.546875 C 197.039062 160.019531 197.917969 159.523438 198.800781 159.027344 L 201.464844 157.558594 C 201.527344 157.523438 201.554688 157.449219 201.53125 157.378906 C 201.503906 157.304688 201.417969 157.265625 201.34375 157.292969 C 200.386719 157.652344 199.453125 158.074219 198.539062 158.523438 C 197.621094 158.980469 196.730469 159.484375 195.847656 159.996094 C 194.980469 160.535156 194.117188 161.085938 193.289062 161.683594 C 192.457031 162.28125 191.648438 162.90625 190.878906 163.582031 C 190.839844 163.621094 190.824219 163.6875 190.859375 163.738281 C 190.894531 163.796875 190.972656 163.816406 191.027344 163.777344 Z M 244.398438 195.902344 C 243.21875 197.140625 241.679688 198.027344 240.035156 198.53125 C 238.390625 199.03125 236.613281 199.132812 234.90625 198.789062 C 234.832031 198.773438 234.761719 198.820312 234.738281 198.890625 C 234.714844 198.964844 234.761719 199.050781 234.835938 199.070312 C 236.566406 199.578125 238.441406 199.550781 240.195312 199.078125 C 241.945312 198.601562 243.578125 197.65625 244.859375 196.347656 C 246.121094 195.019531 247.007812 193.355469 247.417969 191.589844 C 247.832031 189.820312 247.796875 187.941406 247.234375 186.234375 C 247.214844 186.171875 247.152344 186.136719 247.089844 186.152344 C 247.023438 186.167969 246.984375 186.234375 247 186.296875 C 247.394531 188.003906 247.347656 189.789062 246.894531 191.457031 C 246.441406 193.117188 245.605469 194.683594 244.398438 195.902344 Z M 208.109375 138.945312 C 208.296875 138.726562 208.507812 138.53125 208.707031 138.320312 C 208.921875 138.132812 209.136719 137.933594 209.363281 137.757812 C 209.808594 137.386719 210.300781 137.066406 210.800781 136.789062 L 210.8125 136.785156 C 210.863281 136.753906 210.890625 136.6875 210.867188 136.632812 C 210.84375 136.570312 210.773438 136.539062 210.707031 136.5625 C 209.578125 137.011719 208.566406 137.703125 207.714844 138.574219 C 206.863281 139.445312 206.183594 140.503906 205.78125 141.664062 C 205.652344 141.945312 205.617188 142.257812 205.535156 142.550781 L 205.429688 142.996094 L 205.378906 143.453125 C 205.351562 143.757812 205.304688 144.0625 205.292969 144.367188 C 205.300781 144.671875 205.3125 144.976562 205.328125 145.277344 C 205.328125 145.582031 205.378906 145.882812 205.433594 146.179688 L 205.59375 147.070312 C 205.753906 147.648438 205.945312 148.222656 206.132812 148.789062 C 206.15625 148.855469 206.226562 148.894531 206.296875 148.882812 C 206.375 148.867188 206.425781 148.792969 206.414062 148.714844 L 206.410156 148.695312 C 206.300781 148.117188 206.152344 147.550781 206.050781 146.980469 L 205.949219 146.117188 C 205.910156 145.828125 205.878906 145.542969 205.894531 145.25 C 205.832031 144.097656 206.027344 142.953125 206.382812 141.875 C 206.722656 140.785156 207.355469 139.808594 208.109375 138.945312 Z M 178.550781 135.421875 C 178.949219 135.765625 179.441406 135.960938 179.929688 136.089844 C 180.914062 136.308594 181.882812 136.378906 182.871094 136.421875 C 184.839844 136.488281 186.804688 136.253906 188.730469 135.875 C 190.652344 135.464844 192.53125 134.894531 194.359375 134.21875 C 196.195312 133.550781 197.984375 132.777344 199.761719 131.984375 C 199.832031 131.957031 199.867188 131.875 199.839844 131.800781 C 199.8125 131.726562 199.726562 131.6875 199.652344 131.714844 C 197.824219 132.378906 196.003906 133.0625 194.171875 133.683594 C 192.339844 134.304688 190.488281 134.867188 188.597656 135.246094 C 186.71875 135.65625 184.800781 135.878906 182.878906 135.878906 C 181.925781 135.875 180.945312 135.835938 180.023438 135.667969 C 179.566406 135.582031 179.125 135.429688 178.761719 135.160156 C 178.398438 134.890625 178.109375 134.503906 178.03125 134.058594 C 178.023438 133.996094 177.964844 133.953125 177.898438 133.957031 C 177.832031 133.964844 177.785156 134.023438 177.789062 134.089844 C 177.84375 134.621094 178.15625 135.09375 178.550781 135.421875 Z M 177.105469 114.085938 C 177.265625 114.144531 177.425781 114.171875 177.59375 114.191406 C 177.757812 114.207031 177.921875 114.210938 178.085938 114.179688 C 178.253906 114.15625 178.414062 114.121094 178.574219 114.039062 C 178.605469 114.019531 178.632812 113.992188 178.648438 113.957031 C 178.683594 113.875 178.644531 113.78125 178.558594 113.746094 C 178.402344 113.675781 178.25 113.648438 178.101562 113.613281 C 177.949219 113.578125 177.796875 113.570312 177.644531 113.554688 C 177.496094 113.546875 177.34375 113.535156 177.1875 113.550781 C 177.03125 113.558594 176.875 113.570312 176.703125 113.613281 C 176.675781 113.617188 176.648438 113.636719 176.628906 113.660156 C 176.582031 113.71875 176.59375 113.804688 176.652344 113.851562 C 176.792969 113.960938 176.949219 114.03125 177.105469 114.085938 Z M 183.480469 111.085938 C 183.539062 111.046875 183.5625 110.972656 183.535156 110.90625 C 183.503906 110.832031 183.417969 110.796875 183.34375 110.828125 C 182.65625 111.105469 181.960938 111.34375 181.25 111.519531 C 180.539062 111.691406 179.820312 111.816406 179.09375 111.871094 C 178.367188 111.933594 177.636719 111.925781 176.90625 111.871094 C 176.175781 111.8125 175.449219 111.691406 174.726562 111.523438 C 174.667969 111.511719 174.609375 111.539062 174.585938 111.589844 C 174.558594 111.652344 174.585938 111.726562 174.644531 111.757812 C 175.335938 112.078125 176.082031 112.285156 176.839844 112.410156 C 177.601562 112.542969 178.375 112.5625 179.144531 112.511719 C 179.910156 112.449219 180.675781 112.308594 181.40625 112.066406 C 182.136719 111.828125 182.84375 111.507812 183.480469 111.085938 Z M 171.660156 97.054688 C 171.140625 97.054688 170.722656 97.707031 170.722656 98.511719 C 170.722656 99.3125 171.140625 99.964844 171.660156 99.964844 C 172.175781 99.964844 172.601562 99.3125 172.601562 98.511719 C 172.601562 97.707031 172.175781 97.054688 171.660156 97.054688 Z M 181.164062 97.054688 C 180.644531 97.054688 180.222656 97.707031 180.222656 98.511719 C 180.222656 99.3125 180.644531 99.964844 181.164062 99.964844 C 181.679688 99.964844 182.101562 99.3125 182.101562 98.511719 C 182.101562 97.707031 181.679688 97.054688 181.164062 97.054688 Z M 213.304688 176.171875 C 213.476562 176.398438 213.796875 176.441406 214.023438 176.269531 C 214.964844 175.5625 217.253906 173.582031 218.570312 170.367188 C 218.773438 170.421875 218.976562 170.453125 219.171875 170.453125 C 219.578125 170.453125 219.921875 170.324219 220.195312 170.09375 L 221.152344 169.199219 C 220.890625 169.394531 220.574219 169.503906 220.203125 169.503906 C 218.59375 169.503906 216.605469 167.5 215.765625 165.027344 C 215.140625 163.1875 215.328125 161.601562 216.132812 160.917969 L 216.132812 160.914062 L 215.097656 161.867188 L 215.101562 161.871094 C 214.296875 162.554688 214.109375 164.136719 214.734375 165.980469 C 214.867188 166.355469 215.023438 166.722656 215.203125 167.074219 C 214.667969 168.121094 213.308594 170.453125 210.984375 172.320312 C 210.761719 172.496094 210.71875 172.816406 210.890625 173.042969 Z M 203.199219 138.457031 C 202.429688 138.011719 201.441406 138.277344 200.992188 139.050781 L 195.453125 148.65625 C 195.578125 148.636719 195.703125 148.621094 195.828125 148.628906 L 199.097656 148.816406 L 203.792969 140.671875 C 204.238281 139.894531 203.972656 138.90625 203.199219 138.457031 Z M 190.488281 160.082031 C 190.535156 160.128906 190.609375 160.128906 190.65625 160.082031 C 191.304688 159.453125 191.9375 158.824219 192.597656 158.21875 C 193.257812 157.613281 193.914062 157.011719 194.613281 156.453125 C 194.953125 156.164062 195.292969 155.878906 195.644531 155.601562 C 195.96875 155.328125 196.328125 155.171875 196.734375 155.03125 C 197.546875 154.777344 198.476562 154.722656 199.347656 154.386719 C 199.414062 154.359375 199.453125 154.289062 199.4375 154.21875 C 199.421875 154.144531 199.34375 154.09375 199.265625 154.109375 C 198.40625 154.285156 197.507812 154.261719 196.582031 154.488281 C 196.246094 154.5625 195.90625 154.703125 195.601562 154.886719 L 195.726562 154.667969 L 195.339844 154.5625 C 194.664062 154.375 193.941406 154.554688 193.433594 155.039062 L 189.769531 158.523438 L 184.390625 167.863281 L 183.738281 171.546875 C 183.703125 171.753906 183.933594 171.894531 184.101562 171.773438 L 187.191406 169.480469 L 190.527344 163.699219 C 189.726562 162.734375 189.613281 161.324219 190.378906 160.238281 Z M 168.003906 94.183594 L 171.515625 94.550781 C 171.46875 94.53125 171.425781 94.503906 171.378906 94.484375 C 170.695312 94.1875 169.949219 94.046875 169.191406 94.238281 C 169.128906 94.257812 169.058594 94.21875 169.039062 94.15625 C 169.027344 94.105469 169.046875 94.050781 169.085938 94.023438 C 169.441406 93.757812 169.898438 93.644531 170.339844 93.636719 C 170.785156 93.621094 171.226562 93.726562 171.632812 93.894531 C 172.035156 94.070312 172.402344 94.300781 172.726562 94.574219 C 172.867188 94.695312 173.003906 94.820312 173.136719 94.945312 C 173.652344 95.273438 173.988281 95.8125 173.988281 96.414062 L 173.988281 97.394531 C 174.886719 97.046875 175.882812 97.136719 176.710938 97.640625 L 176.710938 97.046875 C 176.710938 96.566406 176.917969 96.113281 177.292969 95.773438 C 177.730469 95.378906 178.332031 95.191406 178.941406 95.253906 L 183.726562 95.757812 C 183.5625 95.652344 183.398438 95.539062 183.226562 95.449219 C 182.257812 94.933594 181.097656 94.703125 180.027344 95.109375 C 179.964844 95.132812 179.890625 95.105469 179.867188 95.039062 C 179.847656 94.988281 179.867188 94.929688 179.910156 94.898438 C 180.417969 94.523438 181.074219 94.371094 181.707031 94.394531 C 182.34375 94.40625 182.964844 94.59375 183.527344 94.882812 C 184.082031 95.175781 184.574219 95.5625 185.003906 95.992188 C 185.4375 96.421875 185.820312 96.878906 186.171875 97.363281 C 186.222656 97.429688 186.207031 97.519531 186.140625 97.566406 C 186.085938 97.605469 186.011719 97.605469 185.960938 97.5625 C 185.832031 97.453125 185.707031 97.34375 185.582031 97.234375 C 185.601562 97.339844 185.613281 97.449219 185.613281 97.558594 L 185.613281 98.777344 L 188.152344 98.09375 C 187.386719 95.878906 186.800781 94.488281 186.800781 94.488281 L 184.921875 89.695312 L 184.921875 94.488281 C 184.921875 94.488281 184.921875 94.488281 180.136719 92.09375 C 175.355469 89.695312 173.644531 84.5625 173.644531 84.5625 L 173.644531 92.09375 C 171.480469 91.515625 169.789062 90.261719 168.554688 89.011719 C 168.382812 90.347656 168.0625 92.140625 168.003906 94.183594 Z M 184.972656 97.558594 C 184.972656 96.976562 184.460938 96.480469 183.78125 96.410156 L 178.875 95.894531 C 178.441406 95.851562 178.023438 95.980469 177.722656 96.25 C 177.484375 96.464844 177.351562 96.75 177.351562 97.046875 L 177.351562 100.304688 C 177.351562 100.890625 177.863281 101.382812 178.546875 101.457031 L 183.449219 101.972656 C 183.882812 102.015625 184.300781 101.886719 184.601562 101.617188 C 184.84375 101.398438 184.972656 101.117188 184.972656 100.816406 Z M 172.976562 100.46875 C 173.214844 100.253906 173.347656 99.972656 173.347656 99.675781 L 173.347656 96.414062 C 173.347656 95.828125 172.835938 95.335938 172.152344 95.261719 L 167.996094 94.828125 C 168 96.003906 168.085938 97.246094 168.351562 98.539062 C 168.46875 99.109375 168.570312 99.773438 168.660156 100.496094 L 171.824219 100.824219 C 172.253906 100.871094 172.675781 100.742188 172.976562 100.46875 Z M 162.746094 121.339844 C 162.746094 121.339844 162.421875 114.546875 162.746094 99.160156 C 162.921875 90.707031 164.972656 83.707031 166.785156 79.109375 C 167.214844 77.644531 167.808594 76.320312 168.546875 75.132812 C 169.179688 73.863281 169.601562 73.179688 169.601562 73.179688 L 170.003906 73.179688 C 177.058594 65.105469 192.023438 65.203125 202.855469 71.210938 C 221.988281 81.824219 213.105469 114.855469 213.105469 114.855469 C 206.441406 119.816406 191.242188 122.726562 191.242188 122.726562 C 191.242188 122.726562 191.882812 120.316406 191.75 115.851562 C 191.410156 116.179688 191.054688 116.488281 190.679688 116.777344 C 189.824219 117.417969 188.882812 117.929688 187.917969 118.371094 C 186.941406 118.785156 185.941406 119.132812 184.929688 119.410156 C 183.914062 119.6875 182.890625 119.914062 181.859375 120.101562 C 181.796875 120.117188 181.730469 120.070312 181.71875 120.007812 C 181.707031 119.945312 181.742188 119.886719 181.800781 119.867188 L 184.769531 118.890625 C 185.75 118.558594 186.726562 118.21875 187.65625 117.785156 C 188.601562 117.378906 189.503906 116.882812 190.347656 116.3125 C 190.832031 115.984375 191.289062 115.621094 191.730469 115.234375 C 191.664062 113.765625 191.519531 112.101562 191.242188 110.234375 C 190.597656 105.910156 189.363281 101.6875 188.359375 98.703125 L 185.613281 99.441406 L 185.613281 100.816406 C 185.613281 101.300781 185.40625 101.75 185.03125 102.089844 C 184.652344 102.433594 184.148438 102.621094 183.617188 102.621094 C 183.539062 102.621094 183.460938 102.617188 183.382812 102.609375 L 178.480469 102.09375 C 177.472656 101.988281 176.710938 101.21875 176.710938 100.304688 L 176.710938 98.417969 L 176.609375 98.339844 C 175.847656 97.75 174.835938 97.664062 173.988281 98.097656 L 173.988281 99.675781 C 173.988281 99.816406 173.964844 99.957031 173.929688 100.089844 C 174.144531 99.847656 174.355469 99.605469 174.589844 99.382812 C 174.648438 99.328125 174.738281 99.328125 174.796875 99.386719 C 174.84375 99.4375 174.851562 99.515625 174.808594 99.570312 L 174.804688 99.578125 C 174.292969 100.277344 173.785156 100.992188 173.355469 101.734375 C 172.9375 102.460938 172.511719 103.269531 172.527344 104.007812 C 172.53125 104.1875 172.570312 104.347656 172.652344 104.480469 C 172.6875 104.546875 172.742188 104.605469 172.796875 104.664062 L 173.035156 104.847656 C 173.359375 105.082031 173.738281 105.242188 174.125 105.375 C 174.917969 105.613281 175.792969 105.660156 176.640625 105.578125 L 176.652344 105.578125 C 176.714844 105.570312 176.777344 105.621094 176.785156 105.6875 C 176.789062 105.75 176.75 105.800781 176.695312 105.816406 C 175.820312 106.058594 174.898438 106.101562 173.988281 105.894531 C 173.53125 105.796875 173.089844 105.605469 172.691406 105.34375 L 172.402344 105.128906 C 172.300781 105.035156 172.203125 104.933594 172.125 104.8125 C 171.96875 104.574219 171.902344 104.296875 171.886719 104.035156 C 171.875 103.507812 172.039062 103.050781 172.214844 102.628906 C 172.402344 102.203125 172.617188 101.804688 172.875 101.433594 C 172.929688 101.351562 172.992188 101.277344 173.050781 101.195312 C 172.734375 101.378906 172.371094 101.476562 171.992188 101.476562 C 171.914062 101.476562 171.835938 101.472656 171.757812 101.464844 L 168.738281 101.148438 C 169.097656 104.242188 169.351562 108.15625 170.0625 110.492188 C 171.328125 114.65625 173.640625 117.390625 175.644531 118.816406 C 166.84375 119.660156 162.746094 121.339844 162.746094 121.339844 Z M 255.460938 240.699219 L 258.175781 233.203125 L 254.996094 233.203125 Z M 222.070312 233.203125 L 225.015625 280.582031 C 233.800781 275.15625 241.617188 268.152344 248.492188 259.925781 L 249.960938 255.863281 L 248.507812 233.203125 Z M 225.015625 280.589844 L 225.015625 280.582031 C 224.898438 280.652344 224.785156 280.726562 224.667969 280.796875 C 224.78125 280.726562 224.902344 280.660156 225.015625 280.589844 Z M 187.875 233.203125 C 179.222656 250.589844 174.511719 280.53125 173.1875 289.980469 C 169.523438 290.714844 166.25 291.253906 163.789062 291.621094 C 166.804688 292.082031 169.824219 292.421875 172.832031 292.644531 C 172.832031 292.644531 172.832031 292.644531 172.832031 292.648438 C 172.929688 292.65625 173.035156 292.660156 173.136719 292.664062 C 174.996094 292.796875 176.859375 292.886719 178.714844 292.921875 C 179.375 292.933594 180.035156 292.941406 180.695312 292.941406 C 194.917969 292.941406 207.613281 289.746094 218.847656 284.054688 L 215.585938 233.203125 Z M 252.09375 219.667969 C 238.183594 219.5625 214.390625 219.535156 201.0625 220.375 C 198.011719 220.570312 195.230469 222.460938 192.703125 225.5 L 259.535156 225.5 C 258.699219 222.257812 255.792969 219.695312 252.09375 219.667969 Z M 139.203125 238.101562 L 141.851562 233.203125 L 84.835938 233.203125 C 82.105469 237.566406 79.625 242.53125 77.464844 247.429688 C 80.9375 250.621094 84.527344 253.683594 88.207031 256.613281 L 92.28125 254.910156 L 91.894531 254.875 C 91.894531 254.875 116.609375 245.289062 139.203125 238.101562 Z M 120.464844 218.800781 C 120.398438 218.660156 120.339844 218.515625 120.273438 218.375 C 119.734375 217.207031 119.210938 216.03125 118.65625 214.875 L 117 211.390625 L 117 211.386719 C 116.953125 211.292969 116.855469 211.226562 116.746094 211.226562 L 89.820312 211.386719 C 89.757812 211.386719 89.699219 211.4375 89.699219 211.507812 C 89.699219 211.574219 89.753906 211.628906 89.820312 211.628906 L 116.566406 211.789062 L 118.085938 215.140625 C 118.613281 216.3125 119.175781 217.46875 119.71875 218.632812 C 120.261719 219.800781 120.820312 220.957031 121.386719 222.113281 C 121.941406 223.273438 122.535156 224.414062 123.113281 225.5625 C 123.148438 225.632812 123.230469 225.660156 123.300781 225.632812 C 123.355469 225.609375 123.375 225.554688 123.378906 225.5 L 146.019531 225.5 L 149.457031 219.152344 C 148.761719 218.914062 148.042969 218.773438 147.3125 218.765625 C 140.113281 218.699219 130.039062 218.660156 120.464844 218.800781 Z M 151.941406 138.867188 L 154.363281 136.984375 C 153.425781 137.351562 152.597656 138.011719 151.941406 138.867188 Z M 241.957031 141.160156 C 241.957031 137.085938 239.015625 133.886719 235.414062 134.007812 L 213.160156 134.75 C 215.742188 136.996094 217.84375 139.78125 219.28125 142.925781 L 241.957031 173.699219 Z M 235.414062 204.082031 L 213.054688 203.339844 C 213.480469 195.453125 214.378906 187.597656 215.757812 179.8125 C 216.554688 180.578125 217.390625 181.3125 218.277344 182.003906 L 230.542969 196.851562 C 233.144531 200 237.09375 201.414062 240.894531 200.90625 C 239.726562 202.886719 237.707031 204.160156 235.414062 204.082031 "/>
</g>
</g>
</svg>
