<?xml version="1.0" encoding="UTF-8"?>
<svg xmlns="http://www.w3.org/2000/svg" xmlns:xlink="http://www.w3.org/1999/xlink" width="300pt" height="299.999988pt" viewBox="0 0 300 299.999988" version="1.2">
<defs>
<clipPath id="clip1">
  <path d="M 7.296875 15 L 285.507812 15 L 285.507812 284.976562 L 7.296875 284.976562 Z M 7.296875 15 "/>
</clipPath>
<clipPath id="clip2">
  <path d="M 0.101562 20.394531 L 299.917969 20.394531 L 299.917969 284.976562 L 0.101562 284.976562 Z M 0.101562 20.394531 "/>
</clipPath>
</defs>
<g id="surface1">
<g clip-path="url(#clip1)" clip-rule="nonzero">
<path style=" stroke:none;fill-rule:nonzero;fill:rgb(98.039246%,70.199585%,15.689087%);fill-opacity:1;" d="M 50.988281 147.597656 L 23.121094 147.597656 C 22.007812 147.597656 21.109375 146.695312 21.109375 145.585938 L 21.109375 142.105469 C 21.109375 140.992188 22.007812 140.09375 23.121094 140.09375 L 50.988281 140.09375 C 52.097656 140.09375 53 140.992188 53 142.105469 L 53 145.585938 C 53 146.695312 52.097656 147.597656 50.988281 147.597656 Z M 7.488281 123.863281 L 7.488281 112.597656 L 13.597656 112.597656 L 13.597656 123.863281 C 13.597656 124.261719 13.273438 124.589844 12.871094 124.589844 L 8.214844 124.589844 C 7.816406 124.589844 7.488281 124.261719 7.488281 123.863281 Z M 58.074219 46.265625 L 58.035156 46.257812 L 58.035156 40.28125 C 58.035156 26.320312 46.714844 15 32.753906 15 C 18.789062 15 7.472656 26.320312 7.472656 40.28125 L 7.472656 51.96875 L 8.871094 51.96875 L 14.636719 72.449219 C 14.863281 73.253906 15.699219 73.71875 16.5 73.492188 L 20.058594 72.492188 C 20.863281 72.265625 21.328125 71.429688 21.105469 70.628906 L 14.066406 45.644531 C 13.839844 44.84375 13.007812 44.375 12.203125 44.601562 L 10.027344 45.214844 L 10.027344 41.378906 C 10.027344 28.71875 20.203125 20.628906 32.753906 20.628906 C 45.304688 20.628906 55.476562 28.71875 55.476562 41.378906 L 55.476562 45.535156 L 54.511719 45.261719 C 53.710938 45.039062 52.878906 45.503906 52.652344 46.308594 L 45.613281 71.292969 C 45.386719 72.09375 45.855469 72.925781 46.65625 73.152344 L 50.21875 74.15625 C 51.019531 74.382812 51.851562 73.914062 52.082031 73.113281 L 59.117188 48.128906 C 59.34375 47.328125 58.875 46.492188 58.074219 46.265625 Z M 125.269531 54.335938 L 126.171875 55.238281 L 133.140625 48.269531 L 132.238281 47.367188 Z M 133.070312 45.058594 L 132.167969 44.15625 L 125.199219 51.125 L 126.101562 52.023438 Z M 276.988281 284.976562 L 20.421875 284.976562 C 20.421875 284.976562 39.03125 243.464844 60.445312 220.507812 C 81.859375 197.550781 67.828125 182.984375 82.777344 148.578125 C 122.875 56.3125 185.691406 44.550781 236.628906 57.753906 C 322.980469 80.125 216.574219 140.765625 260.203125 152.300781 C 303.832031 163.835938 276.988281 284.976562 276.988281 284.976562 "/>
</g>
<path style=" stroke:none;fill-rule:nonzero;fill:rgb(93.728638%,16.859436%,27.839661%);fill-opacity:1;" d="M 47.664062 227.300781 L 17.621094 227.300781 C 17.066406 227.300781 16.617188 227.75 16.617188 228.304688 L 16.617188 230.574219 L 18.84375 230.574219 L 20.859375 252.730469 L 44.429688 252.730469 L 46.445312 230.574219 L 48.667969 230.574219 L 48.667969 228.304688 C 48.667969 227.75 48.21875 227.300781 47.664062 227.300781 Z M 152.472656 219.875 C 152.472656 216.046875 148.8125 212.945312 144.296875 212.945312 C 139.78125 212.945312 136.121094 216.046875 136.121094 219.875 C 136.121094 223.699219 139.78125 226.800781 144.296875 226.800781 C 148.8125 226.800781 152.472656 223.699219 152.472656 219.875 Z M 201.398438 189.457031 L 205.046875 197.019531 L 205.046875 189.457031 Z M 217.195312 217.480469 L 216.992188 220.988281 L 188.035156 230.550781 L 187.128906 227.597656 L 185.472656 250.46875 L 180.707031 250.617188 L 181.070312 247.25 C 181.195312 246.6875 180.832031 246.144531 180.328125 246.144531 L 111.058594 246.144531 L 107.09375 215.042969 L 91.304688 232.472656 L 67.402344 218.652344 L 67.121094 213.996094 C 67.039062 212.613281 68.050781 211.414062 69.425781 211.261719 L 71.125 211.074219 L 101.496094 171.113281 L 146.914062 153.8125 L 191.386719 168.699219 L 200.679688 187.96875 L 205.097656 187.96875 C 205.476562 187.96875 205.804688 188.109375 206.082031 188.390625 C 206.359375 188.667969 206.5 189 206.5 189.386719 L 206.5 198.191406 C 206.5 198.574219 206.363281 198.910156 206.089844 199.183594 L 213.328125 214.195312 L 215.378906 214.84375 C 216.511719 215.199219 217.261719 216.289062 217.195312 217.480469 Z M 240.679688 74.582031 L 246.023438 74.582031 C 246.445312 74.582031 246.789062 74.242188 246.789062 73.816406 L 246.789062 72.878906 L 239.910156 72.878906 L 239.910156 73.816406 C 239.910156 74.242188 240.253906 74.582031 240.679688 74.582031 Z M 161.460938 55.683594 C 162.800781 55.683594 163.894531 54.59375 163.894531 53.25 C 163.894531 51.90625 162.800781 50.816406 161.460938 50.816406 C 160.121094 50.816406 159.027344 51.90625 159.027344 53.25 C 159.027344 54.59375 160.121094 55.683594 161.460938 55.683594 Z M 158.789062 35.507812 L 99.585938 35.507812 L 99.585938 70.992188 L 158.789062 70.992188 Z M 227.410156 194.335938 C 227.207031 194.335938 227.03125 194.410156 226.890625 194.554688 C 226.746094 194.699219 226.675781 194.871094 226.675781 195.070312 L 226.675781 198.136719 L 225.207031 198.136719 L 225.207031 187.988281 L 221.507812 187.988281 C 221.304688 187.988281 221.128906 188.058594 220.988281 188.199219 C 220.84375 188.34375 220.773438 188.519531 220.773438 188.722656 C 220.773438 188.925781 220.84375 189.097656 220.988281 189.242188 C 221.128906 189.386719 221.304688 189.457031 221.507812 189.457031 L 223.730469 189.457031 L 223.730469 198.136719 L 221.472656 198.136719 C 221.269531 198.136719 221.09375 198.207031 220.953125 198.347656 C 220.808594 198.488281 220.738281 198.65625 220.738281 198.855469 C 220.738281 199.058594 220.808594 199.234375 220.953125 199.382812 C 221.09375 199.53125 221.269531 199.605469 221.472656 199.605469 L 227.410156 199.605469 C 227.617188 199.605469 227.789062 199.535156 227.929688 199.390625 C 228.074219 199.25 228.148438 199.074219 228.148438 198.871094 L 228.148438 195.070312 C 228.148438 194.867188 228.074219 194.691406 227.929688 194.550781 C 227.789062 194.40625 227.617188 194.335938 227.410156 194.335938 Z M 215.878906 189.457031 L 211.394531 189.457031 L 211.394531 198.136719 L 215.878906 198.136719 Z M 216.917969 188.390625 C 217.191406 188.667969 217.332031 189 217.332031 189.386719 L 217.332031 198.191406 C 217.332031 198.582031 217.191406 198.914062 216.917969 199.191406 C 216.636719 199.46875 216.304688 199.605469 215.914062 199.605469 L 211.34375 199.605469 C 210.945312 199.605469 210.609375 199.46875 210.335938 199.191406 C 210.0625 198.914062 209.921875 198.582031 209.921875 198.191406 L 209.921875 189.386719 C 209.921875 189 210.0625 188.667969 210.34375 188.390625 C 210.621094 188.109375 210.957031 187.96875 211.34375 187.96875 L 215.929688 187.96875 C 216.308594 187.96875 216.636719 188.109375 216.917969 188.390625 Z M 272.035156 159.628906 L 272.035156 162.308594 L 270.5625 162.308594 L 270.5625 158.125 C 270.089844 157.671875 269.597656 157.242188 269.09375 156.828125 L 269.09375 162.308594 L 266.832031 162.308594 C 266.628906 162.308594 266.457031 162.378906 266.3125 162.519531 C 266.171875 162.660156 266.101562 162.828125 266.101562 163.027344 C 266.101562 163.230469 266.171875 163.40625 266.3125 163.558594 C 266.457031 163.707031 266.628906 163.78125 266.832031 163.78125 L 272.769531 163.78125 C 272.972656 163.78125 273.148438 163.710938 273.292969 163.566406 C 273.4375 163.421875 273.507812 163.25 273.507812 163.046875 L 273.507812 161.390625 C 273.03125 160.78125 272.542969 160.191406 272.035156 159.628906 Z M 261.238281 153.632812 L 256.753906 153.632812 L 256.753906 162.308594 L 261.238281 162.308594 Z M 262.605469 153.078125 C 262.660156 153.230469 262.691406 153.386719 262.691406 153.5625 L 262.691406 162.363281 C 262.691406 162.753906 262.554688 163.085938 262.277344 163.363281 C 262 163.640625 261.664062 163.78125 261.273438 163.78125 L 256.699219 163.78125 C 256.304688 163.78125 255.96875 163.640625 255.695312 163.363281 C 255.417969 163.085938 255.285156 162.753906 255.285156 162.363281 L 255.285156 153.5625 C 255.285156 153.175781 255.425781 152.84375 255.703125 152.5625 C 255.984375 152.28125 256.316406 152.140625 256.699219 152.140625 L 259.640625 152.140625 C 259.824219 152.195312 260.011719 152.25 260.203125 152.300781 C 261.027344 152.519531 261.828125 152.78125 262.605469 153.078125 Z M 250.40625 153.632812 L 245.921875 153.632812 L 245.921875 162.308594 L 250.40625 162.308594 Z M 251.441406 152.5625 C 251.722656 152.84375 251.859375 153.175781 251.859375 153.5625 L 251.859375 162.363281 C 251.859375 162.753906 251.722656 163.085938 251.441406 163.363281 C 251.167969 163.640625 250.832031 163.78125 250.441406 163.78125 L 245.871094 163.78125 C 245.472656 163.78125 245.136719 163.640625 244.863281 163.363281 C 244.589844 163.085938 244.449219 162.753906 244.449219 162.363281 L 244.449219 153.5625 C 244.449219 153.175781 244.589844 152.84375 244.871094 152.5625 C 245.152344 152.28125 245.484375 152.140625 245.871094 152.140625 L 250.457031 152.140625 C 250.839844 152.140625 251.167969 152.28125 251.441406 152.5625 Z M 240.273438 158.511719 C 240.070312 158.511719 239.894531 158.582031 239.753906 158.726562 C 239.609375 158.875 239.539062 159.046875 239.539062 159.242188 L 239.539062 162.308594 L 238.070312 162.308594 L 238.070312 152.160156 L 234.371094 152.160156 C 234.167969 152.160156 233.996094 152.230469 233.851562 152.375 C 233.707031 152.519531 233.636719 152.691406 233.636719 152.894531 C 233.636719 153.101562 233.707031 153.273438 233.851562 153.417969 C 233.996094 153.558594 234.167969 153.632812 234.371094 153.632812 L 236.597656 153.632812 L 236.597656 162.308594 L 234.335938 162.308594 C 234.132812 162.308594 233.957031 162.378906 233.816406 162.519531 C 233.675781 162.660156 233.601562 162.828125 233.601562 163.027344 C 233.601562 163.230469 233.675781 163.40625 233.816406 163.558594 C 233.957031 163.707031 234.132812 163.78125 234.335938 163.78125 L 240.273438 163.78125 C 240.480469 163.78125 240.652344 163.710938 240.792969 163.566406 C 240.9375 163.421875 241.011719 163.25 241.011719 163.046875 L 241.011719 159.242188 C 241.011719 159.039062 240.9375 158.867188 240.792969 158.722656 C 240.652344 158.582031 240.480469 158.511719 240.273438 158.511719 Z M 228.742188 153.632812 L 224.257812 153.632812 L 224.257812 162.308594 L 228.742188 162.308594 Z M 229.78125 152.5625 C 230.054688 152.84375 230.195312 153.175781 230.195312 153.5625 L 230.195312 162.363281 C 230.195312 162.753906 230.054688 163.085938 229.78125 163.363281 C 229.5 163.640625 229.167969 163.78125 228.777344 163.78125 L 224.207031 163.78125 C 223.808594 163.78125 223.472656 163.640625 223.199219 163.363281 C 222.925781 163.085938 222.785156 162.753906 222.785156 162.363281 L 222.785156 153.5625 C 222.785156 153.175781 222.925781 152.84375 223.207031 152.5625 C 223.484375 152.28125 223.820312 152.140625 224.207031 152.140625 L 228.792969 152.140625 C 229.171875 152.140625 229.5 152.28125 229.78125 152.5625 Z M 211.289062 120.046875 L 215.769531 120.046875 L 215.769531 111.371094 L 211.289062 111.371094 Z M 211.238281 109.878906 L 215.824219 109.878906 C 216.203125 109.878906 216.53125 110.019531 216.8125 110.300781 C 217.085938 110.578125 217.226562 110.914062 217.226562 111.300781 L 217.226562 120.101562 C 217.226562 120.492188 217.085938 120.824219 216.8125 121.101562 C 216.53125 121.378906 216.199219 121.519531 215.808594 121.519531 L 211.238281 121.519531 C 210.839844 121.519531 210.503906 121.378906 210.230469 121.101562 C 209.957031 120.824219 209.816406 120.492188 209.816406 120.101562 L 209.816406 111.300781 C 209.816406 110.914062 209.957031 110.578125 210.238281 110.300781 C 210.515625 110.019531 210.851562 109.878906 211.238281 109.878906 Z M 199.703125 120.046875 C 199.5 120.046875 199.324219 120.117188 199.179688 120.257812 C 199.039062 120.398438 198.96875 120.566406 198.96875 120.765625 C 198.96875 120.96875 199.039062 121.144531 199.179688 121.296875 C 199.324219 121.441406 199.5 121.519531 199.703125 121.519531 L 205.640625 121.519531 C 205.84375 121.519531 206.019531 121.449219 206.160156 121.304688 C 206.304688 121.160156 206.375 120.988281 206.375 120.785156 L 206.375 116.984375 C 206.375 116.777344 206.304688 116.605469 206.160156 116.460938 C 206.019531 116.320312 205.84375 116.25 205.640625 116.25 C 205.433594 116.25 205.261719 116.320312 205.117188 116.464844 C 204.976562 116.613281 204.90625 116.785156 204.90625 116.984375 L 204.90625 120.046875 L 203.433594 120.046875 L 203.433594 109.898438 L 199.738281 109.898438 C 199.535156 109.898438 199.359375 109.972656 199.21875 110.113281 C 199.074219 110.257812 199.003906 110.429688 199.003906 110.632812 C 199.003906 110.839844 199.074219 111.011719 199.21875 111.152344 C 199.359375 111.300781 199.535156 111.371094 199.738281 111.371094 L 201.964844 111.371094 L 201.964844 120.046875 Z M 189.625 120.046875 L 194.109375 120.046875 L 194.109375 111.371094 L 189.625 111.371094 Z M 189.570312 109.878906 L 194.160156 109.878906 C 194.539062 109.878906 194.867188 110.019531 195.144531 110.300781 C 195.421875 110.578125 195.558594 110.914062 195.558594 111.300781 L 195.558594 120.101562 C 195.558594 120.492188 195.421875 120.824219 195.144531 121.101562 C 194.867188 121.378906 194.535156 121.519531 194.144531 121.519531 L 189.570312 121.519531 C 189.175781 121.519531 188.839844 121.378906 188.5625 121.101562 C 188.289062 120.824219 188.152344 120.492188 188.152344 120.101562 L 188.152344 111.300781 C 188.152344 110.914062 188.292969 110.578125 188.574219 110.300781 C 188.855469 110.019531 189.1875 109.878906 189.570312 109.878906 Z M 181.769531 109.898438 L 178.074219 109.898438 C 177.871094 109.898438 177.695312 109.972656 177.554688 110.113281 C 177.410156 110.257812 177.339844 110.429688 177.339844 110.632812 C 177.339844 110.839844 177.410156 111.011719 177.554688 111.152344 C 177.695312 111.300781 177.871094 111.371094 178.074219 111.371094 L 180.296875 111.371094 L 180.296875 120.046875 L 178.039062 120.046875 C 177.835938 120.046875 177.660156 120.117188 177.519531 120.257812 C 177.375 120.398438 177.304688 120.566406 177.304688 120.765625 C 177.304688 120.96875 177.375 121.144531 177.519531 121.296875 C 177.660156 121.441406 177.835938 121.519531 178.039062 121.519531 L 183.976562 121.519531 C 184.179688 121.519531 184.355469 121.449219 184.496094 121.304688 C 184.640625 121.160156 184.710938 120.988281 184.710938 120.785156 L 184.710938 116.984375 C 184.710938 116.777344 184.640625 116.605469 184.496094 116.460938 C 184.355469 116.320312 184.179688 116.25 183.976562 116.25 C 183.773438 116.25 183.597656 116.320312 183.457031 116.464844 C 183.3125 116.613281 183.242188 116.785156 183.242188 116.984375 L 183.242188 120.046875 L 181.769531 120.046875 Z M 167.960938 120.046875 L 172.441406 120.046875 L 172.441406 111.371094 L 167.960938 111.371094 Z M 167.90625 109.878906 L 172.496094 109.878906 C 172.875 109.878906 173.203125 110.019531 173.480469 110.300781 C 173.757812 110.578125 173.898438 110.914062 173.898438 111.300781 L 173.898438 120.101562 C 173.898438 120.492188 173.757812 120.824219 173.480469 121.101562 C 173.203125 121.378906 172.867188 121.519531 172.476562 121.519531 L 167.90625 121.519531 C 167.511719 121.519531 167.175781 121.378906 166.902344 121.101562 C 166.625 120.824219 166.488281 120.492188 166.488281 120.101562 L 166.488281 111.300781 C 166.488281 110.914062 166.628906 110.578125 166.910156 110.300781 C 167.1875 110.019531 167.523438 109.878906 167.90625 109.878906 Z M 156.375 120.046875 C 156.167969 120.046875 155.996094 120.117188 155.851562 120.257812 C 155.710938 120.398438 155.640625 120.566406 155.640625 120.765625 C 155.640625 120.96875 155.710938 121.144531 155.851562 121.296875 C 155.996094 121.441406 156.167969 121.519531 156.375 121.519531 L 162.308594 121.519531 C 162.515625 121.519531 162.691406 121.449219 162.832031 121.304688 C 162.976562 121.160156 163.046875 120.988281 163.046875 120.785156 L 163.046875 116.984375 C 163.046875 116.777344 162.976562 116.605469 162.832031 116.460938 C 162.691406 116.320312 162.515625 116.25 162.308594 116.25 C 162.105469 116.25 161.933594 116.320312 161.789062 116.464844 C 161.648438 116.613281 161.574219 116.785156 161.574219 116.984375 L 161.574219 120.046875 L 160.105469 120.046875 L 160.105469 109.898438 L 156.410156 109.898438 C 156.203125 109.898438 156.03125 109.972656 155.886719 110.113281 C 155.746094 110.257812 155.675781 110.429688 155.675781 110.632812 C 155.675781 110.839844 155.746094 111.011719 155.886719 111.152344 C 156.03125 111.300781 156.203125 111.371094 156.410156 111.371094 L 158.632812 111.371094 L 158.632812 120.046875 Z M 145.542969 120.046875 C 145.335938 120.046875 145.164062 120.117188 145.019531 120.257812 C 144.878906 120.398438 144.808594 120.566406 144.808594 120.765625 C 144.808594 120.96875 144.878906 121.144531 145.019531 121.296875 C 145.164062 121.441406 145.335938 121.519531 145.542969 121.519531 L 151.480469 121.519531 C 151.683594 121.519531 151.855469 121.449219 152 121.304688 C 152.144531 121.160156 152.214844 120.988281 152.214844 120.785156 L 152.214844 116.984375 C 152.214844 116.777344 152.144531 116.605469 152 116.460938 C 151.855469 116.320312 151.683594 116.25 151.480469 116.25 C 151.273438 116.25 151.101562 116.320312 150.957031 116.464844 C 150.816406 116.613281 150.742188 116.785156 150.742188 116.984375 L 150.742188 120.046875 L 149.273438 120.046875 L 149.273438 109.898438 L 145.578125 109.898438 C 145.371094 109.898438 145.199219 109.972656 145.058594 110.113281 C 144.914062 110.257812 144.84375 110.429688 144.84375 110.632812 C 144.84375 110.839844 144.914062 111.011719 145.058594 111.152344 C 145.199219 111.300781 145.371094 111.371094 145.578125 111.371094 L 147.804688 111.371094 L 147.804688 120.046875 Z M 135.464844 120.046875 L 139.949219 120.046875 L 139.949219 111.371094 L 135.464844 111.371094 Z M 134.402344 121.101562 C 134.128906 120.824219 133.992188 120.492188 133.992188 120.101562 L 133.992188 111.300781 C 133.992188 110.914062 134.132812 110.578125 134.414062 110.300781 C 134.695312 110.019531 135.023438 109.878906 135.410156 109.878906 L 140 109.878906 C 140.378906 109.878906 140.707031 110.019531 140.984375 110.300781 C 141.261719 110.578125 141.398438 110.914062 141.398438 111.300781 L 141.398438 120.101562 C 141.398438 120.492188 141.261719 120.824219 140.984375 121.101562 C 140.707031 121.378906 140.375 121.519531 139.984375 121.519531 L 135.410156 121.519531 C 135.015625 121.519531 134.675781 121.378906 134.402344 121.101562 Z M 256.773438 90.714844 L 252.289062 90.714844 L 252.289062 99.390625 L 256.773438 99.390625 Z M 256.808594 100.863281 L 252.238281 100.863281 C 251.839844 100.863281 251.503906 100.722656 251.230469 100.445312 C 250.957031 100.167969 250.816406 99.835938 250.816406 99.441406 L 250.816406 90.640625 C 250.816406 90.257812 250.957031 89.925781 251.238281 89.644531 C 251.515625 89.363281 251.851562 89.222656 252.238281 89.222656 L 256.824219 89.222656 C 257.203125 89.222656 257.53125 89.363281 257.8125 89.644531 C 258.085938 89.925781 258.226562 90.257812 258.226562 90.640625 L 258.226562 99.441406 C 258.226562 99.835938 258.085938 100.167969 257.8125 100.445312 C 257.53125 100.722656 257.199219 100.863281 256.808594 100.863281 Z M 246.121094 95.808594 C 245.976562 95.957031 245.90625 96.128906 245.90625 96.324219 L 245.90625 99.390625 L 244.433594 99.390625 L 244.433594 89.242188 L 240.738281 89.242188 C 240.535156 89.242188 240.359375 89.3125 240.21875 89.457031 C 240.074219 89.597656 240.003906 89.773438 240.003906 89.976562 C 240.003906 90.183594 240.074219 90.355469 240.21875 90.5 C 240.359375 90.640625 240.535156 90.714844 240.738281 90.714844 L 242.964844 90.714844 L 242.964844 99.390625 L 240.703125 99.390625 C 240.5 99.390625 240.328125 99.460938 240.179688 99.601562 C 240.039062 99.742188 239.96875 99.910156 239.96875 100.109375 C 239.96875 100.3125 240.039062 100.488281 240.179688 100.636719 C 240.328125 100.789062 240.5 100.863281 240.703125 100.863281 L 246.640625 100.863281 C 246.84375 100.863281 247.019531 100.789062 247.164062 100.648438 C 247.304688 100.503906 247.375 100.332031 247.375 100.125 L 247.375 96.324219 C 247.375 96.121094 247.304688 95.949219 247.164062 95.804688 C 247.019531 95.660156 246.84375 95.589844 246.640625 95.589844 C 246.4375 95.589844 246.265625 95.664062 246.121094 95.808594 Z M 235.109375 90.714844 L 230.625 90.714844 L 230.625 99.390625 L 235.109375 99.390625 Z M 235.144531 100.863281 L 230.570312 100.863281 C 230.175781 100.863281 229.839844 100.722656 229.5625 100.445312 C 229.289062 100.167969 229.152344 99.835938 229.152344 99.441406 L 229.152344 90.640625 C 229.152344 90.257812 229.292969 89.925781 229.574219 89.644531 C 229.855469 89.363281 230.1875 89.222656 230.570312 89.222656 L 235.160156 89.222656 C 235.539062 89.222656 235.871094 89.363281 236.144531 89.644531 C 236.425781 89.925781 236.5625 90.257812 236.5625 90.640625 L 236.5625 99.441406 C 236.5625 99.835938 236.425781 100.167969 236.144531 100.445312 C 235.871094 100.722656 235.535156 100.863281 235.144531 100.863281 Z M 225.5 100.648438 C 225.640625 100.503906 225.710938 100.332031 225.710938 100.125 L 225.710938 96.324219 C 225.710938 96.121094 225.640625 95.949219 225.5 95.804688 C 225.355469 95.660156 225.183594 95.589844 224.976562 95.589844 C 224.773438 95.589844 224.597656 95.664062 224.457031 95.808594 C 224.3125 95.957031 224.242188 96.128906 224.242188 96.324219 L 224.242188 99.390625 L 222.769531 99.390625 L 222.769531 89.242188 L 219.074219 89.242188 C 218.871094 89.242188 218.695312 89.3125 218.554688 89.457031 C 218.410156 89.597656 218.339844 89.773438 218.339844 89.976562 C 218.339844 90.183594 218.410156 90.355469 218.554688 90.5 C 218.695312 90.640625 218.871094 90.714844 219.074219 90.714844 L 221.296875 90.714844 L 221.296875 99.390625 L 219.039062 99.390625 C 218.835938 99.390625 218.660156 99.460938 218.519531 99.601562 C 218.375 99.742188 218.304688 99.910156 218.304688 100.109375 C 218.304688 100.3125 218.375 100.488281 218.519531 100.636719 C 218.660156 100.789062 218.835938 100.863281 219.039062 100.863281 L 224.976562 100.863281 C 225.183594 100.863281 225.355469 100.789062 225.5 100.648438 Z M 213.441406 90.714844 L 208.960938 90.714844 L 208.960938 99.390625 L 213.441406 99.390625 Z M 213.496094 89.222656 C 213.875 89.222656 214.203125 89.363281 214.480469 89.644531 C 214.757812 89.925781 214.898438 90.257812 214.898438 90.640625 L 214.898438 99.441406 C 214.898438 99.835938 214.757812 100.167969 214.480469 100.445312 C 214.203125 100.722656 213.867188 100.863281 213.476562 100.863281 L 208.910156 100.863281 C 208.511719 100.863281 208.175781 100.722656 207.902344 100.445312 C 207.625 100.167969 207.488281 99.835938 207.488281 99.441406 L 207.488281 90.640625 C 207.488281 90.257812 207.628906 89.925781 207.910156 89.644531 C 208.1875 89.363281 208.523438 89.222656 208.910156 89.222656 Z M 197.375 99.390625 C 197.171875 99.390625 196.996094 99.460938 196.851562 99.601562 C 196.710938 99.742188 196.640625 99.910156 196.640625 100.109375 C 196.640625 100.3125 196.710938 100.488281 196.851562 100.636719 C 196.996094 100.789062 197.171875 100.863281 197.375 100.863281 L 203.308594 100.863281 C 203.515625 100.863281 203.691406 100.789062 203.832031 100.648438 C 203.976562 100.503906 204.046875 100.332031 204.046875 100.125 L 204.046875 96.324219 C 204.046875 96.121094 203.976562 95.949219 203.832031 95.804688 C 203.691406 95.660156 203.515625 95.589844 203.308594 95.589844 C 203.105469 95.589844 202.933594 95.664062 202.789062 95.808594 C 202.648438 95.957031 202.574219 96.128906 202.574219 96.324219 L 202.574219 99.390625 L 201.105469 99.390625 L 201.105469 89.242188 L 197.410156 89.242188 C 197.203125 89.242188 197.03125 89.3125 196.886719 89.457031 C 196.746094 89.597656 196.675781 89.773438 196.675781 89.976562 C 196.675781 90.183594 196.746094 90.355469 196.886719 90.5 C 197.03125 90.640625 197.203125 90.714844 197.410156 90.714844 L 199.632812 90.714844 L 199.632812 99.390625 Z M 191.957031 95.808594 C 191.816406 95.957031 191.746094 96.128906 191.746094 96.324219 L 191.746094 99.390625 L 190.273438 99.390625 L 190.273438 89.242188 L 186.578125 89.242188 C 186.371094 89.242188 186.199219 89.3125 186.058594 89.457031 C 185.914062 89.597656 185.84375 89.773438 185.84375 89.976562 C 185.84375 90.183594 185.914062 90.355469 186.058594 90.5 C 186.199219 90.640625 186.371094 90.714844 186.578125 90.714844 L 188.804688 90.714844 L 188.804688 99.390625 L 186.542969 99.390625 C 186.339844 99.390625 186.164062 99.460938 186.019531 99.601562 C 185.878906 99.742188 185.808594 99.910156 185.808594 100.109375 C 185.808594 100.3125 185.878906 100.488281 186.019531 100.636719 C 186.164062 100.789062 186.339844 100.863281 186.542969 100.863281 L 192.480469 100.863281 C 192.683594 100.863281 192.855469 100.789062 193 100.648438 C 193.144531 100.503906 193.214844 100.332031 193.214844 100.125 L 193.214844 96.324219 C 193.214844 96.121094 193.144531 95.949219 193 95.804688 C 192.855469 95.660156 192.683594 95.589844 192.480469 95.589844 C 192.277344 95.589844 192.101562 95.664062 191.957031 95.808594 Z M 180.949219 90.714844 L 176.464844 90.714844 L 176.464844 99.390625 L 180.949219 99.390625 Z M 181 89.222656 C 181.378906 89.222656 181.707031 89.363281 181.984375 89.644531 C 182.261719 89.925781 182.398438 90.257812 182.398438 90.640625 L 182.398438 99.441406 C 182.398438 99.835938 182.261719 100.167969 181.984375 100.445312 C 181.707031 100.722656 181.375 100.863281 180.984375 100.863281 L 176.410156 100.863281 C 176.015625 100.863281 175.675781 100.722656 175.402344 100.445312 C 175.128906 100.167969 174.992188 99.835938 174.992188 99.441406 L 174.992188 90.640625 C 174.992188 90.257812 175.132812 89.925781 175.414062 89.644531 C 175.691406 89.363281 176.023438 89.222656 176.410156 89.222656 Z M 208.480469 84.128906 L 212.964844 84.128906 L 212.964844 75.449219 L 208.480469 75.449219 Z M 207.421875 85.183594 C 207.148438 84.90625 207.011719 84.574219 207.011719 84.179688 L 207.011719 75.378906 C 207.011719 74.996094 207.152344 74.664062 207.429688 74.382812 C 207.710938 74.101562 208.042969 73.960938 208.429688 73.960938 L 213.019531 73.960938 C 213.394531 73.960938 213.726562 74.101562 214.003906 74.382812 C 214.277344 74.664062 214.417969 74.996094 214.417969 75.378906 L 214.417969 84.179688 C 214.417969 84.574219 214.277344 84.90625 214.003906 85.183594 C 213.726562 85.460938 213.390625 85.601562 213 85.601562 L 208.429688 85.601562 C 208.03125 85.601562 207.699219 85.460938 207.421875 85.183594 Z M 196.898438 84.128906 C 196.691406 84.128906 196.519531 84.199219 196.375 84.339844 C 196.234375 84.480469 196.160156 84.648438 196.160156 84.847656 C 196.160156 85.050781 196.234375 85.226562 196.375 85.375 C 196.519531 85.527344 196.691406 85.601562 196.898438 85.601562 L 202.832031 85.601562 C 203.035156 85.601562 203.210938 85.527344 203.355469 85.386719 C 203.496094 85.242188 203.570312 85.070312 203.570312 84.863281 L 203.570312 81.0625 C 203.570312 80.859375 203.496094 80.6875 203.355469 80.542969 C 203.210938 80.398438 203.035156 80.328125 202.832031 80.328125 C 202.628906 80.328125 202.457031 80.402344 202.3125 80.546875 C 202.167969 80.695312 202.097656 80.863281 202.097656 81.0625 L 202.097656 84.128906 L 200.625 84.128906 L 200.625 74.582031 L 205.488281 74.582031 C 205.90625 74.582031 206.253906 74.242188 206.253906 73.816406 L 206.253906 72.878906 L 199.375 72.878906 L 199.375 73.816406 C 199.375 73.875 199.398438 73.925781 199.410156 73.980469 L 196.929688 73.980469 C 196.726562 73.980469 196.554688 74.050781 196.410156 74.195312 C 196.265625 74.335938 196.199219 74.511719 196.199219 74.714844 C 196.199219 74.921875 196.265625 75.09375 196.410156 75.238281 C 196.554688 75.378906 196.726562 75.449219 196.929688 75.449219 L 199.15625 75.449219 L 199.15625 84.128906 Z M 186.816406 84.128906 L 191.300781 84.128906 L 191.300781 75.449219 L 186.816406 75.449219 Z M 185.757812 85.183594 C 185.484375 84.90625 185.347656 84.574219 185.347656 84.179688 L 185.347656 75.378906 C 185.347656 74.996094 185.488281 74.664062 185.765625 74.382812 C 186.046875 74.101562 186.378906 73.960938 186.765625 73.960938 L 191.355469 73.960938 C 191.734375 73.960938 192.0625 74.101562 192.335938 74.382812 C 192.617188 74.664062 192.753906 74.996094 192.753906 75.378906 L 192.753906 84.179688 C 192.753906 84.574219 192.617188 84.90625 192.335938 85.183594 C 192.0625 85.460938 191.726562 85.601562 191.335938 85.601562 L 186.765625 85.601562 C 186.367188 85.601562 186.03125 85.460938 185.757812 85.183594 Z M 175.988281 84.128906 L 180.46875 84.128906 L 180.46875 75.449219 L 175.988281 75.449219 Z M 174.925781 85.183594 C 174.652344 84.90625 174.511719 84.574219 174.511719 84.179688 L 174.511719 75.378906 C 174.511719 74.996094 174.652344 74.664062 174.933594 74.382812 C 175.214844 74.101562 175.546875 73.960938 175.933594 73.960938 L 180.519531 73.960938 C 180.902344 73.960938 181.226562 74.101562 181.507812 74.382812 C 181.785156 74.664062 181.921875 74.996094 181.921875 75.378906 L 181.921875 84.179688 C 181.921875 84.574219 181.785156 84.90625 181.507812 85.183594 C 181.226562 85.460938 180.894531 85.601562 180.503906 85.601562 L 175.933594 85.601562 C 175.535156 85.601562 175.199219 85.460938 174.925781 85.183594 Z M 165.152344 84.128906 L 169.636719 84.128906 L 169.636719 75.449219 L 165.152344 75.449219 Z M 163.679688 75.378906 C 163.679688 74.996094 163.820312 74.664062 164.101562 74.382812 C 164.382812 74.101562 164.714844 73.960938 165.101562 73.960938 L 169.6875 73.960938 C 170.066406 73.960938 170.394531 74.101562 170.675781 74.382812 C 170.949219 74.664062 171.089844 74.996094 171.089844 75.378906 L 171.089844 84.179688 C 171.089844 84.574219 170.949219 84.90625 170.675781 85.183594 C 170.394531 85.460938 170.0625 85.601562 169.671875 85.601562 L 165.101562 85.601562 C 164.703125 85.601562 164.371094 85.460938 164.09375 85.183594 C 163.820312 84.90625 163.679688 84.574219 163.679688 84.179688 Z M 158.769531 84.128906 L 157.296875 84.128906 L 157.296875 73.980469 L 153.601562 73.980469 C 153.398438 73.980469 153.226562 74.050781 153.082031 74.195312 C 152.9375 74.335938 152.867188 74.511719 152.867188 74.714844 C 152.867188 74.921875 152.9375 75.09375 153.082031 75.238281 C 153.226562 75.378906 153.398438 75.449219 153.601562 75.449219 L 155.828125 75.449219 L 155.828125 84.128906 L 153.566406 84.128906 C 153.363281 84.128906 153.191406 84.199219 153.046875 84.339844 C 152.90625 84.480469 152.832031 84.648438 152.832031 84.847656 C 152.832031 85.050781 152.90625 85.226562 153.046875 85.375 C 153.191406 85.527344 153.363281 85.601562 153.566406 85.601562 L 159.503906 85.601562 C 159.707031 85.601562 159.882812 85.527344 160.023438 85.386719 C 160.167969 85.242188 160.238281 85.070312 160.238281 84.863281 L 160.238281 81.0625 C 160.238281 80.859375 160.167969 80.6875 160.023438 80.542969 C 159.882812 80.398438 159.707031 80.328125 159.503906 80.328125 C 159.300781 80.328125 159.128906 80.402344 158.984375 80.546875 C 158.839844 80.695312 158.769531 80.863281 158.769531 81.0625 Z M 142.734375 84.128906 C 142.53125 84.128906 142.359375 84.199219 142.214844 84.339844 C 142.070312 84.480469 142 84.648438 142 84.847656 C 142 85.050781 142.070312 85.226562 142.214844 85.375 C 142.359375 85.527344 142.53125 85.601562 142.734375 85.601562 L 148.671875 85.601562 C 148.875 85.601562 149.050781 85.527344 149.195312 85.386719 C 149.335938 85.242188 149.40625 85.070312 149.40625 84.863281 L 149.40625 81.0625 C 149.40625 80.859375 149.335938 80.6875 149.195312 80.542969 C 149.050781 80.398438 148.875 80.328125 148.671875 80.328125 C 148.46875 80.328125 148.292969 80.402344 148.152344 80.546875 C 148.007812 80.695312 147.9375 80.863281 147.9375 81.0625 L 147.9375 84.128906 L 146.464844 84.128906 L 146.464844 73.980469 L 142.769531 73.980469 C 142.566406 73.980469 142.390625 74.050781 142.25 74.195312 C 142.105469 74.335938 142.035156 74.511719 142.035156 74.714844 C 142.035156 74.921875 142.105469 75.09375 142.25 75.238281 C 142.390625 75.378906 142.566406 75.449219 142.769531 75.449219 L 144.996094 75.449219 L 144.996094 84.128906 Z M 131.183594 79.375 L 131.183594 84.179688 C 131.183594 84.574219 131.320312 84.90625 131.597656 85.183594 C 131.871094 85.460938 132.207031 85.601562 132.601562 85.601562 L 137.175781 85.601562 C 137.566406 85.601562 137.898438 85.460938 138.175781 85.183594 C 138.457031 84.90625 138.59375 84.574219 138.59375 84.179688 L 138.59375 75.378906 C 138.59375 74.996094 138.457031 74.664062 138.175781 74.382812 C 138.085938 74.289062 137.988281 74.21875 137.886719 74.15625 C 137.300781 74.582031 136.71875 75.015625 136.136719 75.449219 L 137.140625 75.449219 L 137.140625 84.128906 L 132.65625 84.128906 L 132.65625 78.167969 C 132.167969 78.566406 131.675781 78.96875 131.183594 79.375 Z M 28.09375 110.097656 L 30.667969 110.097656 L 30.667969 105.742188 L 31.070312 105.742188 L 31.070312 110.097656 L 33.382812 110.097656 C 34.097656 110.097656 34.691406 109.894531 35.152344 109.492188 C 35.628906 109.074219 35.878906 108.5 35.878906 107.832031 C 35.878906 107.308594 35.722656 106.867188 35.425781 106.527344 C 35.707031 106.132812 35.78125 105.722656 35.78125 105.398438 C 35.78125 104.757812 35.539062 104.203125 35.074219 103.789062 C 34.613281 103.378906 33.941406 103.179688 33.011719 103.179688 L 27.21875 103.179688 L 27.21875 105.742188 L 28.09375 105.742188 Z M 24.421875 105.636719 L 23.703125 105.636719 L 23.703125 103.179688 L 26.917969 103.179688 L 26.917969 110.097656 L 24.421875 110.097656 L 24.421875 105.636719 "/>
<path style=" stroke:none;fill-rule:nonzero;fill:rgb(47.059631%,30.979919%,36.859131%);fill-opacity:1;" d="M 158.425781 150.925781 L 158.425781 158.289062 L 161.988281 161.058594 C 161.988281 161.058594 149.800781 174.472656 145.394531 174.472656 C 141.019531 174.472656 129.035156 162.121094 129.035156 162.121094 L 133.089844 159.191406 L 133.089844 151.753906 C 131.34375 149.949219 130.238281 147.546875 130.109375 144.542969 L 129.785156 136.644531 C 127.421875 136.863281 123.625 130.078125 125.660156 126.878906 C 126.8125 125.066406 128.285156 126.285156 129.425781 127.855469 L 129.015625 117.796875 C 128.855469 114.285156 131.664062 111.355469 135.175781 111.355469 L 155.617188 111.355469 C 159.132812 111.355469 161.9375 114.285156 161.78125 117.796875 L 161.261719 130.503906 C 162.035156 128.371094 163.851562 124.25 165.523438 126.878906 C 167.675781 130.257812 163.3125 137.644531 161.015625 136.539062 L 160.6875 144.542969 C 160.574219 147.105469 159.75 149.230469 158.425781 150.925781 Z M 89.605469 231.492188 L 69.394531 219.804688 L 60.632812 232.476562 L 60.613281 232.472656 L 57.167969 237.570312 C 53.820312 242.53125 59 253.628906 64.957031 254.246094 L 118.296875 255.605469 L 118.582031 252.851562 L 103.105469 252.851562 L 102.613281 247.730469 C 102.433594 246.925781 102.960938 246.144531 103.679688 246.144531 L 119.273438 246.144531 L 120.054688 238.609375 L 86.878906 235.1875 Z M 211.535156 254.726562 L 180.671875 250.953125 L 181.070312 247.25 C 181.195312 246.6875 180.832031 246.144531 180.328125 246.144531 L 158.664062 246.144531 L 159.328125 231.179688 L 191.828125 232.621094 L 190.300781 229.800781 L 213.753906 222.058594 L 221.105469 238.179688 L 221.679688 239.375 C 224.269531 244.773438 217.511719 254.988281 211.535156 254.726562 "/>
<g clip-path="url(#clip2)" clip-rule="nonzero">
<path style=" stroke:none;fill-rule:nonzero;fill:rgb(7.839966%,12.159729%,20.779419%);fill-opacity:1;" d="M 42.425781 234.433594 L 42.425781 236.386719 C 42.425781 236.738281 42.710938 237.027344 43.0625 237.027344 C 43.414062 237.027344 43.699219 236.738281 43.699219 236.386719 L 43.699219 234.433594 C 43.699219 234.082031 43.414062 233.796875 43.0625 233.796875 C 42.710938 233.796875 42.425781 234.082031 42.425781 234.433594 Z M 40.636719 236.386719 L 40.636719 234.433594 C 40.636719 234.082031 40.351562 233.796875 40 233.796875 C 39.648438 233.796875 39.363281 234.082031 39.363281 234.433594 L 39.363281 236.386719 C 39.363281 236.738281 39.648438 237.027344 40 237.027344 C 40.351562 237.027344 40.636719 236.738281 40.636719 236.386719 Z M 37.578125 236.386719 L 37.578125 234.433594 C 37.578125 234.082031 37.292969 233.796875 36.941406 233.796875 C 36.585938 233.796875 36.300781 234.082031 36.300781 234.433594 L 36.300781 236.386719 C 36.300781 236.738281 36.585938 237.027344 36.941406 237.027344 C 37.292969 237.027344 37.578125 236.738281 37.578125 236.386719 Z M 34.515625 236.386719 L 34.515625 234.433594 C 34.515625 234.082031 34.226562 233.796875 33.875 233.796875 C 33.523438 233.796875 33.238281 234.082031 33.238281 234.433594 L 33.238281 236.386719 C 33.238281 236.738281 33.523438 237.027344 33.875 237.027344 C 34.226562 237.027344 34.515625 236.738281 34.515625 236.386719 Z M 31.453125 236.386719 L 31.453125 234.433594 C 31.453125 234.082031 31.167969 233.796875 30.816406 233.796875 C 30.464844 233.796875 30.179688 234.082031 30.179688 234.433594 L 30.179688 236.386719 C 30.179688 236.738281 30.464844 237.027344 30.816406 237.027344 C 31.167969 237.027344 31.453125 236.738281 31.453125 236.386719 Z M 28.390625 236.386719 L 28.390625 234.433594 C 28.390625 234.082031 28.105469 233.796875 27.75 233.796875 C 27.402344 233.796875 27.113281 234.082031 27.113281 234.433594 L 27.113281 236.386719 C 27.113281 236.738281 27.402344 237.027344 27.75 237.027344 C 28.105469 237.027344 28.390625 236.738281 28.390625 236.386719 Z M 25.328125 236.386719 L 25.328125 234.433594 C 25.328125 234.082031 25.042969 233.796875 24.691406 233.796875 C 24.339844 233.796875 24.054688 234.082031 24.054688 234.433594 L 24.054688 236.386719 C 24.054688 236.738281 24.339844 237.027344 24.691406 237.027344 C 25.042969 237.027344 25.328125 236.738281 25.328125 236.386719 Z M 22.265625 234.433594 C 22.265625 234.082031 21.980469 233.796875 21.628906 233.796875 C 21.277344 233.796875 20.992188 234.082031 20.992188 234.433594 L 20.992188 236.386719 C 20.992188 236.738281 21.277344 237.027344 21.628906 237.027344 C 21.980469 237.027344 22.265625 236.738281 22.265625 236.386719 Z M 22.710938 240.050781 L 41.265625 240.050781 C 41.621094 240.050781 41.90625 239.761719 41.90625 239.410156 C 41.90625 239.058594 41.621094 238.773438 41.265625 238.773438 L 22.710938 238.773438 C 22.355469 238.773438 22.070312 239.058594 22.070312 239.410156 C 22.070312 239.761719 22.355469 240.050781 22.710938 240.050781 Z M 153.992188 126.085938 C 152.832031 126.078125 151.695312 126.371094 150.785156 126.964844 C 150.488281 127.160156 150.40625 127.554688 150.597656 127.851562 C 150.792969 128.144531 151.1875 128.226562 151.484375 128.035156 C 152.167969 127.585938 153.074219 127.328125 153.964844 127.359375 C 154.851562 127.378906 155.742188 127.667969 156.402344 128.144531 C 156.511719 128.226562 156.644531 128.269531 156.773438 128.269531 C 156.972656 128.269531 157.164062 128.175781 157.292969 128.007812 C 157.496094 127.71875 157.433594 127.320312 157.152344 127.117188 C 156.273438 126.476562 155.152344 126.109375 153.992188 126.085938 Z M 138.128906 126.21875 C 136.96875 126.148438 135.816406 126.429688 134.875 126.992188 C 134.570312 127.171875 134.472656 127.5625 134.652344 127.867188 C 134.832031 128.167969 135.222656 128.265625 135.527344 128.085938 C 136.246094 127.660156 137.164062 127.449219 138.054688 127.492188 C 138.9375 127.542969 139.804688 127.859375 140.433594 128.355469 C 140.550781 128.449219 140.691406 128.496094 140.828125 128.496094 C 141.015625 128.496094 141.199219 128.414062 141.328125 128.257812 C 141.546875 127.980469 141.5 127.578125 141.226562 127.359375 C 140.386719 126.691406 139.285156 126.285156 138.128906 126.21875 Z M 140.019531 147.941406 C 139.964844 148.289062 140.199219 148.617188 140.542969 148.675781 C 140.703125 148.703125 143.234375 149.113281 146.089844 149.113281 C 147.574219 149.113281 149.152344 149 150.527344 148.667969 C 150.867188 148.582031 151.078125 148.238281 150.996094 147.894531 C 150.914062 147.554688 150.566406 147.339844 150.226562 147.425781 C 146.464844 148.339844 140.808594 147.425781 140.753906 147.417969 C 140.398438 147.355469 140.074219 147.597656 140.019531 147.941406 Z M 72.589844 212.890625 C 72.730469 212.953125 86.738281 219.300781 90.839844 223.648438 C 90.964844 223.78125 91.132812 223.847656 91.300781 223.847656 C 91.460938 223.847656 91.617188 223.792969 91.742188 223.675781 C 91.996094 223.433594 92.007812 223.03125 91.769531 222.773438 C 87.5 218.246094 73.699219 211.992188 73.117188 211.726562 C 72.792969 211.582031 72.417969 211.726562 72.273438 212.046875 C 72.125 212.367188 72.269531 212.746094 72.589844 212.890625 Z M 188.957031 224.792969 C 189.109375 224.792969 189.265625 224.734375 189.390625 224.621094 C 196.25 218.21875 210.335938 215.257812 210.476562 215.226562 C 210.820312 215.15625 211.042969 214.820312 210.972656 214.476562 C 210.902344 214.128906 210.5625 213.90625 210.21875 213.976562 C 209.628906 214.101562 195.644531 217.039062 188.519531 223.6875 C 188.261719 223.929688 188.246094 224.332031 188.488281 224.589844 C 188.613281 224.722656 188.785156 224.792969 188.957031 224.792969 Z M 160.988281 122.039062 C 161.050781 120.707031 159.804688 119.695312 158.511719 120.027344 L 146.441406 123.144531 C 146.441406 123.144531 138.703125 121.257812 133.667969 120.050781 C 131.730469 119.585938 129.875 121.0625 129.890625 123.054688 L 129.9375 128.4375 L 130.34375 129.449219 C 130.605469 129.085938 131.03125 128.847656 131.519531 128.847656 L 142.964844 128.847656 C 143.761719 128.847656 144.410156 129.496094 144.410156 130.292969 L 144.410156 130.367188 L 147.597656 130.367188 L 147.597656 130.148438 C 147.597656 129.433594 148.183594 128.847656 148.898438 128.847656 L 160.636719 128.847656 C 160.648438 128.847656 160.65625 128.851562 160.667969 128.851562 Z M 160.660156 132.375 C 160.648438 132.429688 160.632812 132.488281 160.621094 132.539062 L 160.492188 132.601562 L 160.609375 130.148438 L 148.898438 130.125 L 148.875 137.207031 L 160.636719 137.230469 L 160.660156 137.207031 Z M 143.132812 130.292969 C 143.132812 130.199219 143.058594 130.125 142.964844 130.125 L 131.519531 130.125 C 131.421875 130.125 131.347656 130.199219 131.347656 130.292969 L 131.347656 137.0625 C 131.347656 137.15625 131.421875 137.230469 131.519531 137.230469 L 142.964844 137.230469 C 143.058594 137.230469 143.132812 137.15625 143.132812 137.0625 Z M 164.222656 105.28125 C 166.96875 109.679688 167.285156 116.816406 164.832031 126.164062 C 164.574219 126.015625 164.316406 126.003906 164.0625 126.085938 L 161.9375 131.421875 L 161.9375 137.207031 C 161.9375 137.921875 161.351562 138.507812 160.636719 138.507812 L 148.898438 138.507812 C 148.183594 138.507812 147.597656 137.921875 147.597656 137.207031 L 147.597656 131.640625 L 144.410156 131.640625 L 144.410156 137.0625 C 144.410156 137.855469 143.761719 138.507812 142.964844 138.507812 L 131.519531 138.507812 C 130.722656 138.507812 130.074219 137.855469 130.074219 137.0625 L 130.074219 131.847656 C 129.953125 131.78125 129.855469 131.671875 129.800781 131.535156 L 127.652344 126.152344 C 127.210938 125.9375 126.765625 125.902344 126.34375 126.160156 C 124.636719 121.167969 123.082031 114.230469 125.082031 108.972656 C 132.164062 90.316406 153.976562 102.414062 153.976562 102.414062 C 153.976562 102.414062 161 100.121094 164.222656 105.28125 Z M 254.070312 46.136719 C 253.875 46.433594 253.957031 46.828125 254.253906 47.019531 C 254.359375 47.09375 254.484375 47.125 254.601562 47.125 C 254.8125 47.125 255.015625 47.023438 255.136719 46.839844 C 265.148438 31.621094 255.523438 21.261719 255.425781 21.15625 C 255.179688 20.90625 254.777344 20.894531 254.523438 21.140625 C 254.265625 21.382812 254.261719 21.785156 254.503906 22.039062 C 254.59375 22.132812 263.53125 31.757812 254.070312 46.136719 Z M 249.972656 45.085938 C 250.078125 45.15625 250.199219 45.191406 250.320312 45.191406 C 250.527344 45.191406 250.734375 45.089844 250.855469 44.902344 C 258.707031 32.96875 251.140625 24.824219 251.0625 24.746094 C 250.820312 24.492188 250.417969 24.480469 250.164062 24.726562 C 249.910156 24.964844 249.898438 25.371094 250.140625 25.625 C 250.425781 25.925781 257.070312 33.144531 249.789062 44.203125 C 249.59375 44.496094 249.675781 44.894531 249.972656 45.085938 Z M 245.734375 41.589844 C 245.84375 41.660156 245.964844 41.695312 246.085938 41.695312 C 246.292969 41.695312 246.496094 41.59375 246.617188 41.40625 C 251.738281 33.628906 246.777344 28.292969 246.726562 28.242188 C 246.480469 27.988281 246.082031 27.976562 245.828125 28.222656 C 245.574219 28.464844 245.5625 28.867188 245.800781 29.121094 C 245.980469 29.308594 250.097656 33.804688 245.554688 40.707031 C 245.359375 41 245.441406 41.394531 245.734375 41.589844 Z M 227.804688 47.574219 C 227.925781 47.574219 228.042969 47.539062 228.152344 47.46875 C 228.445312 47.273438 228.527344 46.878906 228.335938 46.585938 C 218.894531 32.242188 227.53125 22.878906 227.902344 22.484375 C 228.144531 22.230469 228.136719 21.828125 227.878906 21.585938 C 227.628906 21.34375 227.222656 21.351562 226.980469 21.605469 C 226.882812 21.707031 217.257812 32.066406 227.269531 47.285156 C 227.394531 47.472656 227.59375 47.574219 227.804688 47.574219 Z M 231.550781 45.351562 C 231.675781 45.539062 231.875 45.636719 232.085938 45.636719 C 232.203125 45.636719 232.324219 45.601562 232.433594 45.53125 C 232.726562 45.339844 232.808594 44.945312 232.617188 44.648438 C 225.339844 33.589844 231.976562 26.375 232.265625 26.074219 C 232.507812 25.820312 232.5 25.414062 232.242188 25.171875 C 231.988281 24.929688 231.585938 24.9375 231.34375 25.191406 C 231.265625 25.273438 223.695312 33.417969 231.550781 45.351562 Z M 236.320312 42.140625 C 236.4375 42.140625 236.558594 42.109375 236.671875 42.035156 C 236.964844 41.839844 237.046875 41.449219 236.851562 41.152344 C 232.308594 34.25 236.421875 29.761719 236.601562 29.570312 C 236.84375 29.316406 236.835938 28.914062 236.582031 28.667969 C 236.324219 28.425781 235.921875 28.433594 235.679688 28.691406 C 235.628906 28.742188 230.667969 34.078125 235.789062 41.851562 C 235.910156 42.039062 236.113281 42.140625 236.320312 42.140625 Z M 48.667969 230.574219 L 16.617188 230.574219 L 18.960938 232.9375 L 46.324219 232.9375 Z M 49.921875 193.9375 C 49.921875 192.175781 48.496094 190.75 46.734375 190.75 C 44.972656 190.75 43.546875 192.175781 43.546875 193.9375 L 43.546875 204.59375 L 39.367188 204.59375 L 39.367188 187.753906 C 39.367188 185.355469 37.425781 183.410156 35.023438 183.410156 L 30.839844 183.410156 C 28.441406 183.410156 26.496094 185.355469 26.496094 187.753906 L 26.496094 211.519531 L 23.128906 211.519531 L 23.128906 200.859375 C 23.128906 199.097656 21.703125 197.671875 19.941406 197.671875 C 18.179688 197.671875 16.753906 199.097656 16.753906 200.859375 L 16.753906 211.769531 C 16.753906 215.148438 19.503906 217.898438 22.882812 217.898438 L 26.496094 217.898438 L 26.496094 227.300781 L 39.367188 227.300781 L 39.367188 210.972656 L 43.792969 210.972656 C 47.171875 210.972656 49.921875 208.222656 49.921875 204.84375 Z M 257.410156 229.292969 L 257.410156 242.113281 L 259.34375 242.113281 C 259.675781 242.113281 259.96875 241.902344 260.082031 241.59375 L 261.90625 236.445312 C 262.65625 234.335938 262.769531 232.066406 262.238281 229.890625 C 262.152344 229.539062 261.84375 229.292969 261.480469 229.292969 Z M 257.410156 226.105469 L 261.480469 226.105469 C 263.316406 226.105469 264.902344 227.351562 265.335938 229.132812 C 266.011719 231.917969 265.867188 234.8125 264.910156 237.511719 L 263.085938 242.660156 C 262.523438 244.238281 261.023438 245.300781 259.34375 245.300781 L 257.410156 245.300781 L 257.410156 252.242188 C 257.410156 253.496094 256.390625 254.515625 255.132812 254.515625 L 236.425781 254.515625 C 235.167969 254.515625 234.148438 253.496094 234.148438 252.242188 L 234.148438 224.339844 L 257.410156 224.339844 Z M 152.472656 219.875 C 152.472656 216.046875 148.8125 212.945312 144.296875 212.945312 C 139.78125 212.945312 136.121094 216.046875 136.121094 219.875 C 136.121094 223.699219 139.78125 226.800781 144.296875 226.800781 C 148.8125 226.800781 152.472656 223.699219 152.472656 219.875 Z M 181.398438 189.34375 C 181.667969 182.027344 184.394531 176.398438 184.519531 176.148438 C 184.671875 175.832031 185.054688 175.703125 185.375 175.855469 C 185.6875 176.015625 185.820312 176.394531 185.664062 176.710938 C 185.632812 176.769531 182.953125 182.316406 182.675781 189.34375 L 185.074219 189.34375 C 186.746094 189.34375 188.089844 190.730469 188.03125 192.402344 L 186.269531 245.65625 C 186.21875 247.253906 184.910156 248.519531 183.3125 248.519531 L 102.867188 248.519531 C 101.269531 248.519531 99.964844 247.253906 99.910156 245.65625 L 98.148438 192.402344 C 98.09375 190.730469 99.433594 189.34375 101.109375 189.34375 L 105.539062 189.34375 C 105.707031 185.960938 103.382812 180.847656 103.359375 180.796875 C 103.210938 180.476562 103.347656 180.097656 103.667969 179.949219 C 103.988281 179.804688 104.367188 179.945312 104.515625 180.261719 C 104.617188 180.488281 106.964844 185.648438 106.816406 189.34375 L 142.136719 189.34375 L 141.976562 177.855469 C 141.960938 176.726562 142.566406 175.679688 143.558594 175.136719 L 144.652344 174.535156 L 137.660156 171.160156 C 136.367188 170.503906 135.234375 169.792969 134.265625 170.765625 L 130.949219 174.09375 C 130.328125 174.71875 129.265625 174.292969 129.246094 173.410156 L 129.015625 162.234375 C 128.78125 160.28125 133.089844 151.820312 133.089844 151.820312 C 133.089844 151.820312 135.183594 165.628906 144.953125 174.367188 L 147.070312 173.199219 C 156.601562 165.484375 158.425781 150.949219 158.425781 150.949219 C 158.425781 150.949219 162.207031 159.105469 161.988281 161.058594 L 162.621094 171.078125 C 162.675781 171.964844 161.671875 172.519531 160.953125 172 L 160.132812 171.414062 C 158.566406 170.285156 156.246094 170.023438 154.316406 170.753906 L 148.652344 173.070312 L 148.652344 189.34375 Z M 296.167969 254.660156 L 186.472656 254.660156 L 186.972656 250.601562 C 187.117188 250.042969 186.699219 249.496094 186.117188 249.496094 L 97.9375 249.496094 C 97.109375 249.496094 96.503906 250.28125 96.710938 251.082031 L 97.109375 254.660156 L 41.949219 254.660156 L 42.773438 252.730469 L 21.730469 252.730469 L 22.554688 254.660156 L 3.851562 254.660156 C 1.777344 254.660156 0.101562 256.339844 0.101562 258.410156 L 0.101562 263.488281 C 0.101562 265.5625 1.777344 267.242188 3.851562 267.242188 L 25 267.242188 L 25 284.976562 L 274.207031 284.976562 L 274.207031 267.242188 L 296.167969 267.242188 C 298.238281 267.242188 299.917969 265.5625 299.917969 263.488281 L 299.917969 258.410156 C 299.917969 256.339844 298.238281 254.660156 296.167969 254.660156 Z M 147.644531 143.042969 C 149.027344 142.542969 147.042969 138.660156 146.023438 136.84375 C 145.804688 136.449219 145.257812 136.488281 145.09375 136.90625 C 144.414062 138.664062 143.078125 142.210938 143.089844 142.910156 C 143.101562 143.847656 145.835938 143.699219 147.644531 143.042969 Z M 138.5625 131.0625 C 137.90625 131.0625 137.378906 131.871094 137.378906 132.871094 C 137.378906 133.875 137.90625 134.683594 138.5625 134.683594 C 139.214844 134.683594 139.742188 133.875 139.742188 132.871094 C 139.742188 131.871094 139.214844 131.0625 138.5625 131.0625 Z M 153.429688 131.0625 C 152.777344 131.0625 152.242188 131.871094 152.242188 132.871094 C 152.242188 133.875 152.777344 134.683594 153.429688 134.683594 C 154.082031 134.683594 154.609375 133.875 154.609375 132.871094 C 154.609375 131.871094 154.082031 131.0625 153.429688 131.0625 Z M 144.929688 163.765625 C 147.160156 164.441406 156.488281 155.070312 158.257812 151.144531 C 155.777344 154.148438 151.648438 155.699219 146.980469 155.699219 L 143.8125 155.699219 C 139.746094 155.699219 136.085938 154.523438 133.566406 152.230469 C 136.722656 155.929688 143.09375 163.203125 144.929688 163.765625 Z M 131.769531 150.09375 C 131.769531 150.09375 131.785156 150.113281 131.8125 150.144531 C 131.800781 150.128906 131.792969 150.113281 131.78125 150.09375 Z M 224.054688 64.585938 C 224.054688 65.527344 224.816406 66.285156 225.753906 66.285156 C 226.695312 66.285156 227.457031 65.527344 227.457031 64.585938 C 227.457031 63.648438 226.695312 62.886719 225.753906 62.886719 C 224.816406 62.886719 224.054688 63.648438 224.054688 64.585938 Z M 230.6875 64.585938 C 230.6875 65.527344 231.453125 66.285156 232.390625 66.285156 C 233.332031 66.285156 234.089844 65.527344 234.089844 64.585938 C 234.089844 63.648438 233.332031 62.886719 232.390625 62.886719 C 231.453125 62.886719 230.6875 63.648438 230.6875 64.585938 Z M 237.429688 64.585938 C 237.429688 65.527344 238.195312 66.285156 239.132812 66.285156 C 240.074219 66.285156 240.835938 65.527344 240.835938 64.585938 C 240.835938 63.648438 240.074219 62.886719 239.132812 62.886719 C 238.195312 62.886719 237.429688 63.648438 237.429688 64.585938 Z M 206.605469 64.585938 C 206.605469 63.648438 205.84375 62.886719 204.902344 62.886719 C 203.964844 62.886719 203.203125 63.648438 203.203125 64.585938 C 203.203125 65.527344 203.964844 66.285156 204.902344 66.285156 C 205.84375 66.285156 206.605469 65.527344 206.605469 64.585938 Z M 196.507812 69.277344 L 194.878906 69.277344 L 194.878906 59.433594 L 196.507812 59.433594 L 196.507812 57.058594 C 196.507812 56.632812 196.851562 56.292969 197.273438 56.292969 L 206.332031 56.292969 L 223.109375 52.105469 C 223.695312 51.960938 224.289062 52.316406 224.433594 52.902344 L 224.714844 54.023438 C 224.859375 54.609375 224.503906 55.203125 223.917969 55.347656 L 220.132812 56.292969 L 239.164062 56.292969 L 239.164062 33.691406 C 239.164062 33.085938 239.652344 32.597656 240.257812 32.597656 L 241.414062 32.597656 C 242.015625 32.597656 242.507812 33.085938 242.507812 33.691406 L 242.507812 56.292969 L 248.453125 56.292969 C 248.875 56.292969 249.21875 56.632812 249.21875 57.058594 L 249.21875 59.433594 L 250.726562 59.433594 L 250.726562 69.277344 L 249.21875 69.277344 L 249.21875 72.113281 C 249.21875 72.539062 248.875 72.878906 248.453125 72.878906 L 197.273438 72.878906 C 196.851562 72.878906 196.507812 72.539062 196.507812 72.113281 Z M 100.222656 70.355469 L 158.152344 70.355469 L 158.152344 36.144531 L 100.222656 36.144531 Z M 159.664062 53.25 C 159.664062 54.242188 160.46875 55.046875 161.460938 55.046875 C 162.449219 55.046875 163.257812 54.242188 163.257812 53.25 C 163.257812 52.257812 162.449219 51.457031 161.460938 51.457031 C 160.46875 51.457031 159.664062 52.257812 159.664062 53.25 Z M 92.980469 70.363281 L 92.980469 36.136719 C 92.980469 34.15625 94.585938 32.550781 96.566406 32.550781 L 161.84375 32.550781 C 163.824219 32.550781 165.429688 34.15625 165.429688 36.136719 L 165.429688 70.363281 C 165.429688 72.347656 163.824219 73.949219 161.84375 73.949219 L 96.566406 73.949219 C 94.585938 73.949219 92.980469 72.347656 92.980469 70.363281 Z M 8.359375 113.773438 L 8.359375 114.855469 L 9.441406 114.855469 L 9.441406 113.773438 Z M 11.472656 113.773438 L 11.472656 114.855469 L 12.554688 114.855469 L 12.554688 113.773438 Z M 35.242188 107.832031 C 35.242188 107.222656 34.96875 106.8125 34.417969 106.59375 C 34.902344 106.292969 35.144531 105.894531 35.144531 105.398438 C 35.144531 104.9375 34.980469 104.5625 34.648438 104.261719 C 34.316406 103.964844 33.769531 103.816406 33.011719 103.816406 L 31.710938 103.816406 L 31.710938 109.460938 L 33.382812 109.460938 C 33.941406 109.460938 34.390625 109.3125 34.730469 109.011719 C 35.074219 108.714844 35.242188 108.320312 35.242188 107.832031 Z M 30.914062 103.816406 L 27.855469 103.816406 L 27.855469 105.105469 L 28.734375 105.105469 L 28.734375 109.460938 L 30.03125 109.460938 L 30.03125 105.105469 L 30.914062 105.105469 Z M 26.277344 103.816406 L 24.339844 103.816406 L 24.339844 105 L 25.058594 105 L 25.058594 109.460938 L 26.277344 109.460938 Z M 52.285156 146.226562 L 47.136719 146.226562 C 47.195312 146.324219 47.242188 146.433594 47.242188 146.554688 L 47.242188 154.5625 C 47.242188 156.511719 46.476562 158.335938 45.085938 159.699219 C 43.726562 161.039062 41.941406 161.769531 40.042969 161.769531 C 39.996094 161.769531 39.953125 161.765625 39.910156 161.765625 L 17.179688 161.371094 C 13.339844 161.308594 10.230469 158.246094 10.105469 154.40625 L 9.941406 126.070312 L 7.636719 126.070312 C 7.238281 126.070312 6.910156 125.746094 6.910156 125.34375 L 6.910156 117.003906 L 10.234375 117.003906 L 10.234375 113.773438 L 10.851562 113.773438 L 10.851562 117.003906 L 14.175781 117.003906 L 14.175781 125.34375 C 14.175781 125.746094 13.851562 126.070312 13.453125 126.070312 L 11.214844 126.070312 L 11.378906 154.378906 C 11.484375 157.523438 14.039062 160.042969 17.203125 160.097656 L 39.933594 160.492188 C 41.527344 160.511719 43.046875 159.914062 44.191406 158.792969 C 45.335938 157.667969 45.964844 156.167969 45.964844 154.5625 L 45.964844 146.554688 C 45.964844 146.433594 46.011719 146.324219 46.070312 146.226562 L 22.402344 146.226562 C 21.175781 146.226562 20.183594 145.234375 20.183594 144.003906 L 20.183594 103.097656 C 20.183594 101.875 21.175781 100.878906 22.402344 100.878906 L 52.285156 100.878906 C 53.511719 100.878906 54.507812 101.875 54.507812 103.097656 L 54.507812 144.003906 C 54.507812 145.234375 53.511719 146.226562 52.285156 146.226562 Z M 33.097656 107.140625 L 32.988281 107.140625 L 32.988281 108.363281 C 33.316406 108.355469 33.554688 108.304688 33.71875 108.210938 C 33.882812 108.117188 33.960938 107.960938 33.960938 107.742188 C 33.960938 107.339844 33.671875 107.140625 33.097656 107.140625 Z M 33.847656 105.519531 C 33.847656 105.292969 33.777344 105.132812 33.640625 105.042969 C 33.507812 104.953125 33.289062 104.90625 32.988281 104.898438 L 32.988281 106.117188 C 33.558594 106.101562 33.847656 105.902344 33.847656 105.519531 Z M 12.164062 72.664062 C 12.605469 72.964844 13.160156 73.058594 13.679688 72.921875 L 14.714844 72.644531 C 14.6875 72.582031 14.660156 72.519531 14.636719 72.449219 L 7.601562 47.464844 C 7.589844 47.421875 7.585938 47.375 7.578125 47.332031 L 6.503906 47.679688 C 6.15625 47.796875 5.847656 48.003906 5.628906 48.296875 C 4.710938 49.503906 2.746094 53.253906 4.914062 61.5 C 6.714844 68.347656 10.535156 71.5625 12.164062 72.664062 Z M 21.105469 70.628906 C 21.128906 70.726562 21.148438 70.824219 21.152344 70.921875 L 21.539062 70.820312 C 22.535156 70.550781 23.121094 69.515625 22.832031 68.523438 L 16.449219 46.4375 C 16.15625 45.4375 15.09375 44.871094 14.101562 45.199219 L 13.894531 45.265625 C 13.964844 45.382812 14.027344 45.507812 14.066406 45.644531 Z M 52.003906 73.304688 L 53.039062 73.582031 C 53.558594 73.722656 54.109375 73.628906 54.554688 73.324219 C 56.179688 72.226562 60.003906 69.011719 61.804688 62.164062 C 63.972656 53.917969 62.011719 50.167969 61.09375 48.960938 C 60.871094 48.667969 60.5625 48.457031 60.210938 48.34375 L 59.140625 47.996094 C 59.132812 48.039062 59.128906 48.082031 59.117188 48.128906 L 52.082031 73.113281 C 52.058594 73.183594 52.03125 73.242188 52.003906 73.304688 Z M 43.886719 69.1875 L 50.269531 47.101562 C 50.558594 46.097656 51.625 45.539062 52.617188 45.859375 L 52.824219 45.929688 C 52.753906 46.046875 52.691406 46.167969 52.652344 46.308594 L 45.613281 71.292969 C 45.585938 71.390625 45.570312 71.488281 45.5625 71.585938 L 45.179688 71.480469 C 44.183594 71.214844 43.597656 70.179688 43.886719 69.1875 "/>
</g>
</g>
</svg>
