<svg id="Flat" enable-background="new 0 0 512 512" height="512" viewBox="0 0 512 512" width="512" xmlns="http://www.w3.org/2000/svg"><g><path d="m488 344h-464v-304c0-8.8365555 7.1634445-16 16-16h432c8.8365479 0 16 7.1634445 16 16z" fill="#35495e"/><path d="m472 392h-432c-8.8365555 0-16-7.1634521-16-16v-32h464v32c0 8.8365479-7.1634521 16-16 16z" fill="#efeeef"/><path d="m304 488h-96l8-96h80z" fill="#d8d8d8"/><path d="m320 496h-128c-4.4179688 0-8-3.581543-8-8s3.5820313-8 8-8h128c4.4179688 0 8 3.581543 8 8s-3.5820312 8-8 8z" fill="#efeeef"/><circle cx="256" cy="440" fill="#efeeef" r="16"/><path d="m256 256 72-40v-56l-72 40z" fill="#d8d8d8"/><path d="m256 200-72-32v56l72 32z" fill="#efeeef"/><path d="m216 144 40 56 72-40-40-48z" fill="#be202e"/><path d="m184 168 32-24 40 56z" fill="#e22526"/><g><g fill="#ffec00"><path d="m154.3427734 162.3432617-.1254883.1254883c4.0898438-19.5571289 13.7553711-37.5195313 28.2436523-52.0078125 40.5488281-40.5488281 106.5292969-40.5488281 147.078125 0 3.125 3.1240234 8.1894531 3.1240234 11.3144531 0 3.1240234-3.1240234 3.1240234-8.1894531 0-11.3134766-46.7890625-46.7880859-122.9179688-46.7880859-169.7070313 0-18.3977051 18.3981934-30.0566406 41.6518555-33.8146973 66.8706055l-3.6745605-3.6748047c-3.125-3.1240234-8.1894531-3.1240234-11.3144531 0-3.1240234 3.1240234-3.1240234 8.1894531 0 11.3134766l14.1108398 14.1109619c1.0888672 3.1318359 4.0600586 5.3753662 7.550293 5.3753662.0273438 0 .0556641 0 .0830078-.0004883 3.4741211-.0354004 6.4003906-2.2839355 7.4741211-5.3895264l14.0961914-14.0963135c3.1240234-3.1240234 3.1240234-8.1894531 0-11.3134766-3.1249998-3.1240233-8.189453-3.1240233-11.314453.0000001z"/><path d="m389.6572266 194.3432617-14.1035156-14.1035156c-1.0864258-3.166748-4.0834961-5.4365234-7.640625-5.3823242-3.4741211.0354004-6.4003906 2.2839355-7.4741211 5.3895264l-14.0961914 14.0963135c-3.1240234 3.1240234-3.1240234 8.1894531 0 11.3134766 3.125 3.1240234 8.1894531 3.1240234 11.3144531 0l.1254883-.1254883c-4.0898438 19.5571289-13.7553711 37.5195313-28.2436523 52.0078125-40.5488281 40.5488281-106.5292969 40.5488281-147.078125 0-3.125-3.1240234-8.1894531-3.1240234-11.3144531 0-3.1240234 3.1240234-3.1240234 8.1894531 0 11.3134766 23.3945311 23.3940428 54.1240233 35.0908202 84.8535155 35.0908202s61.4589844-11.6967773 84.8535156-35.0908203c18.3977051-18.3981934 30.0566406-41.6518555 33.8146973-66.8706055l3.6745605 3.6748047c1.5625 1.5620117 3.609375 2.3432617 5.6572266 2.3432617s4.0947266-.78125 5.6572266-2.3432617c3.1240234-3.1240235 3.1240234-8.1894531 0-11.3134766z"/></g></g></g></svg>