<svg height="512" viewBox="0 0 128 128" width="512" xmlns="http://www.w3.org/2000/svg"><g id="Circle_Grid" data-name="Circle Grid"><circle cx="64" cy="64" fill="#f6c863" r="64"/></g><g id="icon"><path d="m78.042 96.679h-28.075l4.018-12.396h20.039z" fill="#62667c"/><path d="m80.013 95.613h-32.013a2.407 2.407 0 0 0 -2.407 2.407v1.269h36.827v-1.269a2.407 2.407 0 0 0 -2.407-2.407z" fill="#575b6d"/><path d="m106 32.077v53.505a3.2 3.2 0 0 1 -3.195 3.212h-77.593a3.208 3.208 0 0 1 -3.212-3.212v-53.505a3.361 3.361 0 0 1 3.365-3.365h77.269a3.361 3.361 0 0 1 3.366 3.365z" fill="#575b6d"/><path d="m41.612 16.244h44.786v77.055h-44.786z" fill="#69b0ee" transform="matrix(0 1 -1 0 118.776 -9.233)"/><circle cx="64.005" cy="82.979" fill="#828a9e" r="2.133"/><g fill="#eeefee"><path d="m77.1 51.48a18.543 18.543 0 0 0 -26.193 0l-2.067-2.068a21.47 21.47 0 0 1 30.33 0z"/><path d="m72.964 55.617a12.686 12.686 0 0 0 -17.919 0l-2.068-2.068a15.613 15.613 0 0 1 22.056 0z"/><path d="m68.827 59.754a6.828 6.828 0 0 0 -9.644 0l-2.069-2.068a9.754 9.754 0 0 1 13.782 0z"/><path d="m61.888 65.528a2.986 2.986 0 1 1 4.233 0 2.989 2.989 0 0 1 -4.233 0z"/></g></g></svg>