<svg id="_x35_0" enable-background="new 0 0 512 512" height="512" viewBox="0 0 512 512" width="512" xmlns="http://www.w3.org/2000/svg"><g><g><circle cx="256" cy="256" fill="#fa4654" r="256"/></g><g><g><path d="m462.93 406.75c-46.56 63.8-121.91 105.25-206.93 105.25s-160.37-41.45-206.93-105.25z" fill="#d48d77"/><g fill="#eea47d"><path d="m380.58 406.75v72.95c-6.668 3.708-13.507 7.145-20.48 10.25v-83.2z"/><path d="m462.92 406.75c-4.978 6.838-10.303 13.422-15.94 19.73v-19.73z"/><path d="m200.532 406.75v42.24c0 5.66-4.59 10.25-10.25 10.25-5.65 0-10.24-4.59-10.24-10.25v-42.24z"/><path d="m305.71 437.94v69.23c-6.74 1.33-13.57 2.39-20.49 3.17v-72.4c0-5.65 4.59-10.24 10.24-10.24 5.656.004 10.249 4.576 10.25 10.24z"/><path d="m427.21 434.63v11.68c-6.53 5.9-13.37 11.45-20.49 16.63v-28.31c.528-13.576 19.964-13.571 20.49 0z"/><path d="m248.63 406.75v105.14c-6.849-.186-13.674-.653-20.48-1.39v-103.75z"/><path d="m163.68 460.62v34.23c-6.98-2.7-13.81-5.7-20.48-8.98v-25.25c.518-13.58 19.966-13.573 20.48 0z"/><path d="m95.83 407.27v48.44c-7.145-5.736-13.984-11.856-20.48-18.32v-30.12c0-.17 0-.35.01-.52h20.46c.01.18.01.35.01.52z"/></g></g></g><g><g><path d="m282.896 330.024h-53.792c-9.524 0-17.245 7.721-17.245 17.245v71.037h88.281v-71.037c.001-9.525-7.72-17.245-17.244-17.245z" fill="#334353"/><path d="m357.139 418.305h-202.278c-10.329 0-18.702 8.373-18.702 18.703 0 10.329 8.373 18.703 18.702 18.703h202.279c10.329 0 18.703-8.373 18.703-18.703-.001-10.33-8.374-18.703-18.704-18.703z" fill="#334353"/><path d="m318.361 418.305h-124.722c-6.369 0-11.532 5.163-11.532 11.532 0 6.369 5.163 11.532 11.532 11.532h124.722c6.369 0 11.532-5.163 11.532-11.532-.001-6.369-5.163-11.532-11.532-11.532z" fill="#3e4e60"/><path d="m446.321 126.531v211.03c0 5.754-1.71 11.132-4.665 15.629-3.707 5.754-9.421 10.043-16.173 11.923-2.462.713-5.093 1.089-7.75 1.089h-323.465c-2.709 0-5.287-.376-7.75-1.089-6.752-1.879-12.467-6.169-16.173-11.923-2.955-4.497-4.665-9.875-4.665-15.629v-211.03c0-2.657.376-5.287 1.075-7.75 2.67-9.551 10.173-17.093 19.763-19.763 2.462-.7 5.093-1.076 7.75-1.076h323.465c2.709 0 5.287.376 7.75 1.076 9.551 2.67 17.093 10.173 19.763 19.763.699 2.462 1.075 5.093 1.075 7.75z" fill="#3f5d77"/><path d="m107.37 126.531v211.03c0 5.754-1.711 11.132-4.678 15.629-3.706 5.754-9.421 10.043-16.173 11.923-6.752-1.879-12.467-6.169-16.173-11.923-2.955-4.497-4.665-9.875-4.665-15.629v-211.03c0-13.089 8.786-24.13 20.838-27.513 12.051 3.383 20.851 14.424 20.851 27.513z" fill="#3e4e60"/><path d="m446.321 126.531v211.03c0 5.754-1.71 11.132-4.665 15.629-3.707 5.754-9.421 10.043-16.173 11.923-6.752-1.879-12.467-6.169-16.173-11.923-2.968-4.497-4.678-9.875-4.678-15.629v-211.03c0-13.128 8.838-24.169 20.852-27.513 11.999 3.344 20.837 14.385 20.837 27.513z" fill="#3f6c8e"/><path d="m446.321 307.21v30.351c0 5.754-1.71 11.132-4.665 15.629-3.707 5.754-9.421 10.043-16.173 11.923-2.462.713-5.093 1.089-7.75 1.089h-323.465c-2.709 0-5.287-.376-7.75-1.089-6.752-1.879-12.467-6.169-16.173-11.923-2.955-4.497-4.665-9.875-4.665-15.629v-30.351z" fill="#3e4e60"/><path d="m107.37 307.21v30.351c0 5.754-1.711 11.132-4.678 15.629-3.706 5.754-9.421 10.043-16.173 11.923-6.752-1.879-12.467-6.169-16.173-11.923-2.955-4.497-4.665-9.875-4.665-15.629v-30.351z" fill="#334353"/><path d="m446.321 307.21v30.351c0 5.754-1.71 11.132-4.665 15.629-3.707 5.754-9.421 10.043-16.173 11.923-6.752-1.879-12.467-6.169-16.173-11.923-2.968-4.497-4.678-9.875-4.678-15.629v-30.351z" fill="#3f5d77"/><path d="m278.767 336.705h-45.534c-5.866 0-10.622 4.755-10.622 10.622 0 5.866 4.755 10.622 10.622 10.622h45.534c5.866 0 10.622-4.755 10.622-10.622 0-5.866-4.756-10.622-10.622-10.622z" fill="#334353"/><path d="m340.881 118.788h-135.473c-5.756 0-10.423-4.666-10.423-10.423 0-5.756 4.666-10.423 10.423-10.423h135.473c5.756 0 10.423 4.666 10.423 10.423 0 5.756-4.666 10.423-10.423 10.423z" fill="#3f6c8e"/><g><path d="m407.423 328.995h-302.846c-9.97 0-18.053-8.083-18.053-18.053v-174.102c0-9.97 8.083-18.053 18.053-18.053h302.845c9.97 0 18.053 8.083 18.053 18.053v174.102c0 9.97-8.082 18.053-18.052 18.053z" fill="#6c53a2"/><path d="m326.44 118.79c-31.72 92.37-99.42 168.01-186.36 210.21h-35.5c-9.97 0-18.06-8.09-18.06-18.06v-174.1c0-9.97 8.09-18.05 18.06-18.05z" fill="#7960bf"/></g></g><g><path d="m408.26 276.84c-.6-.9-1.43-1.55-2.48-1.96l-27.99-11.99c-.66-.25-1.29-.38-1.89-.38-1.01 0-1.85.31-2.53.94s-1.02 1.45-1.02 2.45c0 1.31.63 2.24 1.89 2.8l26.63 11.16-26.63 11.17c-1.26.55-1.89 1.48-1.89 2.79 0 1.01.34 1.82 1.02 2.45s1.52.94 2.53.94c.7 0 1.33-.12 1.89-.37l27.99-11.92c1.05-.46 1.88-1.12 2.48-2 .61-.88.91-1.9.91-3.06 0-1.1-.3-2.11-.91-3.02zm-45.45 1.7c-.73-.68-1.82-1.02-3.28-1.02h-15.54c-1.46 0-2.56.34-3.28 1.02-.73.68-1.1 1.6-1.1 2.75 0 1.16.37 2.07 1.1 2.72.72.66 1.82.98 3.28.98h15.54c1.46 0 2.55-.32 3.28-.98.73-.65 1.09-1.56 1.09-2.72 0-1.15-.36-2.07-1.09-2.75zm-32.74 0c-.73-.68-1.82-1.02-3.28-1.02h-15.54c-1.46 0-2.56.34-3.28 1.02-.73.68-1.1 1.6-1.1 2.75 0 1.16.37 2.07 1.1 2.72.72.66 1.82.98 3.28.98h15.54c1.46 0 2.55-.32 3.28-.98.73-.65 1.09-1.56 1.09-2.72 0-1.15-.36-2.07-1.09-2.75zm-32.74 0c-.73-.68-1.83-1.02-3.28-1.02h-15.55c-1.45 0-2.55.34-3.28 1.02s-1.09 1.6-1.09 2.75c0 1.16.36 2.07 1.09 2.72.73.66 1.83.98 3.28.98h15.55c1.45 0 2.55-.32 3.28-.98.73-.65 1.09-1.56 1.09-2.72 0-1.15-.36-2.07-1.09-2.75zm-22.78-33.34c-.78-.68-1.68-1.02-2.68-1.02-.81 0-1.54.22-2.19.68-.66.45-1.13 1.15-1.43 2.11l-17.51 54.85c-.15.45-.22.9-.22 1.35 0 1.06.39 1.93 1.17 2.61s1.67 1.01 2.67 1.01c.81 0 1.54-.22 2.19-.67.66-.46 1.13-1.16 1.44-2.12l17.5-54.84c.15-.46.22-.91.22-1.36 0-1.06-.39-1.92-1.16-2.6zm-32.53 45.83-26.37-11.06-.26-.11.79-.33 25.84-10.83c1.26-.56 1.89-1.49 1.89-2.8 0-1-.34-1.82-1.02-2.45s-1.52-.94-2.53-.94c-.6 0-1.23.13-1.88.38l-7.03 3.01-20.96 8.98c-1.06.41-1.89 1.06-2.49 1.96-.61.91-.91 1.92-.91 3.02 0 1.16.3 2.18.91 3.06.49.72 1.14 1.3 1.95 1.74.17.09.35.18.54.26l27.99 11.92c.55.25 1.18.37 1.88.37 1.01 0 1.85-.31 2.53-.94s1.02-1.44 1.02-2.45c0-1.31-.63-2.24-1.89-2.79zm95-63.97c-.73-.68-1.82-1.02-3.28-1.02h-15.54c-1.46 0-2.56.34-3.28 1.02-.73.68-1.1 1.6-1.1 2.75 0 1.16.37 2.07 1.1 2.72.72.65 1.82.98 3.28.98h15.54c1.46 0 2.55-.33 3.28-.98s1.09-1.56 1.09-2.72c0-1.15-.36-2.07-1.09-2.75zm-32.74 0c-.73-.68-1.82-1.02-3.28-1.02h-15.54c-1.46 0-2.56.34-3.28 1.02-.73.68-1.1 1.6-1.1 2.75 0 1.16.37 2.07 1.1 2.72.72.65 1.82.98 3.28.98h15.54c1.46 0 2.55-.33 3.28-.98s1.09-1.56 1.09-2.72c0-1.15-.36-2.07-1.09-2.75zm-32.74 0c-.73-.68-1.83-1.02-3.28-1.02h-15.54c-1.46 0-2.56.34-3.29 1.02s-1.09 1.6-1.09 2.75c0 1.16.36 2.07 1.09 2.72s1.83.98 3.29.98h15.54c1.45 0 2.55-.33 3.28-.98s1.09-1.56 1.09-2.72c0-1.15-.36-2.07-1.09-2.75zm-32.74 0c-.73-.68-1.83-1.02-3.28-1.02h-15.55c-1.46 0-2.55.34-3.28 1.02s-1.09 1.6-1.09 2.75c0 1.16.36 2.07 1.09 2.72s1.82.98 3.28.98h15.55c1.45 0 2.55-.33 3.28-.98.72-.65 1.09-1.56 1.09-2.72 0-1.15-.37-2.07-1.09-2.75zm-32.74 0c-.73-.68-1.83-1.02-3.29-1.02h-15.54c-1.46 0-2.55.34-3.28 1.02s-1.09 1.6-1.09 2.75c0 1.16.36 2.07 1.09 2.72s1.82.98 3.28.98h15.54c1.46 0 2.56-.33 3.29-.98.72-.65 1.09-1.56 1.09-2.72 0-1.15-.37-2.07-1.09-2.75zm130.96-35.02c-.73-.68-1.82-1.02-3.28-1.02h-15.54c-1.46 0-2.56.34-3.28 1.02-.73.68-1.1 1.6-1.1 2.75 0 1.16.37 2.07 1.1 2.72.72.65 1.82.98 3.28.98h15.54c1.46 0 2.55-.33 3.28-.98s1.09-1.56 1.09-2.72c0-1.15-.36-2.07-1.09-2.75zm-32.74 0c-.73-.68-1.82-1.02-3.28-1.02h-15.54c-1.46 0-2.56.34-3.28 1.02-.73.68-1.1 1.6-1.1 2.75 0 1.16.37 2.07 1.1 2.72.72.65 1.82.98 3.28.98h15.54c1.46 0 2.55-.33 3.28-.98s1.09-1.56 1.09-2.72c0-1.15-.36-2.07-1.09-2.75zm-32.74 0c-.73-.68-1.83-1.02-3.28-1.02h-15.54c-1.46 0-2.56.34-3.29 1.02s-1.09 1.6-1.09 2.75c0 1.16.36 2.07 1.09 2.72s1.83.98 3.29.98h15.54c1.45 0 2.55-.33 3.28-.98s1.09-1.56 1.09-2.72c0-1.15-.36-2.07-1.09-2.75zm-32.74 0c-.73-.68-1.83-1.02-3.28-1.02h-15.55c-1.46 0-2.55.34-3.28 1.02s-1.09 1.6-1.09 2.75c0 1.16.36 2.07 1.09 2.72s1.82.98 3.28.98h15.55c1.45 0 2.55-.33 3.28-.98.72-.65 1.09-1.56 1.09-2.72 0-1.15-.37-2.07-1.09-2.75zm-32.74 0c-.73-.68-1.83-1.02-3.29-1.02h-15.54c-1.46 0-2.55.34-3.28 1.02s-1.09 1.6-1.09 2.75c0 1.16.36 2.07 1.09 2.72s1.82.98 3.28.98h15.54c1.46 0 2.56-.33 3.29-.98.72-.65 1.09-1.56 1.09-2.72 0-1.15-.37-2.07-1.09-2.75zm76.17-36.72c-.6-.9-1.43-1.56-2.49-1.96l-27.99-11.99c-.65-.26-1.28-.38-1.89-.38-1 0-1.84.31-2.52.94s-1.02 1.45-1.02 2.45c0 1.31.63 2.24 1.89 2.79l26.63 11.17-26.63 11.17c-1.26.55-1.89 1.48-1.89 2.79 0 1 .34 1.82 1.02 2.45s1.52.94 2.52.94c.71 0 1.34-.12 1.89-.38l27.99-11.92c1.06-.45 1.89-1.11 2.49-1.99s.9-1.9.9-3.06c0-1.11-.3-2.11-.9-3.02zm-45.45 1.7c-.73-.68-1.83-1.02-3.29-1.02h-15.54c-1.46 0-2.55.34-3.28 1.02s-1.09 1.6-1.09 2.75c0 1.16.36 2.07 1.09 2.72s1.82.98 3.28.98h15.54c1.46 0 2.56-.33 3.29-.98.72-.65 1.09-1.56 1.09-2.72 0-1.15-.37-2.07-1.09-2.75zm-32.74 0c-.73-.68-1.83-1.02-3.29-1.02h-15.54c-1.46 0-2.55.34-3.28 1.02s-1.09 1.6-1.09 2.75c0 1.16.36 2.07 1.09 2.72s1.82.98 3.28.98h15.54c1.46 0 2.56-.33 3.29-.98.72-.65 1.09-1.56 1.09-2.72 0-1.15-.37-2.07-1.09-2.75zm-32.75 0c-.73-.68-1.82-1.02-3.28-1.02h-15.54c-1.46 0-2.55.34-3.28 1.02s-1.09 1.6-1.09 2.75c0 1.16.36 2.07 1.09 2.72s1.82.98 3.28.98h15.54c1.46 0 2.55-.33 3.28-.98s1.1-1.56 1.1-2.72c0-1.15-.37-2.07-1.1-2.75zm-33.53 12.49-26.63-11.17 26.63-11.17c1.26-.55 1.89-1.48 1.89-2.79 0-1-.34-1.82-1.02-2.45s-1.52-.94-2.53-.94c-.6 0-1.23.12-1.89.38l-27.98 11.99c-1.06.4-1.89 1.06-2.49 1.96-.61.91-.91 1.91-.91 3.02 0 1.16.3 2.18.91 3.06.6.88 1.43 1.54 2.49 1.99l27.98 11.92c.56.26 1.19.38 1.89.38 1.01 0 1.85-.31 2.53-.94s1.02-1.45 1.02-2.45c0-1.31-.63-2.24-1.89-2.79z" fill="#decee5"/><g fill="#fff"><path d="m137.76 147.17-26.63 11.17 26.63 11.17c1.26.55 1.89 1.48 1.89 2.79 0 1-.34 1.82-1.02 2.45s-1.52.94-2.53.94c-.7 0-1.33-.12-1.89-.38l-27.98-11.92c-1.06-.45-1.89-1.11-2.49-1.99-.61-.88-.91-1.9-.91-3.06 0-1.11.3-2.11.91-3.02.6-.9 1.43-1.56 2.49-1.96l27.98-11.99c.66-.26 1.29-.38 1.89-.38 1.01 0 1.85.31 2.53.94s1.02 1.45 1.02 2.45c0 1.31-.63 2.24-1.89 2.79z"/><path d="m171.29 157.02c.73.68 1.1 1.6 1.1 2.75 0 1.16-.37 2.07-1.1 2.72s-1.82.98-3.28.98h-15.54c-1.46 0-2.55-.33-3.28-.98s-1.09-1.56-1.09-2.72c0-1.15.36-2.07 1.09-2.75s1.82-1.02 3.28-1.02h15.54c1.46 0 2.55.34 3.28 1.02z"/><path d="m185.21 163.47c-1.46 0-2.55-.33-3.28-.98s-1.09-1.56-1.09-2.72c0-1.15.36-2.07 1.09-2.75s1.82-1.02 3.28-1.02h15.54c1.46 0 2.56.34 3.29 1.02.72.68 1.09 1.6 1.09 2.75 0 1.16-.37 2.07-1.09 2.72-.73.65-1.83.98-3.29.98z"/><path d="m207.15 229.81c0 1.16-.37 2.07-1.09 2.72-.73.65-1.83.98-3.29.98h-15.54c-1.46 0-2.55-.33-3.28-.98s-1.09-1.56-1.09-2.72c0-1.15.36-2.07 1.09-2.75s1.82-1.02 3.28-1.02h15.54c1.46 0 2.56.34 3.29 1.02.72.68 1.09 1.6 1.09 2.75z"/><path d="m202.77 191.02c1.46 0 2.56.34 3.29 1.02.72.68 1.09 1.6 1.09 2.75 0 1.16-.37 2.07-1.09 2.72-.73.65-1.83.98-3.29.98h-15.54c-1.46 0-2.55-.33-3.28-.98s-1.09-1.56-1.09-2.72c0-1.15.36-2.07 1.09-2.75s1.82-1.02 3.28-1.02z"/><path d="m210.49 274.88 20.96-8.98c-4.96 4.69-10.05 9.23-15.27 13.63-.17.15-.35.29-.53.44-1.88 1.59-3.78 3.15-5.7 4.69-.81-.44-1.46-1.02-1.95-1.74-.61-.88-.91-1.9-.91-3.06 0-1.1.3-2.11.91-3.02.6-.9 1.43-1.55 2.49-1.96z"/><path d="m214.67 162.49c-.73-.65-1.09-1.56-1.09-2.72 0-1.15.36-2.07 1.09-2.75s1.82-1.02 3.28-1.02h15.54c1.46 0 2.56.34 3.29 1.02.72.68 1.09 1.6 1.09 2.75 0 1.16-.37 2.07-1.09 2.72-.73.65-1.83.98-3.29.98h-15.54c-1.46 0-2.55-.33-3.28-.98z"/><path d="m238.8 227.06c.72.68 1.09 1.6 1.09 2.75 0 1.16-.37 2.07-1.09 2.72-.73.65-1.83.98-3.28.98h-15.55c-1.46 0-2.55-.33-3.28-.98s-1.09-1.56-1.09-2.72c0-1.15.36-2.07 1.09-2.75s1.82-1.02 3.28-1.02h15.55c1.45 0 2.55.34 3.28 1.02z"/><path d="m238.8 192.04c.72.68 1.09 1.6 1.09 2.75 0 1.16-.37 2.07-1.09 2.72-.73.65-1.83.98-3.28.98h-15.55c-1.46 0-2.55-.33-3.28-.98s-1.09-1.56-1.09-2.72c0-1.15.36-2.07 1.09-2.75s1.82-1.02 3.28-1.02h15.55c1.45 0 2.55.34 3.28 1.02z"/><path d="m252.72 226.04h15.2c-1.98 2.52-4 5.01-6.05 7.47h-9.15c-1.46 0-2.56-.33-3.29-.98s-1.09-1.56-1.09-2.72c0-1.15.36-2.07 1.09-2.75s1.83-1.02 3.29-1.02z"/><path d="m271.54 192.04c.73.68 1.09 1.6 1.09 2.75 0 1.16-.36 2.07-1.09 2.72s-1.83.98-3.28.98h-15.54c-1.46 0-2.56-.33-3.29-.98s-1.09-1.56-1.09-2.72c0-1.15.36-2.07 1.09-2.75s1.83-1.02 3.29-1.02h15.54c1.45 0 2.55.34 3.28 1.02z"/><path d="m279.74 163.39-27.99 11.92c-.55.26-1.18.38-1.89.38-1 0-1.84-.31-2.52-.94s-1.02-1.45-1.02-2.45c0-1.31.63-2.24 1.89-2.79l26.63-11.17-26.63-11.17c-1.26-.55-1.89-1.48-1.89-2.79 0-1 .34-1.82 1.02-2.45s1.52-.94 2.52-.94c.61 0 1.24.12 1.89.38l27.99 11.99c1.06.4 1.89 1.06 2.49 1.96.6.91.9 1.91.9 3.02 0 1.16-.3 2.18-.9 3.06s-1.43 1.54-2.49 1.99z"/><path d="m292.34 191.02c-1.53 2.51-3.1 5-4.71 7.47h-2.17c-1.46 0-2.56-.33-3.28-.98-.73-.65-1.1-1.56-1.1-2.72 0-1.15.37-2.07 1.1-2.75.72-.68 1.82-1.02 3.28-1.02z"/></g></g></g></g></svg>