<?xml version="1.0" encoding="iso-8859-1"?>
<!-- Generator: Adobe Illustrator 19.0.0, SVG Export Plug-In . SVG Version: 6.00 Build 0)  -->
<svg version="1.1" id="Capa_1" xmlns="http://www.w3.org/2000/svg" xmlns:xlink="http://www.w3.org/1999/xlink" x="0px" y="0px"
	 viewBox="0 0 512 512" style="enable-background:new 0 0 512 512;" xml:space="preserve">
<circle style="fill:#005ECE;" cx="256" cy="256" r="256"/>
<path style="fill:#00479B;" d="M512,256c0-9.6-0.547-19.07-1.576-28.395l-101.38-101.38v-0.312h-69.62h-69.62v27.608l-27.608-27.608
	h-69.62h-69.62v105.672l28.922,24.864H72.348v20.405l20.405,20.405v88.825l0,0L215.46,508.792C228.665,510.894,242.203,512,256,512
	C397.384,512,512,397.385,512,256z"/>
<rect x="133.565" y="266.652" style="fill:#C6C5CA;" width="10.203" height="119.43"/>
<rect x="204.989" y="266.652" style="fill:#ACABB1;" width="10.203" height="119.43"/>
<rect x="133.565" y="308.168" style="fill:#898890;" width="81.619" height="11.13"/>
<rect x="296.815" y="266.652" style="fill:#C6C5CA;" width="10.203" height="119.43"/>
<rect x="368.228" y="266.652" style="fill:#ACABB1;" width="10.203" height="119.43"/>
<rect x="296.815" y="308.168" style="fill:#898890;" width="81.619" height="11.13"/>
<polygon style="fill:#ACABB1;" points="242.196,125.913 102.957,125.913 102.957,231.585 150.475,231.585 148.817,246.505 
	132.794,246.505 132.794,266.653 212.359,266.653 212.359,246.505 196.335,246.505 194.678,231.585 242.196,231.585 "/>
<polygon style="fill:#898890;" points="242.196,125.913 172.576,125.913 172.576,266.653 212.359,266.653 212.359,246.505 
	196.335,246.505 194.678,231.585 242.196,231.585 "/>
<rect x="102.957" y="125.907" style="fill:#C6C5CA;" width="139.242" height="105.672"/>
<rect x="172.577" y="125.907" style="fill:#ACABB1;" width="69.621" height="105.672"/>
<circle style="fill:#57565C;" cx="172.577" cy="221.64" r="4.973"/>
<rect x="102.957" y="125.907" style="fill:#9BFBFF;" width="139.242" height="85.782"/>
<rect x="132.797" y="246.506" style="fill:#C6C5CA;" width="79.56" height="20.146"/>
<rect x="172.577" y="246.506" style="fill:#ACABB1;" width="39.782" height="20.146"/>
<rect x="172.577" y="125.907" style="fill:#46F8FF;" width="69.621" height="85.782"/>
<polygon style="fill:#ACABB1;" points="409.043,125.913 269.804,125.913 269.804,231.585 317.322,231.585 315.665,246.505 
	299.641,246.505 299.641,266.653 379.206,266.653 379.206,246.505 363.183,246.505 361.525,231.585 409.043,231.585 "/>
<polygon style="fill:#898890;" points="409.043,125.913 339.424,125.913 339.424,266.653 379.206,266.653 379.206,246.505 
	363.183,246.505 361.525,231.585 409.043,231.585 "/>
<rect x="269.802" y="125.907" style="fill:#C6C5CA;" width="139.242" height="105.672"/>
<rect x="339.423" y="125.907" style="fill:#ACABB1;" width="69.621" height="105.672"/>
<circle style="fill:#57565C;" cx="339.423" cy="221.64" r="4.973"/>
<rect x="269.802" y="125.907" style="fill:#9BFBFF;" width="139.242" height="85.782"/>
<rect x="299.642" y="246.506" style="fill:#C6C5CA;" width="79.56" height="20.146"/>
<rect x="339.423" y="246.506" style="fill:#ACABB1;" width="39.782" height="20.146"/>
<rect x="339.423" y="125.907" style="fill:#46F8FF;" width="69.621" height="85.782"/>
<rect x="92.75" y="266.652" style="fill:#C6C5CA;" width="20.405" height="119.43"/>
<g>
	<rect x="398.837" y="266.652" style="fill:#ACABB1;" width="20.405" height="119.43"/>
	<rect x="72.348" y="256.445" style="fill:#ACABB1;" width="367.304" height="20.405"/>
</g>
<rect x="256" y="256.445" style="fill:#898890;" width="183.652" height="20.405"/>
<g>
</g>
<g>
</g>
<g>
</g>
<g>
</g>
<g>
</g>
<g>
</g>
<g>
</g>
<g>
</g>
<g>
</g>
<g>
</g>
<g>
</g>
<g>
</g>
<g>
</g>
<g>
</g>
<g>
</g>
</svg>
