<svg width="406" height="331" viewBox="0 0 406 331" fill="none" xmlns="http://www.w3.org/2000/svg">
<g clip-path="url(#clip0)">
<rect width="273" height="32" fill="#69DA82"/>
<rect x="273" y="32" width="91" height="32" rx="1" transform="rotate(90 273 32)" fill="#69DA82"/>
<rect x="273" y="149" width="105" height="32" rx="1" transform="rotate(-180 273 149)" fill="#69DA82"/>
<rect x="168" y="32" width="273" height="32" rx="1" transform="rotate(90 168 32)" fill="#69DA82"/>
<rect x="32" y="41" width="264" height="32" rx="1" transform="rotate(90 32 41)" fill="#69DA82"/>
<path d="M184.14 305H182.18C181.34 305 181.06 304.58 181.34 303.74L210.74 216.24C211.02 215.4 211.487 214.98 212.14 214.98H215.5C216.153 214.98 216.62 215.4 216.9 216.24L246.3 303.74C246.58 304.58 246.3 305 245.46 305H243.36C242.707 305 242.24 304.58 241.96 303.74L233.42 279.38H194.22L185.68 303.74C185.307 304.58 184.793 305 184.14 305ZM213.54 220.3L195.76 275.18H231.88L214.1 220.3H213.54ZM265.671 305H263.711C262.965 305 262.591 304.58 262.591 303.74V216.24C262.591 215.4 262.965 214.98 263.711 214.98H295.211C300.905 214.98 305.431 216.707 308.791 220.16C312.245 223.613 313.971 228.233 313.971 234.02V248.02C313.971 253.247 312.571 257.54 309.771 260.9C306.971 264.167 303.191 266.127 298.431 266.78V267.34L315.651 303.74C316.118 304.58 315.931 305 315.091 305H312.571C311.825 305 311.218 304.58 310.751 303.74L293.671 267.06H268.051C267.211 267.06 266.791 267.433 266.791 268.18V303.74C266.791 304.58 266.418 305 265.671 305ZM268.051 263.14H295.211C299.878 263.14 303.471 261.787 305.991 259.08C308.511 256.373 309.771 252.64 309.771 247.88V234.16C309.771 229.4 308.511 225.667 305.991 222.96C303.471 220.253 299.878 218.9 295.211 218.9H268.051C267.211 218.9 266.791 219.273 266.791 220.02V262.02C266.791 262.767 267.211 263.14 268.051 263.14ZM339.21 305H337.25C336.503 305 336.13 304.58 336.13 303.74V216.24C336.13 215.4 336.503 214.98 337.25 214.98H339.21C339.956 214.98 340.33 215.4 340.33 216.24V271.12H340.89C341.45 269.907 342.15 268.74 342.99 267.62L382.33 216.24C382.983 215.4 383.73 214.98 384.57 214.98H387.23C388.163 214.98 388.256 215.4 387.51 216.24L358.95 254.18L392.27 303.74C392.83 304.58 392.643 305 391.71 305H389.47C388.63 305 387.93 304.58 387.37 303.74L356.29 257.54L340.33 276.72V303.74C340.33 304.58 339.956 305 339.21 305Z" fill="#34A44D"/>
<path d="M184.49 208H184C183.813 208 183.72 207.895 183.72 207.685V186.755C183.72 186.568 183.615 186.475 183.405 186.475H178.015C177.805 186.475 177.7 186.382 177.7 186.195V185.775C177.7 185.588 177.805 185.495 178.015 185.495H190.475C190.685 185.495 190.79 185.588 190.79 185.775V186.195C190.79 186.382 190.685 186.475 190.475 186.475H185.085C184.875 186.475 184.77 186.568 184.77 186.755V207.685C184.77 207.895 184.677 208 184.49 208ZM230.307 208H223.132C221.709 208 220.566 207.568 219.702 206.705C218.862 205.842 218.442 204.687 218.442 203.24V194.91C218.442 193.463 218.862 192.308 219.702 191.445C220.566 190.582 221.709 190.15 223.132 190.15H226.212C227.636 190.15 228.767 190.582 229.607 191.445C230.471 192.308 230.902 193.463 230.902 194.91V199.355C230.902 199.588 230.797 199.705 230.587 199.705H219.807C219.597 199.705 219.492 199.798 219.492 199.985V203.205C219.492 204.395 219.807 205.328 220.437 206.005C221.067 206.682 221.966 207.02 223.132 207.02H230.307C230.517 207.02 230.622 207.113 230.622 207.3V207.72C230.622 207.907 230.517 208 230.307 208ZM219.807 198.725H229.537C229.747 198.725 229.852 198.632 229.852 198.445V194.945C229.852 193.755 229.537 192.822 228.907 192.145C228.277 191.468 227.379 191.13 226.212 191.13H223.132C221.966 191.13 221.067 191.468 220.437 192.145C219.807 192.822 219.492 193.755 219.492 194.945V198.445C219.492 198.632 219.597 198.725 219.807 198.725ZM270.11 207.3V207.72C270.11 207.907 270.005 208 269.795 208H264.825C263.401 208 262.258 207.568 261.395 206.705C260.555 205.842 260.135 204.687 260.135 203.24V194.91C260.135 193.463 260.555 192.308 261.395 191.445C262.258 190.582 263.401 190.15 264.825 190.15H269.795C270.005 190.15 270.11 190.243 270.11 190.43V190.85C270.11 191.037 270.005 191.13 269.795 191.13H264.825C263.658 191.13 262.76 191.468 262.13 192.145C261.5 192.822 261.185 193.755 261.185 194.945V203.205C261.185 204.395 261.5 205.328 262.13 206.005C262.76 206.682 263.658 207.02 264.825 207.02H269.795C270.005 207.02 270.11 207.113 270.11 207.3ZM299.392 208H298.902C298.716 208 298.622 207.895 298.622 207.685V183.71C298.622 183.5 298.716 183.395 298.902 183.395H299.392C299.579 183.395 299.672 183.5 299.672 183.71V191.97H299.812C300.466 190.757 301.702 190.15 303.522 190.15H306.112C307.536 190.15 308.667 190.582 309.507 191.445C310.371 192.308 310.802 193.463 310.802 194.91V207.685C310.802 207.895 310.709 208 310.522 208H310.032C309.846 208 309.752 207.895 309.752 207.685V194.945C309.752 193.755 309.437 192.822 308.807 192.145C308.177 191.468 307.279 191.13 306.112 191.13H303.592C302.426 191.13 301.481 191.445 300.757 192.075C300.034 192.705 299.672 193.603 299.672 194.77V207.685C299.672 207.895 299.579 208 299.392 208ZM341.495 208H341.005C340.818 208 340.725 207.895 340.725 207.685V190.465C340.725 190.255 340.818 190.15 341.005 190.15H341.495C341.681 190.15 341.775 190.255 341.775 190.465V191.97H341.915C342.568 190.757 343.805 190.15 345.625 190.15H348.215C349.638 190.15 350.77 190.582 351.61 191.445C352.473 192.308 352.905 193.463 352.905 194.91V207.685C352.905 207.895 352.811 208 352.625 208H352.135C351.948 208 351.855 207.895 351.855 207.685V194.945C351.855 193.755 351.54 192.822 350.91 192.145C350.28 191.468 349.381 191.13 348.215 191.13H345.695C344.528 191.13 343.583 191.445 342.86 192.075C342.136 192.705 341.775 193.603 341.775 194.77V207.685C341.775 207.895 341.681 208 341.495 208ZM390.142 208H387.167C385.744 208 384.601 207.568 383.737 206.705C382.897 205.842 382.477 204.687 382.477 203.24V194.91C382.477 193.463 382.897 192.308 383.737 191.445C384.601 190.582 385.744 190.15 387.167 190.15H390.142C391.566 190.15 392.697 190.582 393.537 191.445C394.401 192.308 394.832 193.463 394.832 194.91V203.24C394.832 204.687 394.401 205.842 393.537 206.705C392.697 207.568 391.566 208 390.142 208ZM387.167 207.02H390.142C391.309 207.02 392.207 206.682 392.837 206.005C393.467 205.328 393.782 204.395 393.782 203.205V194.945C393.782 193.755 393.467 192.822 392.837 192.145C392.207 191.468 391.309 191.13 390.142 191.13H387.167C386.001 191.13 385.102 191.468 384.472 192.145C383.842 192.822 383.527 193.755 383.527 194.945V203.205C383.527 204.395 383.842 205.328 384.472 206.005C385.102 206.682 386.001 207.02 387.167 207.02Z" fill="black"/>
</g>
<defs>
<clipPath id="clip0">
<rect width="406" height="331" fill="white"/>
</clipPath>
</defs>
</svg>
