<svg width="684" height="501" viewBox="0 0 684 501" fill="none" xmlns="http://www.w3.org/2000/svg">
<g clip-path="url(#clip0)">
<path d="M782 306C782 474.999 626.195 612 434 612C241.805 612 86 474.999 86 306C86 137.001 241.805 0 434 0C626.195 0 782 137.001 782 306Z" fill="#7A0A0A"/>
<rect x="232" y="85" width="273" height="32" fill="#FFDBC5"/>
<rect x="400" y="117" width="273" height="32" rx="1" transform="rotate(90 400 117)" fill="#69DA82"/>
<rect x="505" y="117" width="91" height="32" rx="1" transform="rotate(90 505 117)" fill="#FFDBC5"/>
<rect x="505" y="234" width="105" height="32" rx="1" transform="rotate(-180 505 234)" fill="#FFDBC5"/>
<rect x="400" y="117" width="273" height="32" rx="1" transform="rotate(90 400 117)" fill="#FFDBC5"/>
<rect x="264" y="126" width="264" height="32" rx="1" transform="rotate(90 264 126)" fill="#FFDBC5"/>
<path d="M416.14 390H414.18C413.34 390 413.06 389.58 413.34 388.74L442.74 301.24C443.02 300.4 443.487 299.98 444.14 299.98H447.5C448.153 299.98 448.62 300.4 448.9 301.24L478.3 388.74C478.58 389.58 478.3 390 477.46 390H475.36C474.707 390 474.24 389.58 473.96 388.74L465.42 364.38H426.22L417.68 388.74C417.307 389.58 416.793 390 416.14 390ZM445.54 305.3L427.76 360.18H463.88L446.1 305.3H445.54ZM497.671 390H495.711C494.965 390 494.591 389.58 494.591 388.74V301.24C494.591 300.4 494.965 299.98 495.711 299.98H527.211C532.905 299.98 537.431 301.707 540.791 305.16C544.245 308.613 545.971 313.233 545.971 319.02V333.02C545.971 338.247 544.571 342.54 541.771 345.9C538.971 349.167 535.191 351.127 530.431 351.78V352.34L547.651 388.74C548.118 389.58 547.931 390 547.091 390H544.571C543.825 390 543.218 389.58 542.751 388.74L525.671 352.06H500.051C499.211 352.06 498.791 352.433 498.791 353.18V388.74C498.791 389.58 498.418 390 497.671 390ZM500.051 348.14H527.211C531.878 348.14 535.471 346.787 537.991 344.08C540.511 341.373 541.771 337.64 541.771 332.88V319.16C541.771 314.4 540.511 310.667 537.991 307.96C535.471 305.253 531.878 303.9 527.211 303.9H500.051C499.211 303.9 498.791 304.273 498.791 305.02V347.02C498.791 347.767 499.211 348.14 500.051 348.14ZM571.21 390H569.25C568.503 390 568.13 389.58 568.13 388.74V301.24C568.13 300.4 568.503 299.98 569.25 299.98H571.21C571.956 299.98 572.33 300.4 572.33 301.24V356.12H572.89C573.45 354.907 574.15 353.74 574.99 352.62L614.33 301.24C614.983 300.4 615.73 299.98 616.57 299.98H619.23C620.163 299.98 620.256 300.4 619.51 301.24L590.95 339.18L624.27 388.74C624.83 389.58 624.643 390 623.71 390H621.47C620.63 390 619.93 389.58 619.37 388.74L588.29 342.54L572.33 361.72V388.74C572.33 389.58 571.956 390 571.21 390Z" fill="#D9783D"/>
<path d="M416.49 293H416C415.813 293 415.72 292.895 415.72 292.685V271.755C415.72 271.568 415.615 271.475 415.405 271.475H410.015C409.805 271.475 409.7 271.382 409.7 271.195V270.775C409.7 270.588 409.805 270.495 410.015 270.495H422.475C422.685 270.495 422.79 270.588 422.79 270.775V271.195C422.79 271.382 422.685 271.475 422.475 271.475H417.085C416.875 271.475 416.77 271.568 416.77 271.755V292.685C416.77 292.895 416.677 293 416.49 293ZM462.307 293H455.132C453.709 293 452.566 292.568 451.702 291.705C450.862 290.842 450.442 289.687 450.442 288.24V279.91C450.442 278.463 450.862 277.308 451.702 276.445C452.566 275.582 453.709 275.15 455.132 275.15H458.212C459.636 275.15 460.767 275.582 461.607 276.445C462.471 277.308 462.902 278.463 462.902 279.91V284.355C462.902 284.588 462.797 284.705 462.587 284.705H451.807C451.597 284.705 451.492 284.798 451.492 284.985V288.205C451.492 289.395 451.807 290.328 452.437 291.005C453.067 291.682 453.966 292.02 455.132 292.02H462.307C462.517 292.02 462.622 292.113 462.622 292.3V292.72C462.622 292.907 462.517 293 462.307 293ZM451.807 283.725H461.537C461.747 283.725 461.852 283.632 461.852 283.445V279.945C461.852 278.755 461.537 277.822 460.907 277.145C460.277 276.468 459.379 276.13 458.212 276.13H455.132C453.966 276.13 453.067 276.468 452.437 277.145C451.807 277.822 451.492 278.755 451.492 279.945V283.445C451.492 283.632 451.597 283.725 451.807 283.725ZM502.11 292.3V292.72C502.11 292.907 502.005 293 501.795 293H496.825C495.401 293 494.258 292.568 493.395 291.705C492.555 290.842 492.135 289.687 492.135 288.24V279.91C492.135 278.463 492.555 277.308 493.395 276.445C494.258 275.582 495.401 275.15 496.825 275.15H501.795C502.005 275.15 502.11 275.243 502.11 275.43V275.85C502.11 276.037 502.005 276.13 501.795 276.13H496.825C495.658 276.13 494.76 276.468 494.13 277.145C493.5 277.822 493.185 278.755 493.185 279.945V288.205C493.185 289.395 493.5 290.328 494.13 291.005C494.76 291.682 495.658 292.02 496.825 292.02H501.795C502.005 292.02 502.11 292.113 502.11 292.3ZM531.392 293H530.902C530.716 293 530.622 292.895 530.622 292.685V268.71C530.622 268.5 530.716 268.395 530.902 268.395H531.392C531.579 268.395 531.672 268.5 531.672 268.71V276.97H531.812C532.466 275.757 533.702 275.15 535.522 275.15H538.112C539.536 275.15 540.667 275.582 541.507 276.445C542.371 277.308 542.802 278.463 542.802 279.91V292.685C542.802 292.895 542.709 293 542.522 293H542.032C541.846 293 541.752 292.895 541.752 292.685V279.945C541.752 278.755 541.437 277.822 540.807 277.145C540.177 276.468 539.279 276.13 538.112 276.13H535.592C534.426 276.13 533.481 276.445 532.757 277.075C532.034 277.705 531.672 278.603 531.672 279.77V292.685C531.672 292.895 531.579 293 531.392 293ZM573.495 293H573.005C572.818 293 572.725 292.895 572.725 292.685V275.465C572.725 275.255 572.818 275.15 573.005 275.15H573.495C573.681 275.15 573.775 275.255 573.775 275.465V276.97H573.915C574.568 275.757 575.805 275.15 577.625 275.15H580.215C581.638 275.15 582.77 275.582 583.61 276.445C584.473 277.308 584.905 278.463 584.905 279.91V292.685C584.905 292.895 584.811 293 584.625 293H584.135C583.948 293 583.855 292.895 583.855 292.685V279.945C583.855 278.755 583.54 277.822 582.91 277.145C582.28 276.468 581.381 276.13 580.215 276.13H577.695C576.528 276.13 575.583 276.445 574.86 277.075C574.136 277.705 573.775 278.603 573.775 279.77V292.685C573.775 292.895 573.681 293 573.495 293ZM622.142 293H619.167C617.744 293 616.601 292.568 615.737 291.705C614.897 290.842 614.477 289.687 614.477 288.24V279.91C614.477 278.463 614.897 277.308 615.737 276.445C616.601 275.582 617.744 275.15 619.167 275.15H622.142C623.566 275.15 624.697 275.582 625.537 276.445C626.401 277.308 626.832 278.463 626.832 279.91V288.24C626.832 289.687 626.401 290.842 625.537 291.705C624.697 292.568 623.566 293 622.142 293ZM619.167 292.02H622.142C623.309 292.02 624.207 291.682 624.837 291.005C625.467 290.328 625.782 289.395 625.782 288.205V279.945C625.782 278.755 625.467 277.822 624.837 277.145C624.207 276.468 623.309 276.13 622.142 276.13H619.167C618.001 276.13 617.102 276.468 616.472 277.145C615.842 277.822 615.527 278.755 615.527 279.945V288.205C615.527 289.395 615.842 290.328 616.472 291.005C617.102 291.682 618.001 292.02 619.167 292.02Z" fill="white"/>
</g>
<defs>
<clipPath id="clip0">
<rect width="684" height="501" fill="white"/>
</clipPath>
</defs>
</svg>
